{
.appVersion = "1060";
copyright = "Copyright 2017 Google Inc. All Rights Reserved.";
customParameters = (
{
name = glyphOrder;
value = (
.notdef,
NULL,
CR,
space,
uni00A0,
colon,
ellipsis,
tricolon,
u10980,
u10981,
u10982,
u10983,
u10984,
u10985,
u10986,
u10987,
u10988,
u10989,
u1098A,
u1098B,
u1098C,
u1098D,
u1098E,
u1098F,
u10990,
u10991,
u10992,
u10993,
u10994,
u10995,
u10996,
u10997,
u10998,
u10999,
u1099A,
u1099B,
u1099C,
u1099D,
u1099E,
u1099F,
u10981.rev,
u109A0,
u109A1,
u109A2,
u109A3,
u109A4,
u109A5,
u109A6,
u109A7,
u109A8,
u109A9,
u109AA,
u109AB,
u109AC,
u109AD,
u109AE,
u109AF,
u109B0,
u109B1,
u109B2,
u109B3,
u109B4,
u109B5,
u109B6,
u109B7,
u109BC,
u109BD,
u109BE,
u109BF,
u109C0,
u109C1,
u109C2,
u109C3,
u109C4,
u109C5,
u109C6,
u109C7,
u109C8,
u109C9,
u109CA,
u109CB,
u109CC,
u109CD,
u109CE,
u109CF,
u109D2,
u109D3,
u109D4,
u109D5,
u109D6,
u109D7,
u109D8,
u109D9,
u109DA,
u109DB,
u109DC,
u109DD,
u109DE,
u109DF,
u109E0,
u109E1,
u109E2,
u109E3,
u109E4,
u109E5,
u109E6,
u109E7,
u109E8,
u109E9,
u109EA,
u109EB,
u109EC,
u109ED,
u109EE,
u109EF,
u109F0,
u109F1,
u109F2,
u109F3,
u109F4,
u109F5,
u109F6,
u109F7,
u109F8,
u109F9,
u109FA,
u109FB,
u109FC,
u109FD,
u109FE,
u109FF,
"mero-colon",
u109A2.alt1,
u109A2.alt2
);
},
{
name = description;
value = "Designed by Monotype design team.";
},
{
name = license;
value = "This Font Software is licensed under the SIL Open Font License, Version 1.1. This Font Software is distributed on an \"AS IS\" BASIS, WITHOUT WARRANTIES OR CONDITIONS OF ANY KIND, either express or implied. See the SIL Open Font License for the specific language, permissions and limitations governing your use of this Font Software.";
},
{
name = licenseURL;
value = "http://scripts.sil.org/OFL";
},
{
name = vendorID;
value = GOOG;
},
{
name = unicodeRanges;
value = (
0,
1,
31,
57
);
},
{
name = trademark;
value = "Noto is a trademark of Google Inc.";
},
{
name = "Has WWS Names";
value = 1;
},
{
name = versionString;
value = "Version 2.000";
},
{
name = fsType;

glyphs = (
{
glyphname = .notdef;
lastChange = "2017-11-08 19:36:06 +0000";
layers = (
{
layerId = UUID0;
paths = (
{
closed = 1;
nodes = (
"505 0 LINE",
"505 714 LINE",
"94 714 LINE",
"94 0 LINE"
);
},
{
closed = 1;
nodes = (
"145 663 LINE",
"454 663 LINE",
"454 51 LINE",
"145 51 LINE"
);
}
);
width = 600;
}
);
},
{
glyphname = colon;
lastChange = "2017-11-08 19:36:06 +0000";
layers = (
{
layerId = UUID0;
paths = (
{
closed = 1;
nodes = (
"126 446 OFFCURVE",
"147 431 OFFCURVE",
"175 431 CURVE SMOOTH",
"207 431 OFFCURVE",
"238 451 OFFCURVE",
"238 502 CURVE SMOOTH",
"238 540 OFFCURVE",
"214 553 OFFCURVE",
"187 553 CURVE SMOOTH",
"145 553 OFFCURVE",
"126 517 OFFCURVE",
"126 481 CURVE SMOOTH"
);
},
{
closed = 1;
nodes = (
"83 123 OFFCURVE",
"104 108 OFFCURVE",
"132 108 CURVE SMOOTH",
"164 108 OFFCURVE",
"195 128 OFFCURVE",
"195 179 CURVE SMOOTH",
"195 217 OFFCURVE",
"171 230 OFFCURVE",
"144 230 CURVE SMOOTH",
"102 230 OFFCURVE",
"83 194 OFFCURVE",
"83 158 CURVE SMOOTH"
);
}
);
width = 321;
}
);
unicode = 003A;
},
{
glyphname = ellipsis;
lastChange = "2017-11-08 19:36:06 +0000";
layers = (
{
associatedMasterId = UUID0;
background = {
components = (
{
name = period;
},
{
name = period;
transform = "{1, 0, 0, 1, 289, 0}";
},
{
name = period;
transform = "{1, 0, 0, 1, 578, 0}";
}
);
};
components = (
{
alignment = -1;
name = period;
},
{
alignment = -1;
name = period;
transform = "{1, 0, 0, 1, 289, 0}";
},
{
alignment = -1;
name = period;
transform = "{1, 0, 0, 1, 578, 0}";
}
);
layerId = "0A718E2F-231D-484E-9433-16A5230D2CE8";
name = "new Layer";
width = 867;
},
{
associatedMasterId = UUID0;
background = {
components = (
{
name = period;
},
{
name = period;
transform = "{1, 0, 0, 1, 275, 0}";
},
{
name = period;
transform = "{1, 0, 0, 1, 550, 0}";
}
);
};
components = (
{
alignment = -1;
name = period;
},
{
alignment = -1;
name = period;
transform = "{1, 0, 0, 1, 275, 0}";
},
{
alignment = -1;
name = period;
transform = "{1, 0, 0, 1, 550, 0}";
}
);
layerId = "98E204A9-1C79-49C7-AB3E-40A925F56409";
name = "new Layer";
width = 823;
},
{
associatedMasterId = UUID0;
background = {
components = (
{
name = period;
},
{
name = period;
transform = "{1, 0, 0, 1, 262, 0}";
},
{
name = period;
transform = "{1, 0, 0, 1, 523, 0}";
}
);
};
components = (
{
alignment = -1;
name = period;
},
{
alignment = -1;
name = period;
transform = "{1, 0, 0, 1, 262, 0}";
},
{
alignment = -1;
name = period;
transform = "{1, 0, 0, 1, 523, 0}";
}
);
layerId = "9FF96064-8718-4A86-A5C8-73C592101F67";
name = "new Layer";
width = 791;
},
{
associatedMasterId = UUID0;
background = {
components = (
{
name = period;
},
{
name = period;
transform = "{1, 0, 0, 1, 285, 0}";
},
{
name = period;
transform = "{1, 0, 0, 1, 570, 0}";
}
);
};
components = (
{
alignment = -1;
name = period;
},
{
alignment = -1;
name = period;
transform = "{1, 0, 0, 1, 285, 0}";
},
{
alignment = -1;
name = period;
transform = "{1, 0, 0, 1, 570, 0}";
}
);
layerId = "134B12F2-BF5D-48E3-8003-C7502B438C7E";
name = "new Layer";
width = 855;
},
{
associatedMasterId = UUID0;
background = {
components = (
{
name = period;
},
{
name = period;
transform = "{1, 0, 0, 1, 226, 0}";
},
{
name = period;
transform = "{1, 0, 0, 1, 453, 0}";
}
);
};
components = (
{
alignment = -1;
name = period;
},
{
alignment = -1;
name = period;
transform = "{1, 0, 0, 1, 226, 0}";
},
{
alignment = -1;
name = period;
transform = "{1, 0, 0, 1, 453, 0}";
}
);
layerId = "36F3C8CB-53EE-4548-BFDE-2C03212BACAA";
name = "new Layer";
width = 679;
},
{
associatedMasterId = UUID0;
background = {
components = (
{
name = period;
},
{
name = period;
transform = "{1, 0, 0, 1, 256, 0}";
},
{
name = period;
transform = "{1, 0, 0, 1, 512, 0}";
}
);
};
components = (
{
alignment = -1;
name = period;
},
{
alignment = -1;
name = period;
transform = "{1, 0, 0, 1, 256, 0}";
},
{
alignment = -1;
name = period;
transform = "{1, 0, 0, 1, 512, 0}";
}
);
layerId = "43B45EC1-5522-4B1A-B0C7-88628E50A583";
name = "new Layer";
width = 767;
},
{
layerId = UUID0;
paths = (
{
closed = 1;
nodes = (
"73 5 OFFCURVE",
"94 -10 OFFCURVE",
"122 -10 CURVE SMOOTH",
"154 -10 OFFCURVE",
"185 10 OFFCURVE",
"185 61 CURVE SMOOTH",
"185 99 OFFCURVE",
"161 112 OFFCURVE",
"134 112 CURVE SMOOTH",
"92 112 OFFCURVE",
"73 76 OFFCURVE",
"73 40 CURVE SMOOTH"
);
},
{
closed = 1;
nodes = (
"394 5 OFFCURVE",
"415 -10 OFFCURVE",
"443 -10 CURVE SMOOTH",
"475 -10 OFFCURVE",
"506 10 OFFCURVE",
"506 61 CURVE SMOOTH",
"506 99 OFFCURVE",
"482 112 OFFCURVE",
"455 112 CURVE SMOOTH",
"413 112 OFFCURVE",
"394 76 OFFCURVE",
"394 40 CURVE SMOOTH"
);
},
{
closed = 1;
nodes = (
"715 5 OFFCURVE",
"736 -10 OFFCURVE",
"764 -10 CURVE SMOOTH",
"796 -10 OFFCURVE",
"827 10 OFFCURVE",
"827 61 CURVE SMOOTH",
"827 99 OFFCURVE",
"803 112 OFFCURVE",
"776 112 CURVE SMOOTH",
"734 112 OFFCURVE",
"715 76 OFFCURVE",
"715 40 CURVE SMOOTH"
);
}
);
width = 963;
},
{
associatedMasterId = UUID0;
background = {
components = (
{
name = period;
},
{
name = period;
transform = "{1, 0, 0, 1, 194, 0}";
},
{
name = period;
transform = "{1, 0, 0, 1, 387, 0}";
}
);
};
components = (
{
alignment = -1;
name = period;
},
{
alignment = -1;
name = period;
transform = "{1, 0, 0, 1, 194, 0}";
},
{
alignment = -1;
name = period;
transform = "{1, 0, 0, 1, 387, 0}";
}
);
layerId = "029FEF0C-5FA4-4A3E-AC23-838A1147A554";
name = "new Layer";
width = 567;
}
);
leftKerningGroup = period.right;
unicode = 2026;
},
{
glyphname = tricolon;
lastChange = "2017-11-08 19:36:06 +0000";
layers = (
{
associatedMasterId = UUID0;
background = {
paths = (
{
closed = 1;
nodes = (
"52 320 OFFCURVE",
"99 293 OFFCURVE",
"156 293 CURVE SMOOTH",
"210 293 OFFCURVE",
"256 320 OFFCURVE",
"256 386 CURVE SMOOTH",
"256 455 OFFCURVE",
"210 480 OFFCURVE",
"156 480 CURVE SMOOTH",
"99 480 OFFCURVE",
"52 455 OFFCURVE",
"52 386 CURVE SMOOTH"
);
},
{
closed = 1;
nodes = (
"48 3 OFFCURVE",
"95 -24 OFFCURVE",
"152 -24 CURVE SMOOTH",
"206 -24 OFFCURVE",
"252 3 OFFCURVE",
"252 69 CURVE SMOOTH",
"252 138 OFFCURVE",
"206 163 OFFCURVE",
"152 163 CURVE SMOOTH",
"95 163 OFFCURVE",
"48 138 OFFCURVE",
"48 69 CURVE SMOOTH"
);
},
{
closed = 1;
nodes = (
"50 637 OFFCURVE",
"97 610 OFFCURVE",
"154 610 CURVE SMOOTH",
"208 610 OFFCURVE",
"254 637 OFFCURVE",
"254 703 CURVE SMOOTH",
"254 772 OFFCURVE",
"208 797 OFFCURVE",
"154 797 CURVE SMOOTH",
"97 797 OFFCURVE",
"50 772 OFFCURVE",
"50 703 CURVE SMOOTH"
);
}
);
};
layerId = "0A718E2F-231D-484E-9433-16A5230D2CE8";
name = "new Layer";
paths = (
{
closed = 1;
nodes = (
"52 320 OFFCURVE",
"99 293 OFFCURVE",
"156 293 CURVE SMOOTH",
"210 293 OFFCURVE",
"256 320 OFFCURVE",
"256 386 CURVE SMOOTH",
"256 455 OFFCURVE",
"210 480 OFFCURVE",
"156 480 CURVE SMOOTH",
"99 480 OFFCURVE",
"52 455 OFFCURVE",
"52 386 CURVE SMOOTH"
);
},
{
closed = 1;
nodes = (
"48 3 OFFCURVE",
"95 -24 OFFCURVE",
"152 -24 CURVE SMOOTH",
"206 -24 OFFCURVE",
"252 3 OFFCURVE",
"252 69 CURVE SMOOTH",
"252 138 OFFCURVE",
"206 163 OFFCURVE",
"152 163 CURVE SMOOTH",
"95 163 OFFCURVE",
"48 138 OFFCURVE",
"48 69 CURVE SMOOTH"
);
},
{
closed = 1;
nodes = (
"50 637 OFFCURVE",
"97 610 OFFCURVE",
"154 610 CURVE SMOOTH",
"208 610 OFFCURVE",
"254 637 OFFCURVE",
"254 703 CURVE SMOOTH",
"254 772 OFFCURVE",
"208 797 OFFCURVE",
"154 797 CURVE SMOOTH",
"97 797 OFFCURVE",
"50 772 OFFCURVE",
"50 703 CURVE SMOOTH"
);
}
);
width = 289;
},
{
associatedMasterId = UUID0;
background = {
paths = (
{
closed = 1;
nodes = (
"52 320 OFFCURVE",
"99 293 OFFCURVE",
"156 293 CURVE SMOOTH",
"210 293 OFFCURVE",
"256 320 OFFCURVE",
"256 386 CURVE SMOOTH",
"256 455 OFFCURVE",
"210 480 OFFCURVE",
"156 480 CURVE SMOOTH",
"99 480 OFFCURVE",
"52 455 OFFCURVE",
"52 386 CURVE SMOOTH"
);
},
{
closed = 1;
nodes = (
"48 3 OFFCURVE",
"95 -24 OFFCURVE",
"152 -24 CURVE SMOOTH",
"206 -24 OFFCURVE",
"252 3 OFFCURVE",
"252 69 CURVE SMOOTH",
"252 138 OFFCURVE",
"206 163 OFFCURVE",
"152 163 CURVE SMOOTH",
"95 163 OFFCURVE",
"48 138 OFFCURVE",
"48 69 CURVE SMOOTH"
);
},
{
closed = 1;
nodes = (
"50 637 OFFCURVE",
"97 610 OFFCURVE",
"154 610 CURVE SMOOTH",
"208 610 OFFCURVE",
"254 637 OFFCURVE",
"254 703 CURVE SMOOTH",
"254 772 OFFCURVE",
"208 797 OFFCURVE",
"154 797 CURVE SMOOTH",
"97 797 OFFCURVE",
"50 772 OFFCURVE",
"50 703 CURVE SMOOTH"
);
}
);
};
layerId = "98E204A9-1C79-49C7-AB3E-40A925F56409";
name = "new Layer";
paths = (
{
closed = 1;
nodes = (
"52 320 OFFCURVE",
"99 293 OFFCURVE",
"156 293 CURVE SMOOTH",
"210 293 OFFCURVE",
"256 320 OFFCURVE",
"256 386 CURVE SMOOTH",
"256 455 OFFCURVE",
"210 480 OFFCURVE",
"156 480 CURVE SMOOTH",
"99 480 OFFCURVE",
"52 455 OFFCURVE",
"52 386 CURVE SMOOTH"
);
},
{
closed = 1;
nodes = (
"48 3 OFFCURVE",
"95 -24 OFFCURVE",
"152 -24 CURVE SMOOTH",
"206 -24 OFFCURVE",
"252 3 OFFCURVE",
"252 69 CURVE SMOOTH",
"252 138 OFFCURVE",
"206 163 OFFCURVE",
"152 163 CURVE SMOOTH",
"95 163 OFFCURVE",
"48 138 OFFCURVE",
"48 69 CURVE SMOOTH"
);
},
{
closed = 1;
nodes = (
"50 637 OFFCURVE",
"97 610 OFFCURVE",
"154 610 CURVE SMOOTH",
"208 610 OFFCURVE",
"254 637 OFFCURVE",
"254 703 CURVE SMOOTH",
"254 772 OFFCURVE",
"208 797 OFFCURVE",
"154 797 CURVE SMOOTH",
"97 797 OFFCURVE",
"50 772 OFFCURVE",
"50 703 CURVE SMOOTH"
);
}
);
width = 289;
},
{
associatedMasterId = UUID0;
background = {
paths = (
{
closed = 1;
nodes = (
"72 293 OFFCURVE",
"99 273 OFFCURVE",
"133 273 CURVE SMOOTH",
"167 273 OFFCURVE",
"196 293 OFFCURVE",
"196 341 CURVE SMOOTH",
"196 390 OFFCURVE",
"167 408 OFFCURVE",
"133 408 CURVE SMOOTH",
"99 408 OFFCURVE",
"72 390 OFFCURVE",
"72 341 CURVE SMOOTH"
);
},
{
closed = 1;
nodes = (
"72 6 OFFCURVE",
"99 -14 OFFCURVE",
"133 -14 CURVE SMOOTH",
"167 -14 OFFCURVE",
"196 6 OFFCURVE",
"196 54 CURVE SMOOTH",
"196 103 OFFCURVE",
"167 121 OFFCURVE",
"133 121 CURVE SMOOTH",
"99 121 OFFCURVE",
"72 103 OFFCURVE",
"72 54 CURVE SMOOTH"
);
},
{
closed = 1;
nodes = (
"72 583 OFFCURVE",
"99 563 OFFCURVE",
"133 563 CURVE SMOOTH",
"167 563 OFFCURVE",
"196 583 OFFCURVE",
"196 631 CURVE SMOOTH",
"196 680 OFFCURVE",
"167 698 OFFCURVE",
"133 698 CURVE SMOOTH",
"99 698 OFFCURVE",
"72 680 OFFCURVE",
"72 631 CURVE SMOOTH"
);
}
);
};
layerId = "9FF96064-8718-4A86-A5C8-73C592101F67";
name = "new Layer";
paths = (
{
closed = 1;
nodes = (
"72 293 OFFCURVE",
"99 273 OFFCURVE",
"133 273 CURVE SMOOTH",
"167 273 OFFCURVE",
"196 293 OFFCURVE",
"196 341 CURVE SMOOTH",
"196 390 OFFCURVE",
"167 408 OFFCURVE",
"133 408 CURVE SMOOTH",
"99 408 OFFCURVE",
"72 390 OFFCURVE",
"72 341 CURVE SMOOTH"
);
},
{
closed = 1;
nodes = (
"72 6 OFFCURVE",
"99 -14 OFFCURVE",
"133 -14 CURVE SMOOTH",
"167 -14 OFFCURVE",
"196 6 OFFCURVE",
"196 54 CURVE SMOOTH",
"196 103 OFFCURVE",
"167 121 OFFCURVE",
"133 121 CURVE SMOOTH",
"99 121 OFFCURVE",
"72 103 OFFCURVE",
"72 54 CURVE SMOOTH"
);
},
{
closed = 1;
nodes = (
"72 583 OFFCURVE",
"99 563 OFFCURVE",
"133 563 CURVE SMOOTH",
"167 563 OFFCURVE",
"196 583 OFFCURVE",
"196 631 CURVE SMOOTH",
"196 680 OFFCURVE",
"167 698 OFFCURVE",
"133 698 CURVE SMOOTH",
"99 698 OFFCURVE",
"72 680 OFFCURVE",
"72 631 CURVE SMOOTH"
);
}
);
width = 268;
},
{
associatedMasterId = UUID0;
background = {
paths = (
{
closed = 1;
nodes = (
"57 322 OFFCURVE",
"89 296 OFFCURVE",
"142 296 CURVE SMOOTH",
"194 296 OFFCURVE",
"228 322 OFFCURVE",
"228 374 CURVE SMOOTH",
"228 428 OFFCURVE",
"194 452 OFFCURVE",
"142 452 CURVE SMOOTH",
"89 452 OFFCURVE",
"57 428 OFFCURVE",
"57 374 CURVE SMOOTH"
);
},
{
closed = 1;
nodes = (
"57 1 OFFCURVE",
"95 -23 OFFCURVE",
"143 -23 CURVE SMOOTH",
"189 -23 OFFCURVE",
"228 1 OFFCURVE",
"228 60 CURVE SMOOTH",
"228 121 OFFCURVE",
"189 143 OFFCURVE",
"143 143 CURVE SMOOTH",
"95 143 OFFCURVE",
"57 121 OFFCURVE",
"57 60 CURVE"
);
},
{
closed = 1;
nodes = (
"57 616 OFFCURVE",
"95 592 OFFCURVE",
"143 592 CURVE SMOOTH",
"189 592 OFFCURVE",
"228 616 OFFCURVE",
"228 675 CURVE SMOOTH",
"228 736 OFFCURVE",
"189 758 OFFCURVE",
"143 758 CURVE SMOOTH",
"95 758 OFFCURVE",
"57 736 OFFCURVE",
"57 675 CURVE"
);
}
);
};
layerId = "134B12F2-BF5D-48E3-8003-C7502B438C7E";
name = "new Layer";
paths = (
{
closed = 1;
nodes = (
"57 322 OFFCURVE",
"89 296 OFFCURVE",
"142 296 CURVE SMOOTH",
"194 296 OFFCURVE",
"228 322 OFFCURVE",
"228 374 CURVE SMOOTH",
"228 428 OFFCURVE",
"194 452 OFFCURVE",
"142 452 CURVE SMOOTH",
"89 452 OFFCURVE",
"57 428 OFFCURVE",
"57 374 CURVE SMOOTH"
);
},
{
closed = 1;
nodes = (
"57 1 OFFCURVE",
"95 -23 OFFCURVE",
"143 -23 CURVE SMOOTH",
"189 -23 OFFCURVE",
"228 1 OFFCURVE",
"228 60 CURVE SMOOTH",
"228 121 OFFCURVE",
"189 143 OFFCURVE",
"143 143 CURVE SMOOTH",
"95 143 OFFCURVE",
"57 121 OFFCURVE",
"57 60 CURVE"
);
},
{
closed = 1;
nodes = (
"57 616 OFFCURVE",
"95 592 OFFCURVE",
"143 592 CURVE SMOOTH",
"189 592 OFFCURVE",
"228 616 OFFCURVE",
"228 675 CURVE SMOOTH",
"228 736 OFFCURVE",
"189 758 OFFCURVE",
"143 758 CURVE SMOOTH",
"95 758 OFFCURVE",
"57 736 OFFCURVE",
"57 675 CURVE"
);
}
);
width = 285;
},
{
associatedMasterId = UUID0;
background = {
paths = (
{
closed = 1;
nodes = (
"51 331 OFFCURVE",
"74 312 OFFCURVE",
"109 312 CURVE SMOOTH",
"145 312 OFFCURVE",
"167 331 OFFCURVE",
"167 373 CURVE SMOOTH",
"167 416 OFFCURVE",
"145 435 OFFCURVE",
"109 435 CURVE SMOOTH",
"74 435 OFFCURVE",
"51 416 OFFCURVE",
"51 373 CURVE SMOOTH"
);
},
{
closed = 1;
nodes = (
"49 5 OFFCURVE",
"72 -14 OFFCURVE",
"107 -14 CURVE SMOOTH",
"143 -14 OFFCURVE",
"165 5 OFFCURVE",
"165 48 CURVE SMOOTH",
"165 90 OFFCURVE",
"143 109 OFFCURVE",
"107 109 CURVE SMOOTH",
"72 109 OFFCURVE",
"49 90 OFFCURVE",
"49 48 CURVE SMOOTH"
);
},
{
closed = 1;
nodes = (
"50 642 OFFCURVE",
"73 623 OFFCURVE",
"108 623 CURVE SMOOTH",
"144 623 OFFCURVE",
"166 642 OFFCURVE",
"166 684 CURVE SMOOTH",
"166 727 OFFCURVE",
"144 746 OFFCURVE",
"108 746 CURVE SMOOTH",
"73 746 OFFCURVE",
"50 727 OFFCURVE",
"50 684 CURVE SMOOTH"
);
}
);
};
layerId = "36F3C8CB-53EE-4548-BFDE-2C03212BACAA";
name = "new Layer";
paths = (
{
closed = 1;
nodes = (
"51 331 OFFCURVE",
"74 312 OFFCURVE",
"109 312 CURVE SMOOTH",
"145 312 OFFCURVE",
"167 331 OFFCURVE",
"167 373 CURVE SMOOTH",
"167 416 OFFCURVE",
"145 435 OFFCURVE",
"109 435 CURVE SMOOTH",
"74 435 OFFCURVE",
"51 416 OFFCURVE",
"51 373 CURVE SMOOTH"
);
},
{
closed = 1;
nodes = (
"49 5 OFFCURVE",
"72 -14 OFFCURVE",
"107 -14 CURVE SMOOTH",
"143 -14 OFFCURVE",
"165 5 OFFCURVE",
"165 48 CURVE SMOOTH",
"165 90 OFFCURVE",
"143 109 OFFCURVE",
"107 109 CURVE SMOOTH",
"72 109 OFFCURVE",
"49 90 OFFCURVE",
"49 48 CURVE SMOOTH"
);
},
{
closed = 1;
nodes = (
"50 642 OFFCURVE",
"73 623 OFFCURVE",
"108 623 CURVE SMOOTH",
"144 623 OFFCURVE",
"166 642 OFFCURVE",
"166 684 CURVE SMOOTH",
"166 727 OFFCURVE",
"144 746 OFFCURVE",
"108 746 CURVE SMOOTH",
"73 746 OFFCURVE",
"50 727 OFFCURVE",
"50 684 CURVE SMOOTH"
);
}
);
width = 212;
},
{
associatedMasterId = UUID0;
background = {
paths = (
{
closed = 1;
nodes = (
"51 324 OFFCURVE",
"89 301 OFFCURVE",
"137 301 CURVE SMOOTH",
"184 301 OFFCURVE",
"221 324 OFFCURVE",
"221 381 CURVE SMOOTH",
"221 440 OFFCURVE",
"184 462 OFFCURVE",
"137 462 CURVE SMOOTH",
"89 462 OFFCURVE",
"51 440 OFFCURVE",
"51 381 CURVE SMOOTH"
);
},
{
closed = 1;
nodes = (
"49 4 OFFCURVE",
"87 -20 OFFCURVE",
"135 -20 CURVE SMOOTH",
"182 -20 OFFCURVE",
"219 4 OFFCURVE",
"219 61 CURVE SMOOTH",
"219 119 OFFCURVE",
"182 142 OFFCURVE",
"135 142 CURVE SMOOTH",
"87 142 OFFCURVE",
"49 119 OFFCURVE",
"49 61 CURVE SMOOTH"
);
},
{
closed = 1;
nodes = (
"50 639 OFFCURVE",
"88 615 OFFCURVE",
"136 615 CURVE SMOOTH",
"183 615 OFFCURVE",
"220 639 OFFCURVE",
"220 695 CURVE SMOOTH",
"220 754 OFFCURVE",
"183 777 OFFCURVE",
"136 777 CURVE SMOOTH",
"88 777 OFFCURVE",
"50 754 OFFCURVE",
"50 695 CURVE SMOOTH"
);
}
);
};
layerId = "43B45EC1-5522-4B1A-B0C7-88628E50A583";
name = "new Layer";
paths = (
{
closed = 1;
nodes = (
"51 324 OFFCURVE",
"89 301 OFFCURVE",
"137 301 CURVE SMOOTH",
"184 301 OFFCURVE",
"221 324 OFFCURVE",
"221 381 CURVE SMOOTH",
"221 440 OFFCURVE",
"184 462 OFFCURVE",
"137 462 CURVE SMOOTH",
"89 462 OFFCURVE",
"51 440 OFFCURVE",
"51 381 CURVE SMOOTH"
);
},
{
closed = 1;
nodes = (
"49 4 OFFCURVE",
"87 -20 OFFCURVE",
"135 -20 CURVE SMOOTH",
"182 -20 OFFCURVE",
"219 4 OFFCURVE",
"219 61 CURVE SMOOTH",
"219 119 OFFCURVE",
"182 142 OFFCURVE",
"135 142 CURVE SMOOTH",
"87 142 OFFCURVE",
"49 119 OFFCURVE",
"49 61 CURVE SMOOTH"
);
},
{
closed = 1;
nodes = (
"50 639 OFFCURVE",
"88 615 OFFCURVE",
"136 615 CURVE SMOOTH",
"183 615 OFFCURVE",
"220 639 OFFCURVE",
"220 695 CURVE SMOOTH",
"220 754 OFFCURVE",
"183 777 OFFCURVE",
"136 777 CURVE SMOOTH",
"88 777 OFFCURVE",
"50 754 OFFCURVE",
"50 695 CURVE SMOOTH"
);
}
);
width = 259;
},
{
layerId = UUID0;
paths = (
{
closed = 1;
nodes = (
"79 93 OFFCURVE",
"100 78 OFFCURVE",
"128 78 CURVE SMOOTH",
"160 78 OFFCURVE",
"191 98 OFFCURVE",
"191 149 CURVE SMOOTH",
"191 187 OFFCURVE",
"167 200 OFFCURVE",
"140 200 CURVE SMOOTH",
"98 200 OFFCURVE",
"79 164 OFFCURVE",
"79 128 CURVE SMOOTH"
);
},
{
closed = 1;
nodes = (
"108 308 OFFCURVE",
"129 293 OFFCURVE",
"157 293 CURVE SMOOTH",
"189 293 OFFCURVE",
"220 313 OFFCURVE",
"220 364 CURVE SMOOTH",
"220 402 OFFCURVE",
"196 415 OFFCURVE",
"169 415 CURVE SMOOTH",
"127 415 OFFCURVE",
"108 379 OFFCURVE",
"108 343 CURVE SMOOTH"
);
},
{
closed = 1;
nodes = (
"136 523 OFFCURVE",
"157 508 OFFCURVE",
"185 508 CURVE SMOOTH",
"217 508 OFFCURVE",
"248 528 OFFCURVE",
"248 579 CURVE SMOOTH",
"248 617 OFFCURVE",
"224 630 OFFCURVE",
"197 630 CURVE SMOOTH",
"155 630 OFFCURVE",
"136 594 OFFCURVE",
"136 558 CURVE SMOOTH"
);
}
);
width = 321;
},
{
associatedMasterId = UUID0;
background = {
paths = (
{
closed = 1;
nodes = (
"51 342 OFFCURVE",
"56 327 OFFCURVE",
"76 327 CURVE SMOOTH",
"94 327 OFFCURVE",
"102 340 OFFCURVE",
"102 363 CURVE SMOOTH",
"102 386 OFFCURVE",
"95 398 OFFCURVE",
"76 398 CURVE SMOOTH",
"56 398 OFFCURVE",
"51 382 OFFCURVE",
"51 363 CURVE SMOOTH"
);
},
{
closed = 1;
nodes = (
"51 8 OFFCURVE",
"56 -7 OFFCURVE",
"76 -7 CURVE SMOOTH",
"94 -7 OFFCURVE",
"102 6 OFFCURVE",
"102 29 CURVE SMOOTH",
"102 52 OFFCURVE",
"95 64 OFFCURVE",
"76 64 CURVE SMOOTH",
"56 64 OFFCURVE",
"51 48 OFFCURVE",
"51 29 CURVE SMOOTH"
);
},
{
closed = 1;
nodes = (
"51 658 OFFCURVE",
"56 643 OFFCURVE",
"76 643 CURVE SMOOTH",
"94 643 OFFCURVE",
"102 656 OFFCURVE",
"102 679 CURVE SMOOTH",
"102 702 OFFCURVE",
"95 714 OFFCURVE",
"76 714 CURVE SMOOTH",
"56 714 OFFCURVE",
"51 698 OFFCURVE",
"51 679 CURVE SMOOTH"
);
}
);
};
layerId = "029FEF0C-5FA4-4A3E-AC23-838A1147A554";
name = "new Layer";
paths = (
{
closed = 1;
nodes = (
"51 342 OFFCURVE",
"56 327 OFFCURVE",
"76 327 CURVE SMOOTH",
"94 327 OFFCURVE",
"102 340 OFFCURVE",
"102 363 CURVE SMOOTH",
"102 386 OFFCURVE",
"95 398 OFFCURVE",
"76 398 CURVE SMOOTH",
"56 398 OFFCURVE",
"51 382 OFFCURVE",
"51 363 CURVE SMOOTH"
);
},
{
closed = 1;
nodes = (
"51 8 OFFCURVE",
"56 -7 OFFCURVE",
"76 -7 CURVE SMOOTH",
"94 -7 OFFCURVE",
"102 6 OFFCURVE",
"102 29 CURVE SMOOTH",
"102 52 OFFCURVE",
"95 64 OFFCURVE",
"76 64 CURVE SMOOTH",
"56 64 OFFCURVE",
"51 48 OFFCURVE",
"51 29 CURVE SMOOTH"
);
},
{
closed = 1;
nodes = (
"51 658 OFFCURVE",
"56 643 OFFCURVE",
"76 643 CURVE SMOOTH",
"94 643 OFFCURVE",
"102 656 OFFCURVE",
"102 679 CURVE SMOOTH",
"102 702 OFFCURVE",
"95 714 OFFCURVE",
"76 714 CURVE SMOOTH",
"56 714 OFFCURVE",
"51 698 OFFCURVE",
"51 679 CURVE SMOOTH"
);
}
);
width = 151;
}
);
unicode = 205D;
},
{
glyphname = u10980;
lastChange = "2017-11-08 19:36:06 +0000";
layers = (
{
layerId = UUID0;
paths = (
{
closed = 1;
nodes = (
"275 696 OFFCURVE",
"287 668 OFFCURVE",
"306 648 CURVE",
"269 646 OFFCURVE",
"233 645 OFFCURVE",
"195 645 CURVE",
"178 656 OFFCURVE",
"147 713 OFFCURVE",
"111 810 CURVE SMOOTH",
"105 826 OFFCURVE",
"94 829 OFFCURVE",
"83 829 CURVE SMOOTH",
"67 829 OFFCURVE",
"50 817 OFFCURVE",
"50 803 CURVE SMOOTH",
"50 795 OFFCURVE",
"51 790 OFFCURVE",
"54 779 CURVE SMOOTH",
"72 720 OFFCURVE",
"117 610 OFFCURVE",
"152 589 CURVE",
"157 589 OFFCURVE",
"166 588 OFFCURVE",
"171 588 CURVE SMOOTH",
"205 588 OFFCURVE",
"240 589 OFFCURVE",
"276 591 CURVE",
"293 220 LINE",
"236 236 LINE SMOOTH",
"211 243 OFFCURVE",
"190 246 OFFCURVE",
"179 246 CURVE SMOOTH",
"166 246 OFFCURVE",
"161 239 OFFCURVE",
"156 220 CURVE SMOOTH",
"147 184 OFFCURVE",
"132 152 OFFCURVE",
"117 125 CURVE SMOOTH",
"90 78 OFFCURVE",
"62 44 OFFCURVE",
"62 16 CURVE SMOOTH",
"62 0 OFFCURVE",
"80 -14 OFFCURVE",
"105 -14 CURVE SMOOTH",
"139 -14 OFFCURVE",
"195 -6 OFFCURVE",
"286 -6 CURVE SMOOTH",
"350 -6 OFFCURVE",
"456 -8 OFFCURVE",
"576 -8 CURVE SMOOTH",
"608 -8 OFFCURVE",
"624 9 OFFCURVE",
"624 25 CURVE SMOOTH",
"624 39 OFFCURVE",
"612 50 OFFCURVE",
"589 50 CURVE SMOOTH",
"555 50 OFFCURVE",
"525 51 OFFCURVE",
"497 52 CURVE",
"475 172 LINE",
"453 177 LINE",
"476 265 OFFCURVE",
"504 490 OFFCURVE",
"512 583 CURVE",
"538 579 OFFCURVE",
"561 573 OFFCURVE",
"577 568 CURVE",
"577 519 OFFCURVE",
"568 451 OFFCURVE",
"560 405 CURVE SMOOTH",
"558 394 OFFCURVE",
"557 388 OFFCURVE",
"557 383 CURVE SMOOTH",
"557 369 OFFCURVE",
"570 364 OFFCURVE",
"583 364 CURVE SMOOTH",
"598 364 OFFCURVE",
"614 372 OFFCURVE",
"617 385 CURVE SMOOTH",
"627 450 OFFCURVE",
"640 562 OFFCURVE",
"640 603 CURVE",
"611 625 OFFCURVE",
"533 638 OFFCURVE",
"471 644 CURVE",
"492 665 OFFCURVE",
"505 694 OFFCURVE",
"505 725 CURVE SMOOTH",
"505 788 OFFCURVE",
"453 840 OFFCURVE",
"392 840 CURVE SMOOTH",
"330 840 OFFCURVE",
"275 788 OFFCURVE",
"275 725 CURVE SMOOTH"
);
},
{
closed = 1;
nodes = (
"405 595 OFFCURVE",
"430 593 OFFCURVE",
"455 591 CURVE",
"448 501 OFFCURVE",
"421 282 OFFCURVE",
"399 192 CURVE",
"350 205 LINE",
"336 594 LINE",
"351 595 OFFCURVE",
"367 595 OFFCURVE",
"382 595 CURVE SMOOTH"
);
},
{
closed = 1;
nodes = (
"217 51 OFFCURVE",
"131 45 CURVE",
"164 90 OFFCURVE",
"198 129 OFFCURVE",
"208 188 CURVE",
"422 125 LINE",
"436 52 LINE",
"295 53 OFFCURVE"
);
},
{
closed = 1;
nodes = (
"329 760 OFFCURVE",
"355 786 OFFCURVE",
"389 786 CURVE SMOOTH",
"425 786 OFFCURVE",
"451 760 OFFCURVE",
"451 724 CURVE SMOOTH",
"451 690 OFFCURVE",
"425 664 OFFCURVE",
"389 664 CURVE SMOOTH",
"355 664 OFFCURVE",
"329 690 OFFCURVE",
"329 724 CURVE SMOOTH"
);
}
);
width = 690;
}
);
unicode = 10980;
},
{
glyphname = u10981;
lastChange = "2017-11-08 19:36:06 +0000";
layers = (
{
layerId = UUID0;
paths = (
{
closed = 1;
nodes = (
"423 298 OFFCURVE",
"405 350 OFFCURVE",
"387 388 CURVE SMOOTH",
"346 476 LINE SMOOTH",
"330 511 OFFCURVE",
"312 556 OFFCURVE",
"312 574 CURVE SMOOTH",
"312 592 OFFCURVE",
"325 612 OFFCURVE",
"336 630 CURVE SMOOTH",
"349 651 OFFCURVE",
"362 675 OFFCURVE",
"362 715 CURVE SMOOTH",
"362 769 OFFCURVE",
"323 830 OFFCURVE",
"237 830 CURVE SMOOTH",
"154 830 OFFCURVE",
"100 774 OFFCURVE",
"100 652 CURVE SMOOTH",
"100 12 LINE SMOOTH",
"100 -4 OFFCURVE",
"115 -12 OFFCURVE",
"130 -12 CURVE SMOOTH",
"145 -12 OFFCURVE",
"160 -4 OFFCURVE",
"160 12 CURVE SMOOTH",
"160 75 LINE",
"201 132 OFFCURVE",
"259 159 OFFCURVE",
"310 180 CURVE SMOOTH",
"371 205 OFFCURVE",
"423 220 OFFCURVE",
"423 267 CURVE SMOOTH"
);
},
{
closed = 1;
nodes = (
"160 641 LINE SMOOTH",
"160 735 OFFCURVE",
"186 770 OFFCURVE",
"237 770 CURVE SMOOTH",
"283 770 OFFCURVE",
"302 743 OFFCURVE",
"302 704 CURVE SMOOTH",
"302 678 OFFCURVE",
"291 660 OFFCURVE",
"279 642 CURVE SMOOTH",
"267 623 OFFCURVE",
"255 604 OFFCURVE",
"255 572 CURVE SMOOTH",
"255 545 OFFCURVE",
"265 512 OFFCURVE",
"291 457 CURVE SMOOTH",
"329 376 LINE SMOOTH",
"350 332 OFFCURVE",
"363 299 OFFCURVE",
"363 286 CURVE SMOOTH",
"363 271 OFFCURVE",
"328 255 OFFCURVE",
"299 244 CURVE SMOOTH",
"247 224 OFFCURVE",
"197 195 OFFCURVE",
"160 153 CURVE"
);
}
);
width = 473;
}
);
unicode = 10981;
},
{
glyphname = u10982;
lastChange = "2017-11-08 19:36:06 +0000";
layers = (
{
layerId = UUID0;
paths = (
{
closed = 1;
nodes = (
"598 364 OFFCURVE",
"615 373 OFFCURVE",
"617 385 CURVE SMOOTH",
"627 450 OFFCURVE",
"640 562 OFFCURVE",
"640 603 CURVE",
"610 625 OFFCURVE",
"531 638 OFFCURVE",
"468 644 CURVE",
"489 665 OFFCURVE",
"502 694 OFFCURVE",
"502 725 CURVE SMOOTH",
"502 788 OFFCURVE",
"450 840 OFFCURVE",
"389 840 CURVE SMOOTH",
"327 840 OFFCURVE",
"272 788 OFFCURVE",
"272 725 CURVE SMOOTH",
"272 696 OFFCURVE",
"284 669 OFFCURVE",
"304 648 CURVE",
"267 646 OFFCURVE",
"232 645 OFFCURVE",
"195 645 CURVE",
"178 656 OFFCURVE",
"147 713 OFFCURVE",
"111 810 CURVE SMOOTH",
"105 826 OFFCURVE",
"94 829 OFFCURVE",
"83 829 CURVE SMOOTH",
"67 829 OFFCURVE",
"50 817 OFFCURVE",
"50 799 CURVE SMOOTH",
"50 795 OFFCURVE",
"51 790 OFFCURVE",
"55 778 CURVE SMOOTH",
"77 720 OFFCURVE",
"122 610 OFFCURVE",
"152 589 CURVE",
"157 588 OFFCURVE",
"166 587 OFFCURVE",
"171 587 CURVE SMOOTH",
"204 587 OFFCURVE",
"239 590 OFFCURVE",
"275 591 CURVE",
"275 289 LINE",
"277 285 OFFCURVE",
"281 282 OFFCURVE",
"287 279 CURVE",
"184 58 LINE",
"111 58 LINE SMOOTH",
"96 58 OFFCURVE",
"88 43 OFFCURVE",
"88 28 CURVE SMOOTH",
"88 14 OFFCURVE",
"95 0 OFFCURVE",
"111 0 CURVE SMOOTH",
"195 0 LINE SMOOTH",
"210 0 OFFCURVE",
"228 12 OFFCURVE",
"253 68 CURVE SMOOTH",
"344 269 LINE",
"361 269 LINE SMOOTH",
"371 269 OFFCURVE",
"383 270 OFFCURVE",
"394 271 CURVE",
"453 58 LINE",
"381 58 LINE SMOOTH",
"367 58 OFFCURVE",
"359 42 OFFCURVE",
"359 27 CURVE SMOOTH",
"359 13 OFFCURVE",
"366 0 OFFCURVE",
"381 0 CURVE SMOOTH",
"492 0 LINE SMOOTH",
"506 0 OFFCURVE",
"511 32 OFFCURVE",
"511 49 CURVE SMOOTH",
"511 59 OFFCURVE",
"511 70 OFFCURVE",
"507 83 CURVE SMOOTH",
"450 289 LINE",
"471 337 OFFCURVE",
"493 497 OFFCURVE",
"501 585 CURVE",
"532 580 OFFCURVE",
"559 574 OFFCURVE",
"577 568 CURVE",
"577 519 OFFCURVE",
"569 449 OFFCURVE",
"559 395 CURVE SMOOTH",
"558 392 OFFCURVE",
"557 386 OFFCURVE",
"557 384 CURVE SMOOTH",
"557 370 OFFCURVE",
"570 364 OFFCURVE",
"583 364 CURVE SMOOTH"
);
},
{
closed = 1;
nodes = (
"382 326 OFFCURVE",
"374 324 OFFCURVE",
"359 324 CURVE SMOOTH",
"344 324 OFFCURVE",
"338 326 OFFCURVE",
"335 329 CURVE",
"335 594 LINE",
"351 595 OFFCURVE",
"366 595 OFFCURVE",
"382 595 CURVE SMOOTH",
"402 595 OFFCURVE",
"424 594 OFFCURVE",
"445 592 CURVE",
"438 511 OFFCURVE",
"417 383 OFFCURVE",
"395 328 CURVE"
);
},
{
closed = 1;
nodes = (
"326 760 OFFCURVE",
"352 786 OFFCURVE",
"386 786 CURVE SMOOTH",
"422 786 OFFCURVE",
"448 760 OFFCURVE",
"448 724 CURVE SMOOTH",
"448 690 OFFCURVE",
"422 664 OFFCURVE",
"386 664 CURVE SMOOTH",
"352 664 OFFCURVE",
"326 690 OFFCURVE",
"326 724 CURVE SMOOTH"
);
}
);
width = 690;
}
);
unicode = 10982;
},
{
glyphname = u10983;
lastChange = "2017-11-08 19:36:06 +0000";
layers = (
{
layerId = UUID0;
paths = (
{
closed = 1;
nodes = (
"229 390 OFFCURVE",
"175 341 OFFCURVE",
"112 260 CURVE SMOOTH",
"94 237 OFFCURVE",
"50 191 OFFCURVE",
"50 158 CURVE SMOOTH",
"50 93 OFFCURVE",
"133 -14 OFFCURVE",
"182 -14 CURVE SMOOTH",
"197 -14 OFFCURVE",
"217 -5 OFFCURVE",
"236 3 CURVE SMOOTH",
"251 9 OFFCURVE",
"268 16 OFFCURVE",
"278 16 CURVE SMOOTH",
"295 16 OFFCURVE",
"313 9 OFFCURVE",
"329 5 CURVE SMOOTH",
"346 1 OFFCURVE",
"362 -4 OFFCURVE",
"384 -4 CURVE SMOOTH",
"472 -4 OFFCURVE",
"634 128 OFFCURVE",
"634 235 CURVE SMOOTH",
"634 257 OFFCURVE",
"629 280 OFFCURVE",
"624 302 CURVE SMOOTH",
"620 320 OFFCURVE",
"617 337 OFFCURVE",
"617 354 CURVE SMOOTH",
"617 377 OFFCURVE",
"647 383 OFFCURVE",
"708 400 CURVE SMOOTH",
"752 412 OFFCURVE",
"797 441 OFFCURVE",
"803 468 CURVE",
"797 484 OFFCURVE",
"767 506 OFFCURVE",
"729 526 CURVE",
"774 557 OFFCURVE",
"801 606 OFFCURVE",
"801 680 CURVE SMOOTH",
"801 729 OFFCURVE",
"777 786 OFFCURVE",
"728 836 CURVE SMOOTH",
"721 844 OFFCURVE",
"710 849 OFFCURVE",
"705 849 CURVE SMOOTH",
"691 849 OFFCURVE",
"674 842 OFFCURVE",
"674 826 CURVE SMOOTH",
"674 817 OFFCURVE",
"680 811 OFFCURVE",
"684 806 CURVE SMOOTH",
"717 773 OFFCURVE",
"741 731 OFFCURVE",
"741 680 CURVE SMOOTH",
"741 562 OFFCURVE",
"653 536 OFFCURVE",
"519 536 CURVE SMOOTH",
"380 536 OFFCURVE",
"292 562 OFFCURVE",
"292 680 CURVE SMOOTH",
"292 731 OFFCURVE",
"316 773 OFFCURVE",
"349 806 CURVE SMOOTH",
"353 811 OFFCURVE",
"359 817 OFFCURVE",
"359 826 CURVE SMOOTH",
"359 842 OFFCURVE",
"342 849 OFFCURVE",
"328 849 CURVE SMOOTH",
"323 849 OFFCURVE",
"312 844 OFFCURVE",
"305 836 CURVE SMOOTH",
"256 786 OFFCURVE",
"232 729 OFFCURVE",
"232 680 CURVE SMOOTH",
"232 581 OFFCURVE",
"280 526 OFFCURVE",
"356 500 CURVE",
"338 481 OFFCURVE",
"327 471 OFFCURVE",
"306 454 CURVE SMOOTH"
);
},
{
closed = 1;
nodes = (
"717 449 OFFCURVE",
"694 441 OFFCURVE",
"662 433 CURVE SMOOTH",
"615 421 OFFCURVE",
"559 404 OFFCURVE",
"559 371 CURVE SMOOTH",
"559 350 OFFCURVE",
"564 330 OFFCURVE",
"567 309 CURVE SMOOTH",
"570 290 OFFCURVE",
"573 270 OFFCURVE",
"573 251 CURVE SMOOTH",
"573 147 OFFCURVE",
"450 56 OFFCURVE",
"389 56 CURVE SMOOTH",
"367 56 OFFCURVE",
"354 61 OFFCURVE",
"338 65 CURVE SMOOTH",
"323 69 OFFCURVE",
"307 75 OFFCURVE",
"284 75 CURVE SMOOTH",
"269 75 OFFCURVE",
"253 67 OFFCURVE",
"236 59 CURVE SMOOTH",
"221 52 OFFCURVE",
"205 44 OFFCURVE",
"194 44 CURVE SMOOTH",
"165 44 OFFCURVE",
"110 119 OFFCURVE",
"110 159 CURVE SMOOTH",
"110 176 OFFCURVE",
"145 219 OFFCURVE",
"158 236 CURVE SMOOTH",
"194 281 OFFCURVE",
"253 347 OFFCURVE",
"335 410 CURVE SMOOTH",
"360 429 OFFCURVE",
"391 461 OFFCURVE",
"413 485 CURVE",
"445 480 OFFCURVE",
"479 478 OFFCURVE",
"515 478 CURVE SMOOTH",
"578 478 OFFCURVE",
"632 484 OFFCURVE",
"677 500 CURVE",
"707 488 OFFCURVE",
"731 474 OFFCURVE",
"737 469 CURVE"
);
},
{
closed = 1;
nodes = (
"338 331 OFFCURVE",
"354 315 OFFCURVE",
"375 315 CURVE SMOOTH",
"397 315 OFFCURVE",
"414 331 OFFCURVE",
"414 352 CURVE SMOOTH",
"414 374 OFFCURVE",
"397 391 OFFCURVE",
"375 391 CURVE SMOOTH",
"354 391 OFFCURVE",
"338 374 OFFCURVE",
"338 352 CURVE SMOOTH"
);
}
);
width = 853;
}
);
unicode = 10983;
},
{
glyphname = u10984;
lastChange = "2017-11-08 19:36:06 +0000";
layers = (
{
layerId = UUID0;
paths = (
{
closed = 1;
nodes = (
"240 12 LINE SMOOTH",
"240 -4 OFFCURVE",
"255 -12 OFFCURVE",
"270 -12 CURVE SMOOTH",
"285 -12 OFFCURVE",
"300 -4 OFFCURVE",
"300 12 CURVE SMOOTH",
"300 514 LINE SMOOTH",
"300 690 OFFCURVE",
"290 830 OFFCURVE",
"203 830 CURVE SMOOTH",
"152 830 OFFCURVE",
"131 767 OFFCURVE",
"116 682 CURVE SMOOTH",
"51 306 LINE SMOOTH",
"50 301 OFFCURVE",
"49 294 OFFCURVE",
"49 290 CURVE SMOOTH",
"49 259 OFFCURVE",
"77 242 OFFCURVE",
"111 223 CURVE SMOOTH",
"240 152 LINE"
);
},
{
closed = 1;
nodes = (
"113 317 OFFCURVE",
"114 327 OFFCURVE",
"115 334 CURVE SMOOTH",
"170 661 LINE SMOOTH",
"181 724 OFFCURVE",
"187 760 OFFCURVE",
"203 760 CURVE SMOOTH",
"237 760 OFFCURVE",
"240 678 OFFCURVE",
"240 514 CURVE SMOOTH",
"240 227 LINE",
"135 283 LINE SMOOTH",
"116 293 OFFCURVE",
"113 302 OFFCURVE",
"113 312 CURVE SMOOTH"
);
},
{
closed = 1;
nodes = (
"550 12 LINE SMOOTH",
"550 -4 OFFCURVE",
"565 -12 OFFCURVE",
"580 -12 CURVE SMOOTH",
"595 -12 OFFCURVE",
"610 -4 OFFCURVE",
"610 12 CURVE SMOOTH",
"610 514 LINE SMOOTH",
"610 690 OFFCURVE",
"600 830 OFFCURVE",
"513 830 CURVE SMOOTH",
"462 830 OFFCURVE",
"441 767 OFFCURVE",
"426 682 CURVE SMOOTH",
"361 306 LINE SMOOTH",
"360 301 OFFCURVE",
"359 294 OFFCURVE",
"359 290 CURVE SMOOTH",
"359 259 OFFCURVE",
"387 242 OFFCURVE",
"421 223 CURVE SMOOTH",
"550 152 LINE"
);
},
{
closed = 1;
nodes = (
"423 317 OFFCURVE",
"424 327 OFFCURVE",
"425 334 CURVE SMOOTH",
"480 661 LINE SMOOTH",
"491 724 OFFCURVE",
"497 760 OFFCURVE",
"513 760 CURVE SMOOTH",
"547 760 OFFCURVE",
"550 678 OFFCURVE",
"550 514 CURVE SMOOTH",
"550 227 LINE",
"445 283 LINE SMOOTH",
"426 293 OFFCURVE",
"423 302 OFFCURVE",
"423 312 CURVE SMOOTH"
);
}
);
width = 710;
}
);
unicode = 10984;
},
{
glyphname = u10985;
lastChange = "2017-11-08 19:36:06 +0000";
layers = (
{
layerId = UUID0;
paths = (
{
closed = 1;
nodes = (
"458 12 LINE SMOOTH",
"458 -4 OFFCURVE",
"473 -12 OFFCURVE",
"488 -12 CURVE SMOOTH",
"503 -12 OFFCURVE",
"518 -4 OFFCURVE",
"518 12 CURVE SMOOTH",
"518 504 LINE SMOOTH",
"518 708 OFFCURVE",
"487 830 OFFCURVE",
"339 830 CURVE SMOOTH",
"206 830 OFFCURVE",
"164 747 OFFCURVE",
"156 599 CURVE",
"104 651 LINE SMOOTH",
"97 658 OFFCURVE",
"91 660 OFFCURVE",
"85 660 CURVE SMOOTH",
"70 660 OFFCURVE",
"58 647 OFFCURVE",
"58 633 CURVE SMOOTH",
"58 628 OFFCURVE",
"59 624 OFFCURVE",
"63 620 CURVE SMOOTH",
"97 586 OFFCURVE",
"126 556 OFFCURVE",
"151 529 CURVE",
"72 435 OFFCURVE",
"50 376 OFFCURVE",
"50 315 CURVE SMOOTH",
"50 228 OFFCURVE",
"112 176 OFFCURVE",
"185 176 CURVE SMOOTH",
"258 176 OFFCURVE",
"319 229 OFFCURVE",
"319 313 CURVE SMOOTH",
"319 376 OFFCURVE",
"297 435 OFFCURVE",
"218 529 CURVE",
"242 556 OFFCURVE",
"272 586 OFFCURVE",
"306 620 CURVE SMOOTH",
"310 624 OFFCURVE",
"311 628 OFFCURVE",
"311 633 CURVE SMOOTH",
"311 647 OFFCURVE",
"299 660 OFFCURVE",
"284 660 CURVE SMOOTH",
"278 660 OFFCURVE",
"272 658 OFFCURVE",
"264 650 CURVE SMOOTH",
"247 634 OFFCURVE",
"230 617 OFFCURVE",
"215 600 CURVE",
"219 712 OFFCURVE",
"238 770 OFFCURVE",
"339 770 CURVE SMOOTH",
"442 770 OFFCURVE",
"458 674 OFFCURVE",
"458 494 CURVE SMOOTH"
);
},
{
closed = 1;
nodes = (
"235 429 OFFCURVE",
"259 379 OFFCURVE",
"259 318 CURVE SMOOTH",
"259 265 OFFCURVE",
"234 232 OFFCURVE",
"186 232 CURVE SMOOTH",
"135 232 OFFCURVE",
"110 264 OFFCURVE",
"110 318 CURVE SMOOTH",
"110 379 OFFCURVE",
"133 429 OFFCURVE",
"184 491 CURVE"
);
}
);
width = 618;
}
);
unicode = 10985;
},
{
glyphname = u10986;
lastChange = "2017-11-08 19:36:06 +0000";
layers = (
{
layerId = UUID0;
paths = (
{
closed = 1;
nodes = (
"507 715 LINE",
"490 710 OFFCURVE",
"473 707 OFFCURVE",
"455 707 CURVE SMOOTH",
"430 707 OFFCURVE",
"412 717 OFFCURVE",
"395 727 CURVE SMOOTH",
"376 738 OFFCURVE",
"359 751 OFFCURVE",
"333 751 CURVE SMOOTH",
"313 751 OFFCURVE",
"295 732 OFFCURVE",
"280 701 CURVE",
"265 732 OFFCURVE",
"247 751 OFFCURVE",
"227 751 CURVE SMOOTH",
"201 751 OFFCURVE",
"184 739 OFFCURVE",
"165 727 CURVE SMOOTH",
"149 717 OFFCURVE",
"131 707 OFFCURVE",
"105 707 CURVE SMOOTH",
"87 707 OFFCURVE",
"70 710 OFFCURVE",
"53 715 CURVE",
"50 656 LINE",
"68 651 OFFCURVE",
"90 647 OFFCURVE",
"111 647 CURVE SMOOTH",
"138 647 OFFCURVE",
"155 657 OFFCURVE",
"170 667 CURVE SMOOTH",
"186 678 OFFCURVE",
"200 688 OFFCURVE",
"223 688 CURVE SMOOTH",
"234 688 OFFCURVE",
"243 679 OFFCURVE",
"251 668 CURVE",
"232 654 OFFCURVE",
"205 640 OFFCURVE",
"177 625 CURVE SMOOTH",
"141 605 OFFCURVE",
"104 585 OFFCURVE",
"87 565 CURVE",
"90 520 OFFCURVE",
"116 435 OFFCURVE",
"146 435 CURVE SMOOTH",
"160 435 OFFCURVE",
"183 441 OFFCURVE",
"204 447 CURVE SMOOTH",
"220 452 OFFCURVE",
"235 456 OFFCURVE",
"240 457 CURVE",
"256 305 LINE SMOOTH",
"262 249 OFFCURVE",
"277 226 OFFCURVE",
"316 215 CURVE",
"236 58 LINE",
"188 58 LINE SMOOTH",
"167 58 OFFCURVE",
"159 47 OFFCURVE",
"159 27 CURVE SMOOTH",
"159 18 OFFCURVE",
"171 0 OFFCURVE",
"188 0 CURVE SMOOTH",
"260 0 LINE SMOOTH",
"275 0 OFFCURVE",
"284 36 OFFCURVE",
"294 55 CURVE SMOOTH",
"371 207 LINE",
"375 206 OFFCURVE",
"379 206 OFFCURVE",
"383 206 CURVE",
"402 164 OFFCURVE",
"422 123 OFFCURVE",
"422 89 CURVE SMOOTH",
"422 71 OFFCURVE",
"418 61 OFFCURVE",
"406 59 CURVE SMOOTH",
"375 55 LINE SMOOTH",
"357 53 OFFCURVE",
"348 38 OFFCURVE",
"348 24 CURVE SMOOTH",
"348 9 OFFCURVE",
"355 0 OFFCURVE",
"369 0 CURVE SMOOTH",
"398 0 OFFCURVE",
"416 1 OFFCURVE",
"434 4 CURVE SMOOTH",
"459 8 OFFCURVE",
"483 45 OFFCURVE",
"483 75 CURVE SMOOTH",
"483 118 OFFCURVE",
"464 162 OFFCURVE",
"446 202 CURVE",
"498 199 OFFCURVE",
"551 198 OFFCURVE",
"602 198 CURVE SMOOTH",
"677 198 OFFCURVE",
"755 200 OFFCURVE",
"815 204 CURVE",
"736 58 LINE",
"691 58 LINE SMOOTH",
"676 58 OFFCURVE",
"667 42 OFFCURVE",
"667 27 CURVE SMOOTH",
"667 13 OFFCURVE",
"674 0 OFFCURVE",
"691 0 CURVE SMOOTH",
"759 0 LINE SMOOTH",
"774 0 OFFCURVE",
"782 20 OFFCURVE",
"800 55 CURVE SMOOTH",
"869 191 LINE",
"886 168 OFFCURVE",
"904 150 OFFCURVE",
"920 138 CURVE SMOOTH",
"953 114 OFFCURVE",
"982 104 OFFCURVE",
"982 91 CURVE SMOOTH",
"982 80 OFFCURVE",
"976 62 OFFCURVE",
"964 61 CURVE SMOOTH",
"923 57 LINE SMOOTH",
"911 56 OFFCURVE",
"905 45 OFFCURVE",
"905 33 CURVE SMOOTH",
"905 17 OFFCURVE",
"916 2 OFFCURVE",
"938 2 CURVE SMOOTH",
"956 2 OFFCURVE",
"974 3 OFFCURVE",
"992 6 CURVE SMOOTH",
"1017 10 OFFCURVE",
"1043 51 OFFCURVE",
"1043 85 CURVE SMOOTH",
"1043 117 OFFCURVE",
"1011 131 OFFCURVE",
"973 160 CURVE SMOOTH",
"954 174 OFFCURVE",
"935 191 OFFCURVE",
"917 216 CURVE",
"963 240 OFFCURVE",
"994 313 OFFCURVE",
"1028 435 CURVE",
"1037 418 OFFCURVE",
"1040 398 OFFCURVE",
"1040 376 CURVE SMOOTH",
"1040 348 OFFCURVE",
"1035 317 OFFCURVE",
"1035 286 CURVE SMOOTH",
"1035 271 OFFCURVE",
"1042 229 OFFCURVE",
"1057 229 CURVE SMOOTH",
"1087 229 OFFCURVE",
"1097 269 OFFCURVE",
"1097 308 CURVE SMOOTH",
"1097 339 OFFCURVE",
"1090 374 OFFCURVE",
"1075 392 CURVE",
"1073 425 OFFCURVE",
"1065 453 OFFCURVE",
"1033 480 CURVE",
"1028 516 OFFCURVE",
"995 551 OFFCURVE",
"957 551 CURVE SMOOTH",
"868 551 OFFCURVE",
"775 546 OFFCURVE",
"694 546 CURVE SMOOTH",
"568 546 OFFCURVE",
"468 567 OFFCURVE",
"377 637 CURVE SMOOTH",
"358 651 OFFCURVE",
"340 668 OFFCURVE",
"319 681 CURVE",
"324 685 OFFCURVE",
"330 688 OFFCURVE",
"337 688 CURVE SMOOTH",
"356 688 OFFCURVE",
"370 681 OFFCURVE",
"383 672 CURVE SMOOTH",
"400 661 OFFCURVE",
"417 647 OFFCURVE",
"449 647 CURVE SMOOTH",
"470 647 OFFCURVE",
"492 651 OFFCURVE",
"510 656 CURVE"
);
},
{
closed = 1;
nodes = (
"811 335 LINE",
"816 308 OFFCURVE",
"823 285 OFFCURVE",
"830 264 CURVE",
"765 260 OFFCURVE",
"680 256 OFFCURVE",
"586 256 CURVE SMOOTH",
"536 256 OFFCURVE",
"472 258 OFFCURVE",
"419 262 CURVE",
"413 280 OFFCURVE",
"409 298 OFFCURVE",
"409 316 CURVE SMOOTH",
"409 343 OFFCURVE",
"413 369 OFFCURVE",
"459 408 CURVE",
"423 436 LINE",
"387 408 OFFCURVE",
"349 367 OFFCURVE",
"349 318 CURVE SMOOTH",
"349 302 OFFCURVE",
"352 285 OFFCURVE",
"358 268 CURVE",
"328 274 OFFCURVE",
"320 280 OFFCURVE",
"315 329 CURVE SMOOTH",
"298 494 LINE",
"283 523 LINE",
"272 523 OFFCURVE",
"249 516 OFFCURVE",
"228 508 CURVE SMOOTH",
"204 499 OFFCURVE",
"180 491 OFFCURVE",
"170 491 CURVE SMOOTH",
"162 491 OFFCURVE",
"147 525 OFFCURVE",
"144 550 CURVE",
"167 567 OFFCURVE",
"193 580 OFFCURVE",
"217 593 CURVE SMOOTH",
"243 607 OFFCURVE",
"268 619 OFFCURVE",
"289 635 CURVE",
"317 631 OFFCURVE",
"339 590 OFFCURVE",
"358 577 CURVE SMOOTH",
"462 508 OFFCURVE",
"565 488 OFFCURVE",
"680 488 CURVE SMOOTH",
"756 488 OFFCURVE",
"859 490 OFFCURVE",
"931 490 CURVE SMOOTH",
"960 490 OFFCURVE",
"972 484 OFFCURVE",
"972 460 CURVE SMOOTH",
"972 430 OFFCURVE",
"928 287 OFFCURVE",
"889 269 CURVE",
"880 290 OFFCURVE",
"873 316 OFFCURVE",
"868 346 CURVE"
);
}
);
width = 1147;
}
);
unicode = 10986;
},
{
glyphname = u10987;
lastChange = "2017-11-08 19:36:06 +0000";
layers = (
{
layerId = UUID0;
paths = (
{
closed = 1;
nodes = (
"578 279 LINE SMOOTH",
"593 286 OFFCURVE",
"599 298 OFFCURVE",
"599 308 CURVE SMOOTH",
"599 322 OFFCURVE",
"589 334 OFFCURVE",
"576 335 CURVE SMOOTH",
"572 335 OFFCURVE",
"566 333 OFFCURVE",
"559 330 CURVE SMOOTH",
"528 314 LINE",
"528 809 LINE SMOOTH",
"528 823 OFFCURVE",
"513 830 OFFCURVE",
"498 830 CURVE SMOOTH",
"483 830 OFFCURVE",
"468 823 OFFCURVE",
"468 809 CURVE SMOOTH",
"468 285 LINE",
"91 99 LINE SMOOTH",
"53 80 OFFCURVE",
"50 55 OFFCURVE",
"50 46 CURVE SMOOTH",
"50 31 OFFCURVE",
"60 0 OFFCURVE",
"89 0 CURVE SMOOTH",
"462 0 LINE SMOOTH",
"508 0 OFFCURVE",
"528 46 OFFCURVE",
"528 88 CURVE SMOOTH",
"528 254 LINE"
);
},
{
closed = 1;
nodes = (
"468 103 LINE SMOOTH",
"468 63 OFFCURVE",
"460 58 OFFCURVE",
"435 58 CURVE SMOOTH",
"157 58 LINE SMOOTH",
"140 58 OFFCURVE",
"134 58 OFFCURVE",
"134 60 CURVE SMOOTH",
"134 62 OFFCURVE",
"146 66 OFFCURVE",
"155 71 CURVE SMOOTH",
"468 225 LINE"
);
}
);
width = 649;
}
);
unicode = 10987;
},
{
glyphname = u10988;
lastChange = "2017-11-08 19:36:06 +0000";
layers = (
{
layerId = UUID0;
paths = (
{
closed = 1;
nodes = (
"695 0 LINE SMOOTH",
"849 0 OFFCURVE",
"926 115 OFFCURVE",
"926 236 CURVE SMOOTH",
"926 254 LINE SMOOTH",
"926 375 OFFCURVE",
"849 490 OFFCURVE",
"695 490 CURVE SMOOTH",
"281 490 LINE SMOOTH",
"127 490 OFFCURVE",
"50 375 OFFCURVE",
"50 254 CURVE SMOOTH",
"50 236 LINE SMOOTH",
"50 115 OFFCURVE",
"127 0 OFFCURVE",
"281 0 CURVE SMOOTH"
);
},
{
closed = 1;
nodes = (
"672 432 LINE SMOOTH",
"801 432 OFFCURVE",
"856 369 OFFCURVE",
"860 272 CURVE",
"611 272 LINE",
"611 432 LINE"
);
},
{
closed = 1;
nodes = (
"365 432 LINE",
"365 272 LINE",
"115 272 LINE",
"120 369 OFFCURVE",
"175 432 OFFCURVE",
"304 432 CURVE"
);
},
{
closed = 1;
nodes = (
"611 58 LINE",
"611 214 LINE",
"860 214 LINE",
"854 119 OFFCURVE",
"799 58 OFFCURVE",
"672 58 CURVE"
);
},
{
closed = 1;
nodes = (
"365 214 LINE",
"365 58 LINE",
"304 58 LINE SMOOTH",
"177 58 OFFCURVE",
"121 119 OFFCURVE",
"115 214 CURVE"
);
},
{
closed = 1;
nodes = (
"425 432 LINE",
"551 432 LINE",
"551 272 LINE",
"425 272 LINE"
);
},
{
closed = 1;
nodes = (
"425 214 LINE",
"551 214 LINE",
"551 58 LINE",
"425 58 LINE"
);
}
);
width = 976;
}
);
unicode = 10988;
},
{
glyphname = u10989;
lastChange = "2017-11-08 19:36:06 +0000";
layers = (
{
layerId = UUID0;
paths = (
{
closed = 1;
nodes = (
"187 194 OFFCURVE",
"183 158 OFFCURVE",
"183 143 CURVE SMOOTH",
"183 129 OFFCURVE",
"192 116 OFFCURVE",
"206 104 CURVE",
"184 58 LINE",
"111 58 LINE SMOOTH",
"96 58 OFFCURVE",
"88 43 OFFCURVE",
"88 28 CURVE SMOOTH",
"88 14 OFFCURVE",
"95 0 OFFCURVE",
"111 0 CURVE SMOOTH",
"195 0 LINE SMOOTH",
"210 0 OFFCURVE",
"228 12 OFFCURVE",
"253 68 CURVE SMOOTH",
"258 79 LINE",
"264 77 OFFCURVE",
"271 77 OFFCURVE",
"277 77 CURVE SMOOTH",
"286 77 OFFCURVE",
"310 98 OFFCURVE",
"326 118 CURVE",
"339 96 OFFCURVE",
"346 80 OFFCURVE",
"384 74 CURVE",
"384 58 LINE",
"314 58 LINE SMOOTH",
"296 58 OFFCURVE",
"287 43 OFFCURVE",
"287 28 CURVE SMOOTH",
"287 14 OFFCURVE",
"295 0 OFFCURVE",
"309 0 CURVE SMOOTH",
"416 0 LINE SMOOTH",
"430 0 OFFCURVE",
"440 12 OFFCURVE",
"440 29 CURVE SMOOTH",
"440 72 LINE",
"457 76 OFFCURVE",
"463 89 OFFCURVE",
"469 100 CURVE SMOOTH",
"474 110 OFFCURVE",
"480 119 OFFCURVE",
"493 119 CURVE SMOOTH",
"517 119 OFFCURVE",
"524 103 OFFCURVE",
"549 35 CURVE SMOOTH",
"585 -62 OFFCURVE",
"622 -84 OFFCURVE",
"700 -84 CURVE SMOOTH",
"842 -84 OFFCURVE",
"865 -66 OFFCURVE",
"865 -25 CURVE SMOOTH",
"865 26 OFFCURVE",
"799 97 OFFCURVE",
"774 136 CURVE SMOOTH",
"685 273 OFFCURVE",
"634 388 OFFCURVE",
"529 483 CURVE SMOOTH",
"513 498 OFFCURVE",
"470 519 OFFCURVE",
"434 541 CURVE SMOOTH",
"399 563 OFFCURVE",
"369 586 OFFCURVE",
"369 607 CURVE SMOOTH",
"369 624 OFFCURVE",
"373 652 OFFCURVE",
"377 679 CURVE SMOOTH",
"380 702 OFFCURVE",
"383 724 OFFCURVE",
"383 739 CURVE SMOOTH",
"383 797 OFFCURVE",
"336 815 OFFCURVE",
"311 815 CURVE SMOOTH",
"125 815 LINE SMOOTH",
"61 815 OFFCURVE",
"50 791 OFFCURVE",
"50 737 CURVE SMOOTH",
"50 710 OFFCURVE",
"53 684 OFFCURVE",
"55 657 CURVE SMOOTH",
"57 631 OFFCURVE",
"60 605 OFFCURVE",
"60 579 CURVE SMOOTH",
"60 468 OFFCURVE",
"82 331 OFFCURVE",
"151 249 CURVE SMOOTH",
"162 235 OFFCURVE",
"175 225 OFFCURVE",
"188 216 CURVE"
);
},
{
closed = 1;
nodes = (
"785 -23 OFFCURVE",
"749 -26 OFFCURVE",
"708 -26 CURVE SMOOTH",
"653 -26 OFFCURVE",
"626 -18 OFFCURVE",
"597 57 CURVE SMOOTH",
"571 125 OFFCURVE",
"563 175 OFFCURVE",
"495 175 CURVE SMOOTH",
"466 175 OFFCURVE",
"452 147 OFFCURVE",
"439 128 CURVE",
"423 128 OFFCURVE",
"389 128 OFFCURVE",
"373 133 CURVE",
"349 167 OFFCURVE",
"346 181 OFFCURVE",
"316 205 CURVE SMOOTH",
"291 225 OFFCURVE",
"270 230 OFFCURVE",
"249 239 CURVE SMOOTH",
"226 249 OFFCURVE",
"203 262 OFFCURVE",
"176 308 CURVE SMOOTH",
"128 388 OFFCURVE",
"119 490 OFFCURVE",
"119 582 CURVE",
"119 599 OFFCURVE",
"116 632 OFFCURVE",
"113 665 CURVE SMOOTH",
"111 687 OFFCURVE",
"109 709 OFFCURVE",
"109 726 CURVE SMOOTH",
"109 746 OFFCURVE",
"122 757 OFFCURVE",
"147 757 CURVE SMOOTH",
"278 757 LINE SMOOTH",
"311 757 OFFCURVE",
"324 752 OFFCURVE",
"324 711 CURVE SMOOTH",
"324 697 OFFCURVE",
"321 677 OFFCURVE",
"318 656 CURVE SMOOTH",
"315 633 OFFCURVE",
"311 608 OFFCURVE",
"311 591 CURVE SMOOTH",
"311 553 OFFCURVE",
"350 529 OFFCURVE",
"396 503 CURVE SMOOTH",
"428 485 OFFCURVE",
"465 466 OFFCURVE",
"494 440 CURVE SMOOTH",
"584 362 OFFCURVE",
"644 237 OFFCURVE",
"718 121 CURVE SMOOTH",
"766 46 OFFCURVE",
"800 -11 OFFCURVE",
"802 -22 CURVE"
);
},
{
closed = 1;
nodes = (
"628 214 LINE",
"482 246 OFFCURVE",
"352 373 OFFCURVE",
"287 526 CURVE",
"244 501 LINE",
"302 355 OFFCURVE",
"428 206 OFFCURVE",
"627 167 CURVE"
);
},
{
closed = 1;
nodes = (
"231 679 OFFCURVE",
"233 672 OFFCURVE",
"237 667 CURVE",
"197 667 LINE",
"201 672 OFFCURVE",
"204 679 OFFCURVE",
"204 687 CURVE SMOOTH",
"204 709 OFFCURVE",
"187 725 OFFCURVE",
"166 725 CURVE SMOOTH",
"146 725 OFFCURVE",
"131 709 OFFCURVE",
"131 687 CURVE SMOOTH",
"131 667 OFFCURVE",
"146 652 OFFCURVE",
"166 652 CURVE SMOOTH",
"173 652 OFFCURVE",
"179 653 OFFCURVE",
"185 656 CURVE",
"219 568 LINE",
"225 567 LINE",
"253 654 LINE",
"257 652 OFFCURVE",
"261 652 OFFCURVE",
"266 652 CURVE SMOOTH",
"287 652 OFFCURVE",
"304 667 OFFCURVE",
"304 687 CURVE SMOOTH",
"304 709 OFFCURVE",
"287 725 OFFCURVE",
"266 725 CURVE SMOOTH",
"246 725 OFFCURVE",
"231 709 OFFCURVE",
"231 687 CURVE SMOOTH"
);
},
{
closed = 1;
nodes = (
"243 138 OFFCURVE",
"231 152 OFFCURVE",
"231 169 CURVE SMOOTH",
"231 172 OFFCURVE",
"232 181 OFFCURVE",
"233 190 CURVE",
"256 179 OFFCURVE",
"279 169 OFFCURVE",
"296 155 CURVE",
"290 145 OFFCURVE",
"282 136 OFFCURVE",
"275 132 CURVE"
);
}
);
width = 915;
}
);
unicode = 10989;
},
{
glyphname = u1098A;
lastChange = "2017-11-08 19:36:06 +0000";
layers = (
{
layerId = UUID0;
paths = (
{
closed = 1;
nodes = (
"344 353 LINE",
"244 457 LINE SMOOTH",
"235 466 OFFCURVE",
"227 473 OFFCURVE",
"217 473 CURVE SMOOTH",
"209 473 OFFCURVE",
"201 469 OFFCURVE",
"190 457 CURVE SMOOTH",
"66 323 LINE SMOOTH",
"54 310 OFFCURVE",
"50 299 OFFCURVE",
"50 290 CURVE SMOOTH",
"50 276 OFFCURVE",
"67 267 OFFCURVE",
"79 267 CURVE SMOOTH",
"86 267 OFFCURVE",
"93 270 OFFCURVE",
"99 277 CURVE SMOOTH",
"218 408 LINE",
"310 308 LINE SMOOTH",
"323 294 OFFCURVE",
"332 285 OFFCURVE",
"343 285 CURVE SMOOTH",
"352 285 OFFCURVE",
"363 292 OFFCURVE",
"378 308 CURVE SMOOTH",
"468 408 LINE",
"560 308 LINE SMOOTH",
"573 294 OFFCURVE",
"582 285 OFFCURVE",
"593 285 CURVE SMOOTH",
"602 285 OFFCURVE",
"613 292 OFFCURVE",
"628 308 CURVE SMOOTH",
"718 408 LINE",
"837 277 LINE SMOOTH",
"843 270 OFFCURVE",
"850 267 OFFCURVE",
"857 267 CURVE SMOOTH",
"869 267 OFFCURVE",
"885 276 OFFCURVE",
"885 290 CURVE SMOOTH",
"885 299 OFFCURVE",
"881 310 OFFCURVE",
"869 323 CURVE SMOOTH",
"746 457 LINE SMOOTH",
"735 469 OFFCURVE",
"727 473 OFFCURVE",
"719 473 CURVE SMOOTH",
"709 473 OFFCURVE",
"701 466 OFFCURVE",
"692 457 CURVE SMOOTH",
"594 353 LINE",
"494 457 LINE SMOOTH",
"485 466 OFFCURVE",
"477 473 OFFCURVE",
"467 473 CURVE SMOOTH",
"459 473 OFFCURVE",
"451 469 OFFCURVE",
"440 457 CURVE SMOOTH"
);
},
{
closed = 1;
nodes = (
"344 63 LINE",
"244 167 LINE SMOOTH",
"235 176 OFFCURVE",
"227 183 OFFCURVE",
"217 183 CURVE SMOOTH",
"209 183 OFFCURVE",
"201 179 OFFCURVE",
"190 167 CURVE SMOOTH",
"66 33 LINE SMOOTH",
"54 20 OFFCURVE",
"50 9 OFFCURVE",
"50 0 CURVE SMOOTH",
"50 -14 OFFCURVE",
"67 -23 OFFCURVE",
"79 -23 CURVE SMOOTH",
"86 -23 OFFCURVE",
"93 -20 OFFCURVE",
"99 -13 CURVE SMOOTH",
"218 118 LINE",
"310 18 LINE SMOOTH",
"323 4 OFFCURVE",
"332 -5 OFFCURVE",
"343 -5 CURVE SMOOTH",
"352 -5 OFFCURVE",
"363 2 OFFCURVE",
"378 18 CURVE SMOOTH",
"468 118 LINE",
"560 18 LINE SMOOTH",
"573 4 OFFCURVE",
"582 -5 OFFCURVE",
"593 -5 CURVE SMOOTH",
"602 -5 OFFCURVE",
"613 2 OFFCURVE",
"628 18 CURVE SMOOTH",
"718 118 LINE",
"837 -13 LINE SMOOTH",
"843 -20 OFFCURVE",
"850 -23 OFFCURVE",
"857 -23 CURVE SMOOTH",
"869 -23 OFFCURVE",
"885 -14 OFFCURVE",
"885 0 CURVE SMOOTH",
"885 9 OFFCURVE",
"881 20 OFFCURVE",
"869 33 CURVE SMOOTH",
"746 167 LINE SMOOTH",
"735 179 OFFCURVE",
"727 183 OFFCURVE",
"719 183 CURVE SMOOTH",
"709 183 OFFCURVE",
"701 176 OFFCURVE",
"692 167 CURVE SMOOTH",
"594 63 LINE",
"494 167 LINE SMOOTH",
"485 176 OFFCURVE",
"477 183 OFFCURVE",
"467 183 CURVE SMOOTH",
"459 183 OFFCURVE",
"451 179 OFFCURVE",
"440 167 CURVE SMOOTH"
);
}
);
width = 935;
}
);
unicode = 1098A;
},
{
glyphname = u1098B;
lastChange = "2017-11-08 19:36:06 +0000";
layers = (
{
layerId = UUID0;
paths = (
{
closed = 1;
nodes = (
"810 156 LINE",
"823 142 OFFCURVE",
"832 133 OFFCURVE",
"843 133 CURVE SMOOTH",
"852 133 OFFCURVE",
"863 140 OFFCURVE",
"878 156 CURVE SMOOTH",
"968 256 LINE",
"1087 125 LINE SMOOTH",
"1093 118 OFFCURVE",
"1100 115 OFFCURVE",
"1107 115 CURVE SMOOTH",
"1119 115 OFFCURVE",
"1135 124 OFFCURVE",
"1135 138 CURVE SMOOTH",
"1135 147 OFFCURVE",
"1131 158 OFFCURVE",
"1119 171 CURVE SMOOTH",
"996 305 LINE SMOOTH",
"985 317 OFFCURVE",
"977 321 OFFCURVE",
"969 321 CURVE SMOOTH",
"959 321 OFFCURVE",
"951 314 OFFCURVE",
"942 305 CURVE SMOOTH",
"844 201 LINE",
"746 305 LINE SMOOTH",
"735 317 OFFCURVE",
"727 321 OFFCURVE",
"719 321 CURVE SMOOTH",
"709 321 OFFCURVE",
"701 314 OFFCURVE",
"692 305 CURVE SMOOTH",
"594 201 LINE",
"494 305 LINE SMOOTH",
"485 314 OFFCURVE",
"477 321 OFFCURVE",
"467 321 CURVE SMOOTH",
"459 321 OFFCURVE",
"451 317 OFFCURVE",
"440 305 CURVE SMOOTH",
"344 201 LINE",
"244 305 LINE SMOOTH",
"235 314 OFFCURVE",
"227 321 OFFCURVE",
"217 321 CURVE SMOOTH",
"209 321 OFFCURVE",
"201 317 OFFCURVE",
"190 305 CURVE SMOOTH",
"66 171 LINE SMOOTH",
"54 158 OFFCURVE",
"50 147 OFFCURVE",
"50 138 CURVE SMOOTH",
"50 124 OFFCURVE",
"67 115 OFFCURVE",
"79 115 CURVE SMOOTH",
"86 115 OFFCURVE",
"93 118 OFFCURVE",
"99 125 CURVE SMOOTH",
"218 256 LINE",
"310 156 LINE SMOOTH",
"323 142 OFFCURVE",
"332 133 OFFCURVE",
"343 133 CURVE SMOOTH",
"352 133 OFFCURVE",
"363 140 OFFCURVE",
"378 156 CURVE SMOOTH",
"468 256 LINE",
"560 156 LINE SMOOTH",
"573 142 OFFCURVE",
"582 133 OFFCURVE",
"593 133 CURVE SMOOTH",
"602 133 OFFCURVE",
"613 140 OFFCURVE",
"628 156 CURVE SMOOTH",
"718 256 LINE"
);
}
);
width = 1185;
}
);
unicode = 1098B;
},
{
glyphname = u1098C;
lastChange = "2017-11-08 19:36:06 +0000";
layers = (
{
layerId = UUID0;
paths = (
{
closed = 1;
nodes = (
"295 642 LINE SMOOTH",
"295 754 OFFCURVE",
"273 830 OFFCURVE",
"176 830 CURVE SMOOTH",
"101 830 OFFCURVE",
"69 789 OFFCURVE",
"55 758 CURVE SMOOTH",
"52 752 OFFCURVE",
"49 745 OFFCURVE",
"49 739 CURVE SMOOTH",
"49 730 OFFCURVE",
"70 712 OFFCURVE",
"86 712 CURVE SMOOTH",
"95 712 OFFCURVE",
"100 718 OFFCURVE",
"105 728 CURVE SMOOTH",
"115 748 OFFCURVE",
"128 770 OFFCURVE",
"166 770 CURVE SMOOTH",
"225 770 OFFCURVE",
"235 715 OFFCURVE",
"235 639 CURVE SMOOTH",
"235 407 LINE",
"219 415 OFFCURVE",
"202 419 OFFCURVE",
"183 419 CURVE SMOOTH",
"161 419 OFFCURVE",
"144 413 OFFCURVE",
"124 398 CURVE SMOOTH",
"110 387 OFFCURVE",
"105 375 OFFCURVE",
"105 366 CURVE SMOOTH",
"105 353 OFFCURVE",
"115 344 OFFCURVE",
"127 344 CURVE SMOOTH",
"130 344 OFFCURVE",
"133 345 OFFCURVE",
"136 346 CURVE SMOOTH",
"154 355 OFFCURVE",
"168 363 OFFCURVE",
"184 363 CURVE SMOOTH",
"202 363 OFFCURVE",
"219 358 OFFCURVE",
"235 349 CURVE",
"235 293 LINE",
"220 299 OFFCURVE",
"204 303 OFFCURVE",
"188 303 CURVE SMOOTH",
"157 303 OFFCURVE",
"136 295 OFFCURVE",
"115 283 CURVE SMOOTH",
"102 276 OFFCURVE",
"96 263 OFFCURVE",
"96 251 CURVE SMOOTH",
"96 239 OFFCURVE",
"102 227 OFFCURVE",
"113 227 CURVE SMOOTH",
"119 227 OFFCURVE",
"122 229 OFFCURVE",
"128 233 CURVE SMOOTH",
"143 243 OFFCURVE",
"163 249 OFFCURVE",
"185 249 CURVE SMOOTH",
"202 249 OFFCURVE",
"219 244 OFFCURVE",
"235 236 CURVE",
"235 12 LINE SMOOTH",
"235 -4 OFFCURVE",
"250 -12 OFFCURVE",
"265 -12 CURVE SMOOTH",
"280 -12 OFFCURVE",
"295 -4 OFFCURVE",
"295 12 CURVE SMOOTH",
"295 231 LINE",
"312 242 OFFCURVE",
"332 249 OFFCURVE",
"353 249 CURVE SMOOTH",
"375 249 OFFCURVE",
"395 243 OFFCURVE",
"407 235 CURVE SMOOTH",
"416 229 OFFCURVE",
"419 227 OFFCURVE",
"425 227 CURVE SMOOTH",
"436 227 OFFCURVE",
"442 239 OFFCURVE",
"442 251 CURVE SMOOTH",
"442 263 OFFCURVE",
"436 276 OFFCURVE",
"423 283 CURVE SMOOTH",
"402 295 OFFCURVE",
"381 303 OFFCURVE",
"350 303 CURVE SMOOTH",
"330 303 OFFCURVE",
"312 298 OFFCURVE",
"295 290 CURVE",
"295 343 LINE",
"312 356 OFFCURVE",
"333 363 OFFCURVE",
"354 363 CURVE SMOOTH",
"370 363 OFFCURVE",
"384 355 OFFCURVE",
"402 346 CURVE SMOOTH",
"405 345 OFFCURVE",
"408 344 OFFCURVE",
"411 344 CURVE SMOOTH",
"423 344 OFFCURVE",
"433 353 OFFCURVE",
"433 366 CURVE SMOOTH",
"433 375 OFFCURVE",
"428 387 OFFCURVE",
"414 398 CURVE SMOOTH",
"394 413 OFFCURVE",
"377 419 OFFCURVE",
"355 419 CURVE SMOOTH",
"332 419 OFFCURVE",
"312 413 OFFCURVE",
"295 403 CURVE"
);
},
{
closed = 1;
nodes = (
"685 642 LINE SMOOTH",
"685 754 OFFCURVE",
"663 830 OFFCURVE",
"566 830 CURVE SMOOTH",
"491 830 OFFCURVE",
"460 788 OFFCURVE",
"445 758 CURVE SMOOTH",
"442 752 OFFCURVE",
"439 745 OFFCURVE",
"439 739 CURVE SMOOTH",
"439 730 OFFCURVE",
"460 712 OFFCURVE",
"476 712 CURVE SMOOTH",
"485 712 OFFCURVE",
"490 718 OFFCURVE",
"495 728 CURVE SMOOTH",
"505 748 OFFCURVE",
"518 770 OFFCURVE",
"556 770 CURVE SMOOTH",
"615 770 OFFCURVE",
"625 715 OFFCURVE",
"625 639 CURVE SMOOTH",
"625 407 LINE",
"609 415 OFFCURVE",
"592 419 OFFCURVE",
"573 419 CURVE SMOOTH",
"551 419 OFFCURVE",
"534 413 OFFCURVE",
"514 398 CURVE SMOOTH",
"500 387 OFFCURVE",
"495 375 OFFCURVE",
"495 366 CURVE SMOOTH",
"495 353 OFFCURVE",
"505 344 OFFCURVE",
"517 344 CURVE SMOOTH",
"520 344 OFFCURVE",
"523 345 OFFCURVE",
"526 346 CURVE SMOOTH",
"545 352 OFFCURVE",
"558 363 OFFCURVE",
"574 363 CURVE SMOOTH",
"592 363 OFFCURVE",
"609 358 OFFCURVE",
"625 349 CURVE",
"625 293 LINE",
"610 299 OFFCURVE",
"594 303 OFFCURVE",
"578 303 CURVE SMOOTH",
"547 303 OFFCURVE",
"526 294 OFFCURVE",
"505 283 CURVE SMOOTH",
"492 276 OFFCURVE",
"486 263 OFFCURVE",
"486 251 CURVE SMOOTH",
"486 239 OFFCURVE",
"492 227 OFFCURVE",
"503 227 CURVE SMOOTH",
"509 227 OFFCURVE",
"512 229 OFFCURVE",
"518 233 CURVE SMOOTH",
"533 243 OFFCURVE",
"553 249 OFFCURVE",
"575 249 CURVE SMOOTH",
"592 249 OFFCURVE",
"609 244 OFFCURVE",
"625 236 CURVE",
"625 12 LINE SMOOTH",
"625 -4 OFFCURVE",
"640 -12 OFFCURVE",
"655 -12 CURVE SMOOTH",
"670 -12 OFFCURVE",
"685 -4 OFFCURVE",
"685 12 CURVE SMOOTH",
"685 231 LINE",
"702 242 OFFCURVE",
"722 249 OFFCURVE",
"743 249 CURVE SMOOTH",
"765 249 OFFCURVE",
"785 243 OFFCURVE",
"797 235 CURVE SMOOTH",
"806 229 OFFCURVE",
"809 227 OFFCURVE",
"815 227 CURVE SMOOTH",
"826 227 OFFCURVE",
"832 239 OFFCURVE",
"832 251 CURVE SMOOTH",
"832 263 OFFCURVE",
"826 276 OFFCURVE",
"813 283 CURVE SMOOTH",
"792 294 OFFCURVE",
"771 303 OFFCURVE",
"740 303 CURVE SMOOTH",
"720 303 OFFCURVE",
"702 298 OFFCURVE",
"685 290 CURVE",
"685 343 LINE",
"702 356 OFFCURVE",
"723 363 OFFCURVE",
"744 363 CURVE SMOOTH",
"760 363 OFFCURVE",
"773 352 OFFCURVE",
"792 346 CURVE SMOOTH",
"795 345 OFFCURVE",
"798 344 OFFCURVE",
"801 344 CURVE SMOOTH",
"813 344 OFFCURVE",
"823 353 OFFCURVE",
"823 366 CURVE SMOOTH",
"823 375 OFFCURVE",
"818 387 OFFCURVE",
"804 398 CURVE SMOOTH",
"784 413 OFFCURVE",
"767 419 OFFCURVE",
"745 419 CURVE SMOOTH",
"722 419 OFFCURVE",
"702 413 OFFCURVE",
"685 403 CURVE"
);
}
);
width = 882;
}
);
unicode = 1098C;
},
{
glyphname = u1098D;
lastChange = "2017-11-08 19:36:06 +0000";
layers = (
{
layerId = UUID0;
paths = (
{
closed = 1;
nodes = (
"327 507 OFFCURVE",
"297 609 OFFCURVE",
"229 690 CURVE SMOOTH",
"204 720 OFFCURVE",
"158 753 OFFCURVE",
"110 753 CURVE SMOOTH",
"85 753 OFFCURVE",
"57 737 OFFCURVE",
"57 699 CURVE SMOOTH",
"57 664 OFFCURVE",
"79 635 OFFCURVE",
"101 610 CURVE SMOOTH",
"123 586 OFFCURVE",
"146 563 OFFCURVE",
"146 540 CURVE SMOOTH",
"146 526 OFFCURVE",
"134 519 OFFCURVE",
"114 509 CURVE SMOOTH",
"92 498 OFFCURVE",
"75 484 OFFCURVE",
"75 464 CURVE SMOOTH",
"75 449 OFFCURVE",
"82 438 OFFCURVE",
"93 428 CURVE SMOOTH",
"112 411 OFFCURVE",
"128 400 OFFCURVE",
"128 394 CURVE SMOOTH",
"128 388 OFFCURVE",
"108 383 OFFCURVE",
"87 373 CURVE SMOOTH",
"67 364 OFFCURVE",
"50 353 OFFCURVE",
"50 332 CURVE SMOOTH",
"50 294 OFFCURVE",
"86 261 OFFCURVE",
"122 229 CURVE SMOOTH",
"156 199 OFFCURVE",
"188 170 OFFCURVE",
"188 137 CURVE SMOOTH",
"188 120 OFFCURVE",
"179 101 OFFCURVE",
"168 83 CURVE SMOOTH",
"153 58 OFFCURVE",
"136 38 OFFCURVE",
"125 22 CURVE SMOOTH",
"120 15 OFFCURVE",
"118 12 OFFCURVE",
"118 6 CURVE SMOOTH",
"118 -6 OFFCURVE",
"141 -22 OFFCURVE",
"160 -22 CURVE SMOOTH",
"163 -22 OFFCURVE",
"165 -21 OFFCURVE",
"167 -19 CURVE SMOOTH",
"251 100 OFFCURVE",
"327 248 OFFCURVE",
"327 401 CURVE SMOOTH"
);
},
{
closed = 1;
nodes = (
"271 332 OFFCURVE",
"252 260 OFFCURVE",
"224 194 CURVE",
"209 218 OFFCURVE",
"184 241 OFFCURVE",
"162 261 CURVE SMOOTH",
"133 288 OFFCURVE",
"107 309 OFFCURVE",
"107 325 CURVE SMOOTH",
"107 336 OFFCURVE",
"130 343 OFFCURVE",
"151 352 CURVE SMOOTH",
"170 360 OFFCURVE",
"188 370 OFFCURVE",
"188 383 CURVE SMOOTH",
"188 395 OFFCURVE",
"177 411 OFFCURVE",
"155 430 CURVE SMOOTH",
"141 442 OFFCURVE",
"130 452 OFFCURVE",
"130 457 CURVE SMOOTH",
"130 464 OFFCURVE",
"149 474 OFFCURVE",
"168 485 CURVE SMOOTH",
"186 496 OFFCURVE",
"202 512 OFFCURVE",
"202 534 CURVE SMOOTH",
"202 566 OFFCURVE",
"179 598 OFFCURVE",
"156 626 CURVE SMOOTH",
"133 653 OFFCURVE",
"111 677 OFFCURVE",
"111 693 CURVE SMOOTH",
"111 696 OFFCURVE",
"111 702 OFFCURVE",
"117 702 CURVE SMOOTH",
"140 701 OFFCURVE",
"178 668 OFFCURVE",
"197 643 CURVE SMOOTH",
"245 580 OFFCURVE",
"271 482 OFFCURVE",
"271 402 CURVE SMOOTH"
);
},
{
closed = 1;
nodes = (
"380 248 OFFCURVE",
"437 84 OFFCURVE",
"540 -19 CURVE SMOOTH",
"542 -21 OFFCURVE",
"544 -22 OFFCURVE",
"547 -22 CURVE SMOOTH",
"566 -22 OFFCURVE",
"589 -6 OFFCURVE",
"589 6 CURVE SMOOTH",
"589 12 OFFCURVE",
"587 15 OFFCURVE",
"582 22 CURVE SMOOTH",
"571 38 OFFCURVE",
"555 58 OFFCURVE",
"539 83 CURVE SMOOTH",
"527 101 OFFCURVE",
"519 120 OFFCURVE",
"519 137 CURVE SMOOTH",
"519 170 OFFCURVE",
"551 199 OFFCURVE",
"585 229 CURVE SMOOTH",
"621 260 OFFCURVE",
"657 294 OFFCURVE",
"657 332 CURVE SMOOTH",
"657 353 OFFCURVE",
"639 365 OFFCURVE",
"620 373 CURVE SMOOTH",
"599 382 OFFCURVE",
"579 388 OFFCURVE",
"579 394 CURVE SMOOTH",
"579 400 OFFCURVE",
"595 411 OFFCURVE",
"614 428 CURVE SMOOTH",
"625 438 OFFCURVE",
"632 449 OFFCURVE",
"632 464 CURVE SMOOTH",
"632 484 OFFCURVE",
"615 498 OFFCURVE",
"593 509 CURVE SMOOTH",
"573 519 OFFCURVE",
"561 526 OFFCURVE",
"561 540 CURVE SMOOTH",
"561 563 OFFCURVE",
"583 585 OFFCURVE",
"606 610 CURVE SMOOTH",
"629 635 OFFCURVE",
"650 664 OFFCURVE",
"650 699 CURVE SMOOTH",
"650 737 OFFCURVE",
"622 753 OFFCURVE",
"597 753 CURVE SMOOTH",
"549 753 OFFCURVE",
"503 720 OFFCURVE",
"478 690 CURVE SMOOTH",
"410 609 OFFCURVE",
"380 507 OFFCURVE",
"380 401 CURVE SMOOTH"
);
},
{
closed = 1;
nodes = (
"436 482 OFFCURVE",
"462 580 OFFCURVE",
"510 643 CURVE SMOOTH",
"529 668 OFFCURVE",
"567 702 OFFCURVE",
"590 702 CURVE SMOOTH",
"596 702 OFFCURVE",
"596 696 OFFCURVE",
"596 693 CURVE SMOOTH",
"596 677 OFFCURVE",
"574 653 OFFCURVE",
"551 626 CURVE SMOOTH",
"528 598 OFFCURVE",
"505 566 OFFCURVE",
"505 534 CURVE SMOOTH",
"505 512 OFFCURVE",
"520 497 OFFCURVE",
"539 485 CURVE SMOOTH",
"558 473 OFFCURVE",
"577 464 OFFCURVE",
"577 457 CURVE SMOOTH",
"577 452 OFFCURVE",
"566 442 OFFCURVE",
"552 430 CURVE SMOOTH",
"530 411 OFFCURVE",
"519 395 OFFCURVE",
"519 383 CURVE SMOOTH",
"519 370 OFFCURVE",
"537 360 OFFCURVE",
"556 352 CURVE SMOOTH",
"577 343 OFFCURVE",
"600 336 OFFCURVE",
"600 325 CURVE SMOOTH",
"600 309 OFFCURVE",
"574 287 OFFCURVE",
"545 261 CURVE SMOOTH",
"522 241 OFFCURVE",
"498 218 OFFCURVE",
"483 194 CURVE",
"455 260 OFFCURVE",
"436 332 OFFCURVE",
"436 402 CURVE SMOOTH"
);
}
);
width = 707;
}
);
unicode = 1098D;
},
{
glyphname = u1098E;
lastChange = "2017-11-08 19:36:06 +0000";
layers = (
{
layerId = UUID0;
paths = (
{
closed = 1;
nodes = (
"897 207 LINE SMOOTH",
"897 249 OFFCURVE",
"887 285 OFFCURVE",
"841 285 CURVE SMOOTH",
"283 285 LINE SMOOTH",
"237 285 OFFCURVE",
"227 249 OFFCURVE",
"227 207 CURVE SMOOTH",
"227 78 LINE SMOOTH",
"227 36 OFFCURVE",
"237 0 OFFCURVE",
"283 0 CURVE SMOOTH",
"841 0 LINE SMOOTH",
"887 0 OFFCURVE",
"897 36 OFFCURVE",
"897 78 CURVE SMOOTH"
);
},
{
closed = 1;
nodes = (
"287 182 LINE SMOOTH",
"287 222 OFFCURVE",
"295 227 OFFCURVE",
"320 227 CURVE SMOOTH",
"804 227 LINE SMOOTH",
"829 227 OFFCURVE",
"837 222 OFFCURVE",
"837 182 CURVE SMOOTH",
"837 103 LINE SMOOTH",
"837 63 OFFCURVE",
"829 58 OFFCURVE",
"804 58 CURVE SMOOTH",
"320 58 LINE SMOOTH",
"295 58 OFFCURVE",
"287 63 OFFCURVE",
"287 103 CURVE SMOOTH"
);
},
{
closed = 1;
nodes = (
"50 112 OFFCURVE",
"74 88 OFFCURVE",
"105 88 CURVE SMOOTH",
"136 88 OFFCURVE",
"160 112 OFFCURVE",
"160 143 CURVE SMOOTH",
"160 174 OFFCURVE",
"136 198 OFFCURVE",
"105 198 CURVE SMOOTH",
"74 198 OFFCURVE",
"50 174 OFFCURVE",
"50 143 CURVE SMOOTH"
);
}
);
width = 947;
}
);
unicode = 1098E;
},
{
glyphname = u1098F;
lastChange = "2017-11-08 19:36:06 +0000";
layers = (
{
layerId = UUID0;
paths = (
{
closed = 1;
nodes = (
"687 170 LINE SMOOTH",
"702 170 OFFCURVE",
"710 184 OFFCURVE",
"710 199 CURVE SMOOTH",
"710 213 OFFCURVE",
"702 228 OFFCURVE",
"687 228 CURVE SMOOTH",
"223 228 LINE SMOOTH",
"208 228 OFFCURVE",
"200 213 OFFCURVE",
"200 199 CURVE SMOOTH",
"200 184 OFFCURVE",
"208 170 OFFCURVE",
"223 170 CURVE"
);
},
{
closed = 1;
nodes = (
"860 307 LINE SMOOTH",
"860 349 OFFCURVE",
"850 385 OFFCURVE",
"804 385 CURVE SMOOTH",
"106 385 LINE SMOOTH",
"60 385 OFFCURVE",
"50 349 OFFCURVE",
"50 307 CURVE SMOOTH",
"50 78 LINE SMOOTH",
"50 36 OFFCURVE",
"60 0 OFFCURVE",
"106 0 CURVE SMOOTH",
"804 0 LINE SMOOTH",
"850 0 OFFCURVE",
"860 36 OFFCURVE",
"860 78 CURVE SMOOTH"
);
},
{
closed = 1;
nodes = (
"110 282 LINE SMOOTH",
"110 322 OFFCURVE",
"118 327 OFFCURVE",
"143 327 CURVE SMOOTH",
"767 327 LINE SMOOTH",
"792 327 OFFCURVE",
"800 322 OFFCURVE",
"800 282 CURVE SMOOTH",
"800 103 LINE SMOOTH",
"800 63 OFFCURVE",
"792 58 OFFCURVE",
"767 58 CURVE SMOOTH",
"143 58 LINE SMOOTH",
"118 58 OFFCURVE",
"110 63 OFFCURVE",
"110 103 CURVE SMOOTH"
);
}
);
width = 910;
}
);
unicode = 1098F;
},
{
glyphname = u10990;
lastChange = "2017-11-08 19:36:06 +0000";
layers = (
{
layerId = UUID0;
paths = (
{
closed = 1;
nodes = (
"1153 239 OFFCURVE",
"1126 215 OFFCURVE",
"1113 186 CURVE",
"983 109 OFFCURVE",
"831 62 OFFCURVE",
"703 62 CURVE SMOOTH",
"685 62 LINE",
"700 92 OFFCURVE",
"705 131 OFFCURVE",
"705 171 CURVE SMOOTH",
"705 197 OFFCURVE",
"703 210 OFFCURVE",
"703 222 CURVE SMOOTH",
"703 240 OFFCURVE",
"711 255 OFFCURVE",
"711 269 CURVE SMOOTH",
"711 283 OFFCURVE",
"696 294 OFFCURVE",
"681 294 CURVE SMOOTH",
"670 294 OFFCURVE",
"659 289 OFFCURVE",
"652 275 CURVE SMOOTH",
"643 257 OFFCURVE",
"643 241 OFFCURVE",
"643 218 CURVE SMOOTH",
"643 200 OFFCURVE",
"644 175 OFFCURVE",
"644 157 CURVE SMOOTH",
"644 102 OFFCURVE",
"634 58 OFFCURVE",
"554 58 CURVE SMOOTH",
"77 58 LINE SMOOTH",
"59 58 OFFCURVE",
"50 43 OFFCURVE",
"50 28 CURVE SMOOTH",
"50 14 OFFCURVE",
"58 0 OFFCURVE",
"77 0 CURVE SMOOTH",
"577 0 LINE SMOOTH",
"599 0 OFFCURVE",
"616 4 OFFCURVE",
"632 10 CURVE",
"654 8 OFFCURVE",
"684 6 OFFCURVE",
"703 6 CURVE SMOOTH",
"841 6 OFFCURVE",
"989 54 OFFCURVE",
"1108 119 CURVE",
"1113 95 OFFCURVE",
"1126 74 OFFCURVE",
"1142 58 CURVE",
"1042 58 LINE SMOOTH",
"1022 58 OFFCURVE",
"1012 43 OFFCURVE",
"1012 29 CURVE SMOOTH",
"1012 14 OFFCURVE",
"1022 0 OFFCURVE",
"1042 0 CURVE SMOOTH",
"1328 0 LINE SMOOTH",
"1428 0 OFFCURVE",
"1478 65 OFFCURVE",
"1478 145 CURVE SMOOTH",
"1478 249 OFFCURVE",
"1416 366 OFFCURVE",
"1305 398 CURVE",
"1322 417 OFFCURVE",
"1346 433 OFFCURVE",
"1372 433 CURVE SMOOTH",
"1382 433 OFFCURVE",
"1399 425 OFFCURVE",
"1410 425 CURVE SMOOTH",
"1428 425 OFFCURVE",
"1435 442 OFFCURVE",
"1435 455 CURVE SMOOTH",
"1435 463 OFFCURVE",
"1435 473 OFFCURVE",
"1420 479 CURVE SMOOTH",
"1409 483 OFFCURVE",
"1388 487 OFFCURVE",
"1368 487 CURVE SMOOTH",
"1326 487 OFFCURVE",
"1286 470 OFFCURVE",
"1251 405 CURVE",
"1213 405 OFFCURVE",
"1051 386 OFFCURVE",
"968 386 CURVE SMOOTH",
"831 386 OFFCURVE",
"766 404 OFFCURVE",
"717 451 CURVE SMOOTH",
"683 484 OFFCURVE",
"661 524 OFFCURVE",
"609 554 CURVE SMOOTH",
"555 585 OFFCURVE",
"518 610 OFFCURVE",
"518 650 CURVE SMOOTH",
"518 656 OFFCURVE",
"520 662 OFFCURVE",
"520 669 CURVE SMOOTH",
"520 672 OFFCURVE",
"519 676 OFFCURVE",
"518 679 CURVE",
"494 689 LINE",
"463 679 OFFCURVE",
"427 647 OFFCURVE",
"406 627 CURVE SMOOTH",
"304 526 LINE SMOOTH",
"275 498 OFFCURVE",
"222 466 OFFCURVE",
"222 428 CURVE SMOOTH",
"222 378 OFFCURVE",
"259 317 OFFCURVE",
"298 317 CURVE SMOOTH",
"332 317 OFFCURVE",
"361 343 OFFCURVE",
"394 343 CURVE SMOOTH",
"426 343 OFFCURVE",
"438 322 OFFCURVE",
"458 288 CURVE SMOOTH",
"478 253 OFFCURVE",
"487 237 OFFCURVE",
"487 213 CURVE SMOOTH",
"487 174 OFFCURVE",
"470 157 OFFCURVE",
"425 157 CURVE SMOOTH",
"167 157 LINE SMOOTH",
"149 157 OFFCURVE",
"139 141 OFFCURVE",
"139 126 CURVE SMOOTH",
"139 112 OFFCURVE",
"147 99 OFFCURVE",
"167 99 CURVE SMOOTH",
"443 99 LINE SMOOTH",
"520 99 OFFCURVE",
"553 166 OFFCURVE",
"553 210 CURVE SMOOTH",
"553 232 OFFCURVE",
"540 271 OFFCURVE",
"522 306 CURVE SMOOTH",
"490 368 OFFCURVE",
"453 404 OFFCURVE",
"406 404 CURVE SMOOTH",
"376 404 OFFCURVE",
"347 377 OFFCURVE",
"322 377 CURVE SMOOTH",
"295 377 OFFCURVE",
"282 405 OFFCURVE",
"282 427 CURVE SMOOTH",
"282 441 OFFCURVE",
"310 460 OFFCURVE",
"326 475 CURVE SMOOTH",
"434 576 LINE SMOOTH",
"449 590 OFFCURVE",
"465 605 OFFCURVE",
"478 615 CURVE",
"478 558 OFFCURVE",
"539 533 OFFCURVE",
"588 500 CURVE SMOOTH",
"620 478 OFFCURVE",
"646 451 OFFCURVE",
"669 420 CURVE SMOOTH",
"718 352 OFFCURVE",
"799 326 OFFCURVE",
"972 326 CURVE SMOOTH",
"1066 326 OFFCURVE",
"1146 345 OFFCURVE",
"1263 345 CURVE SMOOTH",
"1355 345 OFFCURVE",
"1414 227 OFFCURVE",
"1414 145 CURVE SMOOTH",
"1414 101 OFFCURVE",
"1394 58 OFFCURVE",
"1331 58 CURVE SMOOTH",
"1283 58 LINE SMOOTH",
"1229 58 OFFCURVE",
"1168 77 OFFCURVE",
"1168 149 CURVE SMOOTH",
"1168 181 OFFCURVE",
"1184 195 OFFCURVE",
"1221 226 CURVE SMOOTH",
"1231 234 OFFCURVE",
"1231 243 OFFCURVE",
"1231 247 CURVE SMOOTH",
"1231 269 OFFCURVE",
"1213 272 OFFCURVE",
"1205 272 CURVE SMOOTH",
"1195 272 OFFCURVE",
"1189 269 OFFCURVE",
"1182 263 CURVE SMOOTH"
);
}
);
width = 1528;
}
);
unicode = 10990;
},
{
glyphname = u10991;
lastChange = "2017-11-08 19:36:06 +0000";
layers = (
{
layerId = UUID0;
paths = (
{
closed = 1;
nodes = (
"865 176 LINE SMOOTH",
"880 176 OFFCURVE",
"888 190 OFFCURVE",
"888 205 CURVE SMOOTH",
"888 219 OFFCURVE",
"880 234 OFFCURVE",
"865 234 CURVE SMOOTH",
"363 234 LINE SMOOTH",
"348 234 OFFCURVE",
"340 219 OFFCURVE",
"340 205 CURVE SMOOTH",
"340 190 OFFCURVE",
"348 176 OFFCURVE",
"363 176 CURVE"
);
},
{
closed = 1;
nodes = (
"1115 297 OFFCURVE",
"900 420 OFFCURVE",
"614 420 CURVE SMOOTH",
"332 420 OFFCURVE",
"116 303 OFFCURVE",
"50 199 CURVE",
"118 80 OFFCURVE",
"332 -12 OFFCURVE",
"614 -12 CURVE SMOOTH",
"900 -12 OFFCURVE",
"1108 79 OFFCURVE",
"1178 199 CURVE"
);
},
{
closed = 1;
nodes = (
"1045 112 OFFCURVE",
"863 48 OFFCURVE",
"614 48 CURVE SMOOTH",
"369 48 OFFCURVE",
"181 112 OFFCURVE",
"122 199 CURVE",
"179 274 OFFCURVE",
"369 360 OFFCURVE",
"614 360 CURVE SMOOTH",
"863 360 OFFCURVE",
"1052 269 OFFCURVE",
"1106 199 CURVE"
);
}
);
width = 1228;
}
);
unicode = 10991;
},
{
glyphname = u10992;
lastChange = "2017-11-08 19:36:06 +0000";
layers = (
{
layerId = UUID0;
paths = (
{
closed = 1;
nodes = (
"133 720 LINE SMOOTH",
"87 720 OFFCURVE",
"86 697 OFFCURVE",
"86 673 CURVE SMOOTH",
"86 598 LINE SMOOTH",
"86 579 OFFCURVE",
"96 555 OFFCURVE",
"125 555 CURVE SMOOTH",
"172 555 LINE SMOOTH",
"199 555 OFFCURVE",
"204 547 OFFCURVE",
"204 522 CURVE SMOOTH",
"204 492 LINE SMOOTH",
"204 467 OFFCURVE",
"197 459 OFFCURVE",
"172 459 CURVE SMOOTH",
"105 459 LINE SMOOTH",
"54 459 OFFCURVE",
"50 420 OFFCURVE",
"50 399 CURVE SMOOTH",
"50 356 OFFCURVE",
"63 323 OFFCURVE",
"72 302 CURVE SMOOTH",
"172 78 LINE SMOOTH",
"190 37 OFFCURVE",
"220 0 OFFCURVE",
"262 0 CURVE SMOOTH",
"484 0 LINE SMOOTH",
"526 0 OFFCURVE",
"556 37 OFFCURVE",
"574 78 CURVE SMOOTH",
"674 302 LINE SMOOTH",
"683 323 OFFCURVE",
"696 356 OFFCURVE",
"696 399 CURVE SMOOTH",
"696 420 OFFCURVE",
"692 459 OFFCURVE",
"641 459 CURVE SMOOTH",
"574 459 LINE SMOOTH",
"549 459 OFFCURVE",
"542 467 OFFCURVE",
"542 492 CURVE SMOOTH",
"542 522 LINE SMOOTH",
"542 547 OFFCURVE",
"547 555 OFFCURVE",
"574 555 CURVE SMOOTH",
"621 555 LINE SMOOTH",
"650 555 OFFCURVE",
"660 579 OFFCURVE",
"660 598 CURVE SMOOTH",
"660 673 LINE SMOOTH",
"660 697 OFFCURVE",
"659 720 OFFCURVE",
"613 720 CURVE"
);
},
{
closed = 1;
nodes = (
"576 662 LINE SMOOTH",
"591 662 OFFCURVE",
"600 660 OFFCURVE",
"600 650 CURVE SMOOTH",
"600 631 LINE SMOOTH",
"600 621 OFFCURVE",
"598 613 OFFCURVE",
"584 613 CURVE SMOOTH",
"534 613 LINE SMOOTH",
"495 613 OFFCURVE",
"482 593 OFFCURVE",
"482 551 CURVE SMOOTH",
"482 475 LINE SMOOTH",
"482 429 OFFCURVE",
"505 401 OFFCURVE",
"547 401 CURVE SMOOTH",
"599 401 LINE SMOOTH",
"622 401 OFFCURVE",
"631 395 OFFCURVE",
"631 375 CURVE SMOOTH",
"631 353 OFFCURVE",
"617 320 OFFCURVE",
"602 288 CURVE SMOOTH",
"515 100 LINE SMOOTH",
"505 78 OFFCURVE",
"492 58 OFFCURVE",
"457 58 CURVE SMOOTH",
"286 58 LINE SMOOTH",
"254 58 OFFCURVE",
"242 76 OFFCURVE",
"231 100 CURVE SMOOTH",
"144 288 LINE SMOOTH",
"129 320 OFFCURVE",
"115 353 OFFCURVE",
"115 374 CURVE SMOOTH",
"115 395 OFFCURVE",
"124 401 OFFCURVE",
"147 401 CURVE SMOOTH",
"199 401 LINE SMOOTH",
"241 401 OFFCURVE",
"264 429 OFFCURVE",
"264 475 CURVE SMOOTH",
"264 551 LINE SMOOTH",
"264 593 OFFCURVE",
"251 613 OFFCURVE",
"212 613 CURVE SMOOTH",
"162 613 LINE SMOOTH",
"148 613 OFFCURVE",
"146 621 OFFCURVE",
"146 631 CURVE SMOOTH",
"146 650 LINE SMOOTH",
"146 660 OFFCURVE",
"155 662 OFFCURVE",
"170 662 CURVE"
);
}
);
width = 746;
}
);
unicode = 10992;
},
{
glyphname = u10993;
lastChange = "2017-11-08 19:36:06 +0000";
layers = (
{
layerId = UUID0;
paths = (
{
closed = 1;
nodes = (
"836 815 LINE SMOOTH",
"820 815 OFFCURVE",
"810 804 OFFCURVE",
"810 791 CURVE SMOOTH",
"810 784 OFFCURVE",
"814 778 OFFCURVE",
"819 770 CURVE SMOOTH",
"918 625 LINE",
"918 206 LINE",
"795 340 LINE SMOOTH",
"782 354 OFFCURVE",
"770 363 OFFCURVE",
"757 363 CURVE SMOOTH",
"745 363 OFFCURVE",
"733 355 OFFCURVE",
"719 340 CURVE SMOOTH",
"598 207 LINE",
"598 638 LINE",
"688 769 LINE SMOOTH",
"692 775 OFFCURVE",
"696 785 OFFCURVE",
"696 793 CURVE SMOOTH",
"696 805 OFFCURVE",
"690 815 OFFCURVE",
"674 815 CURVE SMOOTH",
"456 815 LINE SMOOTH",
"440 815 OFFCURVE",
"430 804 OFFCURVE",
"430 791 CURVE SMOOTH",
"430 784 OFFCURVE",
"434 777 OFFCURVE",
"439 769 CURVE SMOOTH",
"538 625 LINE",
"538 206 LINE",
"415 340 LINE SMOOTH",
"402 354 OFFCURVE",
"390 363 OFFCURVE",
"377 363 CURVE SMOOTH",
"365 363 OFFCURVE",
"353 355 OFFCURVE",
"339 340 CURVE SMOOTH",
"218 207 LINE",
"218 638 LINE",
"308 769 LINE SMOOTH",
"312 775 OFFCURVE",
"316 785 OFFCURVE",
"316 793 CURVE SMOOTH",
"316 805 OFFCURVE",
"310 815 OFFCURVE",
"294 815 CURVE SMOOTH",
"76 815 LINE SMOOTH",
"60 815 OFFCURVE",
"50 804 OFFCURVE",
"50 791 CURVE SMOOTH",
"50 784 OFFCURVE",
"54 777 OFFCURVE",
"59 769 CURVE SMOOTH",
"158 625 LINE",
"158 205 LINE",
"146 205 LINE SMOOTH",
"100 205 OFFCURVE",
"90 169 OFFCURVE",
"90 127 CURVE SMOOTH",
"90 78 LINE SMOOTH",
"90 36 OFFCURVE",
"100 0 OFFCURVE",
"146 0 CURVE SMOOTH",
"990 0 LINE SMOOTH",
"1036 0 OFFCURVE",
"1046 36 OFFCURVE",
"1046 78 CURVE SMOOTH",
"1046 127 LINE SMOOTH",
"1046 169 OFFCURVE",
"1036 205 OFFCURVE",
"990 205 CURVE SMOOTH",
"978 205 LINE",
"978 638 LINE",
"1068 769 LINE SMOOTH",
"1072 775 OFFCURVE",
"1076 785 OFFCURVE",
"1076 793 CURVE SMOOTH",
"1076 805 OFFCURVE",
"1070 815 OFFCURVE",
"1054 815 CURVE SMOOTH"
);
},
{
closed = 1;
nodes = (
"150 123 LINE SMOOTH",
"150 142 OFFCURVE",
"158 147 OFFCURVE",
"183 147 CURVE SMOOTH",
"953 147 LINE SMOOTH",
"978 147 OFFCURVE",
"986 142 OFFCURVE",
"986 123 CURVE SMOOTH",
"986 82 LINE SMOOTH",
"986 63 OFFCURVE",
"978 58 OFFCURVE",
"953 58 CURVE SMOOTH",
"183 58 LINE SMOOTH",
"158 58 OFFCURVE",
"150 63 OFFCURVE",
"150 83 CURVE SMOOTH"
);
},
{
closed = 1;
nodes = (
"757 307 LINE",
"849 205 LINE",
"665 205 LINE"
);
},
{
closed = 1;
nodes = (
"377 307 LINE",
"469 205 LINE",
"285 205 LINE"
);
},
{
closed = 1;
nodes = (
"883 765 LINE",
"1005 765 LINE",
"949 674 LINE"
);
},
{
closed = 1;
nodes = (
"503 765 LINE",
"625 765 LINE",
"569 674 LINE"
);
},
{
closed = 1;
nodes = (
"123 765 LINE",
"245 765 LINE",
"189 674 LINE"
);
}
);
width = 1126;
}
);
unicode = 10993;
},
{
glyphname = u10994;
lastChange = "2017-11-08 19:36:06 +0000";
layers = (
{
layerId = UUID0;
paths = (
{
closed = 1;
nodes = (
"500 156 LINE",
"500 9 LINE SMOOTH",
"500 -5 OFFCURVE",
"515 -12 OFFCURVE",
"530 -12 CURVE SMOOTH",
"545 -12 OFFCURVE",
"560 -5 OFFCURVE",
"560 9 CURVE SMOOTH",
"560 156 LINE",
"708 156 LINE",
"708 9 LINE SMOOTH",
"708 -5 OFFCURVE",
"723 -12 OFFCURVE",
"738 -12 CURVE SMOOTH",
"753 -12 OFFCURVE",
"768 -5 OFFCURVE",
"768 9 CURVE SMOOTH",
"768 156 LINE",
"1195 156 LINE SMOOTH",
"1210 156 OFFCURVE",
"1218 170 OFFCURVE",
"1218 185 CURVE SMOOTH",
"1218 199 OFFCURVE",
"1210 214 OFFCURVE",
"1195 214 CURVE SMOOTH",
"768 214 LINE",
"768 343 LINE SMOOTH",
"768 357 OFFCURVE",
"753 364 OFFCURVE",
"738 364 CURVE SMOOTH",
"723 364 OFFCURVE",
"708 357 OFFCURVE",
"708 343 CURVE SMOOTH",
"708 214 LINE",
"560 214 LINE",
"560 343 LINE SMOOTH",
"560 357 OFFCURVE",
"545 364 OFFCURVE",
"530 364 CURVE SMOOTH",
"515 364 OFFCURVE",
"500 357 OFFCURVE",
"500 343 CURVE SMOOTH",
"500 214 LINE",
"73 214 LINE SMOOTH",
"58 214 OFFCURVE",
"50 199 OFFCURVE",
"50 185 CURVE SMOOTH",
"50 170 OFFCURVE",
"58 156 OFFCURVE",
"73 156 CURVE"
);
}
);
width = 1268;
}
);
unicode = 10994;
},
{
glyphname = u10995;
lastChange = "2017-11-08 19:36:06 +0000";
layers = (
{
layerId = UUID0;
paths = (
{
closed = 1;
nodes = (
"152 478 LINE",
"152 126 LINE",
"73 126 LINE SMOOTH",
"58 126 OFFCURVE",
"50 111 OFFCURVE",
"50 97 CURVE SMOOTH",
"50 82 OFFCURVE",
"58 68 OFFCURVE",
"73 68 CURVE SMOOTH",
"152 68 LINE",
"152 9 LINE SMOOTH",
"152 -5 OFFCURVE",
"167 -12 OFFCURVE",
"182 -12 CURVE SMOOTH",
"197 -12 OFFCURVE",
"212 -5 OFFCURVE",
"212 9 CURVE SMOOTH",
"212 68 LINE",
"558 68 LINE",
"558 9 LINE SMOOTH",
"558 -5 OFFCURVE",
"573 -12 OFFCURVE",
"588 -12 CURVE SMOOTH",
"603 -12 OFFCURVE",
"618 -5 OFFCURVE",
"618 9 CURVE SMOOTH",
"618 68 LINE",
"697 68 LINE SMOOTH",
"712 68 OFFCURVE",
"720 82 OFFCURVE",
"720 97 CURVE SMOOTH",
"720 111 OFFCURVE",
"712 126 OFFCURVE",
"697 126 CURVE SMOOTH",
"618 126 LINE",
"618 478 LINE",
"697 478 LINE SMOOTH",
"712 478 OFFCURVE",
"720 492 OFFCURVE",
"720 507 CURVE SMOOTH",
"720 521 OFFCURVE",
"712 536 OFFCURVE",
"697 536 CURVE SMOOTH",
"618 536 LINE",
"618 589 LINE SMOOTH",
"618 603 OFFCURVE",
"603 610 OFFCURVE",
"588 610 CURVE SMOOTH",
"573 610 OFFCURVE",
"558 603 OFFCURVE",
"558 589 CURVE SMOOTH",
"558 536 LINE",
"212 536 LINE",
"212 589 LINE SMOOTH",
"212 603 OFFCURVE",
"197 610 OFFCURVE",
"182 610 CURVE SMOOTH",
"167 610 OFFCURVE",
"152 603 OFFCURVE",
"152 589 CURVE SMOOTH",
"152 536 LINE",
"73 536 LINE SMOOTH",
"58 536 OFFCURVE",
"50 521 OFFCURVE",
"50 507 CURVE SMOOTH",
"50 492 OFFCURVE",
"58 478 OFFCURVE",
"73 478 CURVE"
);
},
{
closed = 1;
nodes = (
"212 478 LINE",
"558 478 LINE",
"558 126 LINE",
"212 126 LINE"
);
}
);
width = 770;
}
);
unicode = 10995;
},
{
glyphname = u10996;
lastChange = "2017-11-08 19:36:06 +0000";
layers = (
{
layerId = UUID0;
paths = (
{
closed = 1;
nodes = (
"867 203 OFFCURVE",
"838 218 OFFCURVE",
"815 232 CURVE",
"846 239 OFFCURVE",
"874 248 OFFCURVE",
"897 258 CURVE SMOOTH",
"920 268 OFFCURVE",
"932 280 OFFCURVE",
"932 292 CURVE SMOOTH",
"932 302 OFFCURVE",
"923 312 OFFCURVE",
"903 319 CURVE SMOOTH",
"857 335 OFFCURVE",
"778 383 OFFCURVE",
"689 432 CURVE SMOOTH",
"576 494 OFFCURVE",
"448 559 OFFCURVE",
"348 569 CURVE",
"381 604 OFFCURVE",
"406 647 OFFCURVE",
"406 712 CURVE SMOOTH",
"406 794 OFFCURVE",
"354 840 OFFCURVE",
"287 840 CURVE SMOOTH",
"219 840 OFFCURVE",
"170 797 OFFCURVE",
"170 725 CURVE SMOOTH",
"170 720 OFFCURVE",
"172 710 OFFCURVE",
"172 705 CURVE",
"134 655 OFFCURVE",
"50 659 OFFCURVE",
"50 631 CURVE SMOOTH",
"50 616 OFFCURVE",
"59 598 OFFCURVE",
"70 598 CURVE SMOOTH",
"99 598 OFFCURVE",
"165 615 OFFCURVE",
"205 635 CURVE",
"220 620 OFFCURVE",
"254 610 OFFCURVE",
"280 610 CURVE SMOOTH",
"290 610 OFFCURVE",
"299 611 OFFCURVE",
"308 613 CURVE",
"249 541 OFFCURVE",
"139 499 OFFCURVE",
"139 396 CURVE SMOOTH",
"139 293 OFFCURVE",
"211 228 OFFCURVE",
"306 187 CURVE",
"254 58 LINE",
"181 58 LINE SMOOTH",
"166 58 OFFCURVE",
"158 43 OFFCURVE",
"158 28 CURVE SMOOTH",
"158 14 OFFCURVE",
"165 0 OFFCURVE",
"181 0 CURVE SMOOTH",
"265 0 LINE SMOOTH",
"281 0 OFFCURVE",
"303 14 OFFCURVE",
"324 71 CURVE SMOOTH",
"360 167 LINE",
"386 159 OFFCURVE",
"412 151 OFFCURVE",
"438 146 CURVE",
"463 58 LINE",
"391 58 LINE SMOOTH",
"377 58 OFFCURVE",
"369 42 OFFCURVE",
"369 27 CURVE SMOOTH",
"369 13 OFFCURVE",
"376 0 OFFCURVE",
"391 0 CURVE SMOOTH",
"502 0 LINE SMOOTH",
"516 0 OFFCURVE",
"521 32 OFFCURVE",
"521 49 CURVE SMOOTH",
"521 59 OFFCURVE",
"520 74 OFFCURVE",
"516 87 CURVE SMOOTH",
"503 134 LINE",
"582 122 OFFCURVE",
"656 120 OFFCURVE",
"702 120 CURVE SMOOTH",
"761 120 OFFCURVE",
"902 136 OFFCURVE",
"902 178 CURVE SMOOTH",
"902 183 OFFCURVE",
"898 189 OFFCURVE",
"885 195 CURVE SMOOTH"
);
},
{
closed = 1;
nodes = (
"786 186 OFFCURVE",
"731 180 OFFCURVE",
"701 180 CURVE SMOOTH",
"482 180 OFFCURVE",
"198 235 OFFCURVE",
"198 383 CURVE SMOOTH",
"198 442 OFFCURVE",
"238 477 OFFCURVE",
"284 514 CURVE",
"297 514 LINE SMOOTH",
"409 514 OFFCURVE",
"524 457 OFFCURVE",
"641 395 CURVE SMOOTH",
"703 362 OFFCURVE",
"765 327 OFFCURVE",
"828 298 CURVE",
"781 280 OFFCURVE",
"730 275 OFFCURVE",
"673 275 CURVE SMOOTH",
"540 275 OFFCURVE",
"449 333 OFFCURVE",
"411 373 CURVE SMOOTH",
"402 382 OFFCURVE",
"393 385 OFFCURVE",
"388 385 CURVE SMOOTH",
"371 385 OFFCURVE",
"354 362 OFFCURVE",
"354 352 CURVE SMOOTH",
"354 348 OFFCURVE",
"356 342 OFFCURVE",
"361 336 CURVE SMOOTH",
"418 270 OFFCURVE",
"547 215 OFFCURVE",
"671 215 CURVE SMOOTH",
"695 215 OFFCURVE",
"722 217 OFFCURVE",
"750 220 CURVE",
"770 208 OFFCURVE",
"792 197 OFFCURVE",
"806 191 CURVE"
);
},
{
closed = 1;
nodes = (
"254 664 OFFCURVE",
"224 688 OFFCURVE",
"224 727 CURVE SMOOTH",
"224 761 OFFCURVE",
"253 786 OFFCURVE",
"284 786 CURVE SMOOTH",
"317 786 OFFCURVE",
"345 768 OFFCURVE",
"345 709 CURVE SMOOTH",
"345 698 OFFCURVE",
"344 689 OFFCURVE",
"342 679 CURVE",
"326 670 OFFCURVE",
"312 664 OFFCURVE",
"289 664 CURVE SMOOTH"
);
}
);
width = 982;
}
);
unicode = 10996;
},
{
glyphname = u10997;
lastChange = "2017-11-08 19:36:06 +0000";
layers = (
{
layerId = UUID0;
paths = (
{
closed = 1;
nodes = (
"213 748 OFFCURVE",
"193 711 OFFCURVE",
"155 528 CURVE SMOOTH",
"53 39 LINE SMOOTH",
"51 32 OFFCURVE",
"50 26 OFFCURVE",
"50 17 CURVE SMOOTH",
"50 8 OFFCURVE",
"53 0 OFFCURVE",
"67 0 CURVE SMOOTH",
"448 0 LINE SMOOTH",
"460 0 OFFCURVE",
"464 6 OFFCURVE",
"464 17 CURVE SMOOTH",
"464 24 OFFCURVE",
"462 34 OFFCURVE",
"461 39 CURVE SMOOTH",
"355 533 LINE SMOOTH",
"316 713 OFFCURVE",
"296 748 OFFCURVE",
"257 748 CURVE SMOOTH"
);
},
{
closed = 1;
nodes = (
"393 58 LINE",
"118 58 LINE",
"214 529 LINE SMOOTH",
"242 665 OFFCURVE",
"245 681 OFFCURVE",
"257 681 CURVE SMOOTH",
"266 681 OFFCURVE",
"269 666 OFFCURVE",
"297 529 CURVE SMOOTH"
);
}
);
width = 512;
}
);
unicode = 10997;
},
{
glyphname = u10998;
lastChange = "2017-11-08 19:36:06 +0000";
layers = (
{
layerId = UUID0;
paths = (
{
closed = 1;
nodes = (
"50 405 OFFCURVE",
"100 356 OFFCURVE",
"156 356 CURVE SMOOTH",
"205 356 OFFCURVE",
"247 393 OFFCURVE",
"257 440 CURVE",
"739 440 LINE SMOOTH",
"753 440 OFFCURVE",
"767 439 OFFCURVE",
"780 437 CURVE",
"646 303 LINE SMOOTH",
"632 289 OFFCURVE",
"627 277 OFFCURVE",
"627 265 CURVE SMOOTH",
"627 248 OFFCURVE",
"638 233 OFFCURVE",
"655 216 CURVE SMOOTH",
"779 92 LINE",
"766 90 OFFCURVE",
"753 90 OFFCURVE",
"739 90 CURVE SMOOTH",
"257 90 LINE",
"247 138 OFFCURVE",
"205 174 OFFCURVE",
"156 174 CURVE SMOOTH",
"100 174 OFFCURVE",
"50 127 OFFCURVE",
"50 69 CURVE SMOOTH",
"50 14 OFFCURVE",
"100 -35 OFFCURVE",
"156 -35 CURVE SMOOTH",
"199 -35 OFFCURVE",
"236 -6 OFFCURVE",
"252 32 CURVE",
"772 32 LINE SMOOTH",
"926 32 OFFCURVE",
"1003 145 OFFCURVE",
"1003 266 CURVE SMOOTH",
"1003 386 OFFCURVE",
"925 498 OFFCURVE",
"772 498 CURVE SMOOTH",
"252 498 LINE",
"237 537 OFFCURVE",
"199 565 OFFCURVE",
"156 565 CURVE SMOOTH",
"100 565 OFFCURVE",
"50 518 OFFCURVE",
"50 460 CURVE SMOOTH"
);
},
{
closed = 1;
nodes = (
"938 262 CURVE SMOOTH",
"938 188 OFFCURVE",
"906 134 OFFCURVE",
"841 107 CURVE",
"717 232 LINE SMOOTH",
"702 247 OFFCURVE",
"695 256 OFFCURVE",
"695 265 CURVE SMOOTH",
"695 272 OFFCURVE",
"700 279 OFFCURVE",
"708 287 CURVE SMOOTH",
"843 422 LINE",
"907 395 OFFCURVE",
"938 342 OFFCURVE"
);
},
{
closed = 1;
nodes = (
"104 99 OFFCURVE",
"127 122 OFFCURVE",
"156 122 CURVE SMOOTH",
"186 122 OFFCURVE",
"209 99 OFFCURVE",
"209 69 CURVE SMOOTH",
"209 40 OFFCURVE",
"186 17 OFFCURVE",
"156 17 CURVE SMOOTH",
"127 17 OFFCURVE",
"104 40 OFFCURVE",
"104 69 CURVE SMOOTH"
);
},
{
closed = 1;
nodes = (
"104 490 OFFCURVE",
"127 513 OFFCURVE",
"156 513 CURVE SMOOTH",
"186 513 OFFCURVE",
"209 490 OFFCURVE",
"209 460 CURVE SMOOTH",
"209 431 OFFCURVE",
"186 408 OFFCURVE",
"156 408 CURVE SMOOTH",
"127 408 OFFCURVE",
"104 431 OFFCURVE",
"104 460 CURVE SMOOTH"
);
}
);
width = 1053;
}
);
unicode = 10998;
},
{
glyphname = u10999;
lastChange = "2017-11-08 19:36:06 +0000";
layers = (
{
layerId = UUID0;
paths = (
{
closed = 1;
nodes = (
"1317 154 LINE SMOOTH",
"1433 154 OFFCURVE",
"1456 240 OFFCURVE",
"1456 282 CURVE SMOOTH",
"1456 311 LINE SMOOTH",
"1456 353 OFFCURVE",
"1433 439 OFFCURVE",
"1317 439 CURVE SMOOTH",
"189 439 LINE SMOOTH",
"73 439 OFFCURVE",
"50 353 OFFCURVE",
"50 311 CURVE SMOOTH",
"50 282 LINE SMOOTH",
"50 240 OFFCURVE",
"73 154 OFFCURVE",
"189 154 CURVE"
);
},
{
closed = 1;
nodes = (
"1289 381 LINE SMOOTH",
"1374 381 OFFCURVE",
"1396 344 OFFCURVE",
"1396 304 CURVE SMOOTH",
"1396 289 LINE SMOOTH",
"1396 249 OFFCURVE",
"1374 212 OFFCURVE",
"1289 212 CURVE SMOOTH",
"217 212 LINE SMOOTH",
"132 212 OFFCURVE",
"110 249 OFFCURVE",
"110 289 CURVE SMOOTH",
"110 304 LINE SMOOTH",
"110 344 OFFCURVE",
"132 381 OFFCURVE",
"217 381 CURVE SMOOTH"
);
}
);
width = 1506;
}
);
unicode = 10999;
},
{
glyphname = u1099A;
lastChange = "2017-11-08 19:36:06 +0000";
layers = (
{
layerId = UUID0;
paths = (
{
closed = 1;
nodes = (
"777 579 LINE SMOOTH",
"792 579 OFFCURVE",
"800 593 OFFCURVE",
"800 608 CURVE SMOOTH",
"800 622 OFFCURVE",
"792 637 OFFCURVE",
"777 637 CURVE SMOOTH",
"143 637 LINE SMOOTH",
"128 637 OFFCURVE",
"120 622 OFFCURVE",
"120 608 CURVE SMOOTH",
"120 593 OFFCURVE",
"128 579 OFFCURVE",
"143 579 CURVE"
);
},
{
closed = 1;
nodes = (
"460 293 LINE SMOOTH",
"460 307 OFFCURVE",
"445 314 OFFCURVE",
"430 314 CURVE SMOOTH",
"415 314 OFFCURVE",
"400 307 OFFCURVE",
"400 293 CURVE SMOOTH",
"400 78 LINE SMOOTH",
"400 36 OFFCURVE",
"410 0 OFFCURVE",
"456 0 CURVE SMOOTH",
"764 0 LINE SMOOTH",
"810 0 OFFCURVE",
"820 36 OFFCURVE",
"820 78 CURVE SMOOTH",
"820 417 LINE SMOOTH",
"820 459 OFFCURVE",
"810 495 OFFCURVE",
"764 495 CURVE SMOOTH",
"156 495 LINE SMOOTH",
"110 495 OFFCURVE",
"100 459 OFFCURVE",
"100 417 CURVE SMOOTH",
"100 9 LINE SMOOTH",
"100 -5 OFFCURVE",
"115 -12 OFFCURVE",
"130 -12 CURVE SMOOTH",
"145 -12 OFFCURVE",
"160 -5 OFFCURVE",
"160 9 CURVE SMOOTH",
"160 392 LINE SMOOTH",
"160 432 OFFCURVE",
"168 437 OFFCURVE",
"193 437 CURVE SMOOTH",
"727 437 LINE SMOOTH",
"752 437 OFFCURVE",
"760 432 OFFCURVE",
"760 392 CURVE SMOOTH",
"760 103 LINE SMOOTH",
"760 63 OFFCURVE",
"752 58 OFFCURVE",
"727 58 CURVE SMOOTH",
"493 58 LINE SMOOTH",
"468 58 OFFCURVE",
"460 63 OFFCURVE",
"460 103 CURVE"
);
}
);
width = 920;
}
);
unicode = 1099A;
},
{
glyphname = u1099B;
lastChange = "2017-11-08 19:36:06 +0000";
layers = (
{
layerId = UUID0;
paths = (
{
closed = 1;
nodes = (
"672 437 LINE SMOOTH",
"687 437 OFFCURVE",
"695 451 OFFCURVE",
"695 466 CURVE SMOOTH",
"695 480 OFFCURVE",
"687 495 OFFCURVE",
"672 495 CURVE SMOOTH",
"156 495 LINE SMOOTH",
"110 495 OFFCURVE",
"100 459 OFFCURVE",
"100 417 CURVE SMOOTH",
"100 78 LINE SMOOTH",
"100 36 OFFCURVE",
"110 0 OFFCURVE",
"156 0 CURVE SMOOTH",
"634 0 LINE SMOOTH",
"680 0 OFFCURVE",
"690 36 OFFCURVE",
"690 78 CURVE SMOOTH",
"690 227 LINE SMOOTH",
"690 269 OFFCURVE",
"680 305 OFFCURVE",
"634 305 CURVE SMOOTH",
"391 305 LINE SMOOTH",
"376 305 OFFCURVE",
"368 290 OFFCURVE",
"368 276 CURVE SMOOTH",
"368 261 OFFCURVE",
"376 247 OFFCURVE",
"391 247 CURVE SMOOTH",
"597 247 LINE SMOOTH",
"622 247 OFFCURVE",
"630 242 OFFCURVE",
"630 202 CURVE SMOOTH",
"630 103 LINE SMOOTH",
"630 63 OFFCURVE",
"622 58 OFFCURVE",
"597 58 CURVE SMOOTH",
"193 58 LINE SMOOTH",
"168 58 OFFCURVE",
"160 63 OFFCURVE",
"160 103 CURVE SMOOTH",
"160 392 LINE SMOOTH",
"160 432 OFFCURVE",
"168 437 OFFCURVE",
"193 437 CURVE"
);
}
);
width = 795;
}
);
unicode = 1099B;
},
{
glyphname = u1099C;
lastChange = "2017-11-08 19:36:06 +0000";
layers = (
{
layerId = UUID0;
paths = (
{
closed = 1;
nodes = (
"106 298 LINE SMOOTH",
"60 298 OFFCURVE",
"50 272 OFFCURVE",
"50 230 CURVE SMOOTH",
"50 58 LINE SMOOTH",
"50 16 OFFCURVE",
"60 -8 OFFCURVE",
"106 -8 CURVE SMOOTH",
"207 -8 LINE SMOOTH",
"475 -8 OFFCURVE",
"626 98 OFFCURVE",
"774 231 CURVE SMOOTH",
"854 303 OFFCURVE",
"926 391 OFFCURVE",
"926 478 CURVE SMOOTH",
"926 501 OFFCURVE",
"917 510 OFFCURVE",
"899 510 CURVE SMOOTH",
"877 510 OFFCURVE",
"847 491 OFFCURVE",
"796 458 CURVE SMOOTH",
"608 336 OFFCURVE",
"468 298 OFFCURVE",
"187 298 CURVE SMOOTH"
);
},
{
closed = 1;
nodes = (
"110 195 LINE SMOOTH",
"110 235 OFFCURVE",
"118 240 OFFCURVE",
"143 240 CURVE SMOOTH",
"184 240 LINE SMOOTH",
"447 240 OFFCURVE",
"633 282 OFFCURVE",
"813 410 CURVE SMOOTH",
"840 429 OFFCURVE",
"847 435 OFFCURVE",
"854 435 CURVE SMOOTH",
"860 435 OFFCURVE",
"863 432 OFFCURVE",
"863 427 CURVE SMOOTH",
"863 415 OFFCURVE",
"812 331 OFFCURVE",
"720 254 CURVE SMOOTH",
"571 129 OFFCURVE",
"441 50 OFFCURVE",
"211 50 CURVE SMOOTH",
"143 50 LINE SMOOTH",
"118 50 OFFCURVE",
"110 55 OFFCURVE",
"110 95 CURVE SMOOTH"
);
}
);
width = 976;
}
);
unicode = 1099C;
},
{
glyphname = u1099D;
lastChange = "2017-11-08 19:36:06 +0000";
layers = (
{
layerId = UUID0;
paths = (
{
closed = 1;
nodes = (
"798 397 OFFCURVE",
"749 422 OFFCURVE",
"701 449 CURVE SMOOTH",
"619 496 OFFCURVE",
"527 550 OFFCURVE",
"370 550 CURVE SMOOTH",
"280 550 OFFCURVE",
"193 525 OFFCURVE",
"128 491 CURVE",
"128 495 LINE SMOOTH",
"128 566 OFFCURVE",
"228 597 OFFCURVE",
"362 597 CURVE SMOOTH",
"472 597 OFFCURVE",
"551 563 OFFCURVE",
"636 528 CURVE SMOOTH",
"730 489 OFFCURVE",
"767 457 OFFCURVE",
"880 457 CURVE SMOOTH",
"898 457 OFFCURVE",
"909 470 OFFCURVE",
"909 487 CURVE SMOOTH",
"909 501 OFFCURVE",
"904 517 OFFCURVE",
"880 517 CURVE SMOOTH",
"775 517 OFFCURVE",
"732 547 OFFCURVE",
"650 582 CURVE SMOOTH",
"566 618 OFFCURVE",
"472 657 OFFCURVE",
"364 657 CURVE SMOOTH",
"217 657 OFFCURVE",
"70 610 OFFCURVE",
"70 511 CURVE SMOOTH",
"70 502 OFFCURVE",
"70 481 OFFCURVE",
"76 461 CURVE",
"48 441 OFFCURVE",
"28 420 OFFCURVE",
"17 401 CURVE",
"46 342 OFFCURVE",
"133 287 OFFCURVE",
"242 262 CURVE",
"241 171 OFFCURVE",
"230 80 OFFCURVE",
"228 3 CURVE SMOOTH",
"228 -13 OFFCURVE",
"240 -20 OFFCURVE",
"254 -20 CURVE SMOOTH",
"270 -20 OFFCURVE",
"287 -11 OFFCURVE",
"288 3 CURVE SMOOTH",
"293 60 OFFCURVE",
"298 151 OFFCURVE",
"301 251 CURVE",
"322 249 OFFCURVE",
"344 247 OFFCURVE",
"366 247 CURVE",
"465 99 OFFCURVE",
"610 -20 OFFCURVE",
"778 -20 CURVE SMOOTH",
"854 -20 OFFCURVE",
"881 26 OFFCURVE",
"881 66 CURVE SMOOTH",
"881 103 OFFCURVE",
"863 121 OFFCURVE",
"843 132 CURVE SMOOTH",
"828 140 OFFCURVE",
"817 143 OFFCURVE",
"808 143 CURVE SMOOTH",
"796 143 OFFCURVE",
"787 133 OFFCURVE",
"787 115 CURVE SMOOTH",
"787 101 OFFCURVE",
"796 98 OFFCURVE",
"804 94 CURVE SMOOTH",
"813 90 OFFCURVE",
"821 83 OFFCURVE",
"821 70 CURVE SMOOTH",
"821 55 OFFCURVE",
"810 40 OFFCURVE",
"776 40 CURVE SMOOTH",
"646 40 OFFCURVE",
"516 129 OFFCURVE",
"430 251 CURVE",
"544 268 OFFCURVE",
"661 326 OFFCURVE",
"711 382 CURVE",
"761 355 OFFCURVE",
"811 337 OFFCURVE",
"880 337 CURVE SMOOTH",
"898 337 OFFCURVE",
"908 355 OFFCURVE",
"908 370 CURVE SMOOTH",
"908 384 OFFCURVE",
"899 397 OFFCURVE",
"880 397 CURVE SMOOTH"
);
},
{
closed = 1;
nodes = (
"230 307 OFFCURVE",
"130 350 OFFCURVE",
"96 401 CURVE",
"119 432 OFFCURVE",
"177 466 OFFCURVE",
"259 482 CURVE",
"256 472 OFFCURVE",
"255 461 OFFCURVE",
"255 450 CURVE SMOOTH",
"255 388 OFFCURVE",
"296 336 OFFCURVE",
"369 336 CURVE SMOOTH",
"441 336 OFFCURVE",
"486 388 OFFCURVE",
"486 450 CURVE SMOOTH",
"486 461 OFFCURVE",
"484 472 OFFCURVE",
"481 483 CURVE",
"559 468 OFFCURVE",
"616 440 OFFCURVE",
"657 415 CURVE",
"608 360 OFFCURVE",
"488 307 OFFCURVE",
"370 307 CURVE SMOOTH"
);
},
{
closed = 1;
nodes = (
"388 493 OFFCURVE",
"406 492 OFFCURVE",
"423 491 CURVE",
"428 480 OFFCURVE",
"431 467 OFFCURVE",
"431 454 CURVE SMOOTH",
"431 412 OFFCURVE",
"411 385 OFFCURVE",
"370 385 CURVE SMOOTH",
"330 385 OFFCURVE",
"310 412 OFFCURVE",
"310 454 CURVE SMOOTH",
"310 467 OFFCURVE",
"312 479 OFFCURVE",
"317 490 CURVE",
"334 492 OFFCURVE",
"351 493 OFFCURVE",
"370 493 CURVE SMOOTH"
);
}
);
width = 930;
}
);
unicode = 1099D;
},
{
glyphname = u1099E;
lastChange = "2017-11-08 19:36:06 +0000";
layers = (
{
layerId = UUID0;
paths = (
{
closed = 1;
nodes = (
"234 306 LINE",
"234 9 LINE SMOOTH",
"234 -5 OFFCURVE",
"249 -12 OFFCURVE",
"264 -12 CURVE SMOOTH",
"279 -12 OFFCURVE",
"294 -5 OFFCURVE",
"294 9 CURVE SMOOTH",
"294 306 LINE",
"465 306 LINE SMOOTH",
"480 306 OFFCURVE",
"488 320 OFFCURVE",
"488 335 CURVE SMOOTH",
"488 349 OFFCURVE",
"480 364 OFFCURVE",
"465 364 CURVE SMOOTH",
"326 364 LINE",
"378 424 OFFCURVE",
"424 495 OFFCURVE",
"424 565 CURVE SMOOTH",
"424 654 OFFCURVE",
"360 720 OFFCURVE",
"265 720 CURVE SMOOTH",
"167 720 OFFCURVE",
"104 655 OFFCURVE",
"104 565 CURVE SMOOTH",
"104 495 OFFCURVE",
"149 424 OFFCURVE",
"200 364 CURVE",
"63 364 LINE SMOOTH",
"48 364 OFFCURVE",
"40 349 OFFCURVE",
"40 335 CURVE SMOOTH",
"40 320 OFFCURVE",
"48 306 OFFCURVE",
"63 306 CURVE"
);
},
{
closed = 1;
nodes = (
"363 494 OFFCURVE",
"314 427 OFFCURVE",
"265 377 CURVE",
"215 427 OFFCURVE",
"168 494 OFFCURVE",
"168 561 CURVE SMOOTH",
"168 627 OFFCURVE",
"216 660 OFFCURVE",
"264 660 CURVE SMOOTH",
"320 660 OFFCURVE",
"363 628 OFFCURVE",
"363 561 CURVE SMOOTH"
);
}
);
width = 528;
}
);
unicode = 1099E;
},
{
glyphname = u1099F;
lastChange = "2017-11-08 19:36:06 +0000";
layers = (
{
layerId = UUID0;
paths = (
{
closed = 1;
nodes = (
"575 734 OFFCURVE",
"510 792 OFFCURVE",
"421 792 CURVE SMOOTH",
"329 792 OFFCURVE",
"264 735 OFFCURVE",
"264 641 CURVE SMOOTH",
"264 590 OFFCURVE",
"298 505 OFFCURVE",
"333 447 CURVE",
"308 460 OFFCURVE",
"232 500 OFFCURVE",
"117 561 CURVE SMOOTH",
"103 568 OFFCURVE",
"91 575 OFFCURVE",
"79 575 CURVE SMOOTH",
"63 575 OFFCURVE",
"50 565 OFFCURVE",
"50 538 CURVE SMOOTH",
"50 225 LINE SMOOTH",
"50 208 OFFCURVE",
"60 194 OFFCURVE",
"79 194 CURVE SMOOTH",
"93 194 OFFCURVE",
"105 200 OFFCURVE",
"117 207 CURVE SMOOTH",
"339 325 LINE",
"347 316 OFFCURVE",
"357 308 OFFCURVE",
"367 301 CURVE",
"244 67 LINE SMOOTH",
"238 55 OFFCURVE",
"231 43 OFFCURVE",
"231 29 CURVE SMOOTH",
"231 10 OFFCURVE",
"245 0 OFFCURVE",
"262 0 CURVE SMOOTH",
"575 0 LINE SMOOTH",
"602 0 OFFCURVE",
"612 13 OFFCURVE",
"612 29 CURVE SMOOTH",
"612 41 OFFCURVE",
"606 51 OFFCURVE",
"599 65 CURVE SMOOTH",
"475 302 LINE",
"485 308 OFFCURVE",
"493 316 OFFCURVE",
"500 325 CURVE",
"722 207 LINE SMOOTH",
"734 200 OFFCURVE",
"746 194 OFFCURVE",
"760 194 CURVE SMOOTH",
"779 194 OFFCURVE",
"789 208 OFFCURVE",
"789 225 CURVE SMOOTH",
"789 538 LINE SMOOTH",
"789 565 OFFCURVE",
"776 575 OFFCURVE",
"760 575 CURVE SMOOTH",
"748 575 OFFCURVE",
"736 568 OFFCURVE",
"722 561 CURVE SMOOTH",
"507 447 LINE",
"542 506 OFFCURVE",
"575 590 OFFCURVE",
"575 641 CURVE SMOOTH"
);
},
{
closed = 1;
nodes = (
"328 703 OFFCURVE",
"365 733 OFFCURVE",
"418 733 CURVE SMOOTH",
"473 733 OFFCURVE",
"511 704 OFFCURVE",
"511 629 CURVE SMOOTH",
"511 583 OFFCURVE",
"488 530 OFFCURVE",
"462 486 CURVE",
"449 492 OFFCURVE",
"435 495 OFFCURVE",
"421 495 CURVE SMOOTH",
"405 495 OFFCURVE",
"390 491 OFFCURVE",
"376 485 CURVE",
"352 528 OFFCURVE",
"328 583 OFFCURVE",
"328 629 CURVE SMOOTH"
);
},
{
closed = 1;
nodes = (
"540 58 LINE",
"305 58 LINE",
"419 286 LINE",
"423 286 LINE"
);
},
{
closed = 1;
nodes = (
"315 390 LINE SMOOTH",
"315 384 OFFCURVE",
"316 378 OFFCURVE",
"317 372 CURVE",
"110 268 LINE",
"110 503 LINE",
"315 397 LINE"
);
},
{
closed = 1;
nodes = (
"524 389 OFFCURVE",
"523 394 OFFCURVE",
"522 397 CURVE",
"729 503 LINE",
"729 268 LINE",
"522 372 LINE",
"523 376 OFFCURVE",
"524 380 OFFCURVE",
"524 384 CURVE SMOOTH"
);
},
{
closed = 1;
nodes = (
"369 420 OFFCURVE",
"392 443 OFFCURVE",
"421 443 CURVE SMOOTH",
"451 443 OFFCURVE",
"474 420 OFFCURVE",
"474 390 CURVE SMOOTH",
"474 361 OFFCURVE",
"451 338 OFFCURVE",
"421 338 CURVE SMOOTH",
"392 338 OFFCURVE",
"369 361 OFFCURVE",
"369 390 CURVE SMOOTH"
);
}
);
width = 839;
}
);
unicode = 1099F;
},
{
glyphname = u10981.rev;
lastChange = "2017-11-08 19:36:06 +0000";
layers = (
{
layerId = UUID0;
paths = (
{
closed = 1;
nodes = (
"348 -12 OFFCURVE",
"363 -4 OFFCURVE",
"363 12 CURVE SMOOTH",
"363 652 LINE SMOOTH",
"363 774 OFFCURVE",
"309 830 OFFCURVE",
"226 830 CURVE SMOOTH",
"139 830 OFFCURVE",
"101 767 OFFCURVE",
"101 714 CURVE SMOOTH",
"101 679 OFFCURVE",
"111 657 OFFCURVE",
"123 637 CURVE SMOOTH",
"135 617 OFFCURVE",
"148 599 OFFCURVE",
"148 575 CURVE SMOOTH",
"148 550 OFFCURVE",
"132 511 OFFCURVE",
"117 476 CURVE SMOOTH",
"79 388 LINE SMOOTH",
"62 350 OFFCURVE",
"40 299 OFFCURVE",
"40 267 CURVE SMOOTH",
"40 224 OFFCURVE",
"84 208 OFFCURVE",
"140 186 CURVE SMOOTH",
"194 165 OFFCURVE",
"258 138 OFFCURVE",
"303 75 CURVE",
"303 12 LINE SMOOTH",
"303 -4 OFFCURVE",
"318 -12 OFFCURVE",
"333 -12 CURVE SMOOTH"
);
},
{
closed = 1;
nodes = (
"135 255 OFFCURVE",
"104 271 OFFCURVE",
"104 286 CURVE SMOOTH",
"104 304 OFFCURVE",
"116 332 OFFCURVE",
"143 396 CURVE SMOOTH",
"169 457 LINE SMOOTH",
"193 512 OFFCURVE",
"208 545 OFFCURVE",
"208 575 CURVE SMOOTH",
"208 603 OFFCURVE",
"193 627 OFFCURVE",
"181 647 CURVE SMOOTH",
"170 665 OFFCURVE",
"161 681 OFFCURVE",
"161 704 CURVE SMOOTH",
"161 743 OFFCURVE",
"180 770 OFFCURVE",
"226 770 CURVE SMOOTH",
"277 770 OFFCURVE",
"303 735 OFFCURVE",
"303 641 CURVE SMOOTH",
"303 153 LINE",
"265 195 OFFCURVE",
"216 224 OFFCURVE",
"164 244 CURVE SMOOTH"
);
}
);
width = 463;
}
);
},
{
glyphname = u109A0;
lastChange = "2017-11-08 19:36:06 +0000";
layers = (
{
layerId = UUID0;
paths = (
{
closed = 1;
nodes = (
"274 -20 OFFCURVE",
"392 73 OFFCURVE",
"392 250 CURVE SMOOTH",
"392 265 OFFCURVE",
"388 315 OFFCURVE",
"371 330 CURVE",
"292 336 LINE SMOOTH",
"191 344 OFFCURVE",
"145 390 OFFCURVE",
"145 455 CURVE SMOOTH",
"145 520 OFFCURVE",
"201 562 OFFCURVE",
"283 562 CURVE SMOOTH",
"349 562 OFFCURVE",
"361 555 OFFCURVE",
"381 552 CURVE SMOOTH",
"386 551 OFFCURVE",
"391 550 OFFCURVE",
"395 550 CURVE SMOOTH",
"413 550 OFFCURVE",
"425 571 OFFCURVE",
"425 589 CURVE SMOOTH",
"425 602 OFFCURVE",
"419 613 OFFCURVE",
"407 615 CURVE SMOOTH",
"391 618 OFFCURVE",
"343 630 OFFCURVE",
"274 630 CURVE SMOOTH",
"143 630 OFFCURVE",
"73 555 OFFCURVE",
"73 452 CURVE SMOOTH",
"73 310 OFFCURVE",
"201 277 OFFCURVE",
"318 268 CURVE",
"319 257 OFFCURVE",
"320 246 OFFCURVE",
"320 236 CURVE SMOOTH",
"320 82 OFFCURVE",
"188 48 OFFCURVE",
"85 48 CURVE SMOOTH",
"59 48 OFFCURVE",
"44 52 OFFCURVE",
"28 52 CURVE SMOOTH",
"12 52 OFFCURVE",
"10 34 OFFCURVE",
"10 10 CURVE SMOOTH",
"10 -16 OFFCURVE",
"27 -20 OFFCURVE",
"85 -20 CURVE SMOOTH"
);
},
{
closed = 1;
nodes = (
"784 -30 OFFCURVE",
"733 -14 OFFCURVE",
"694 5 CURVE SMOOTH",
"643 30 OFFCURVE",
"612 62 OFFCURVE",
"541 68 CURVE",
"660 163 OFFCURVE",
"795 293 OFFCURVE",
"795 455 CURVE SMOOTH",
"795 550 OFFCURVE",
"746 630 OFFCURVE",
"627 630 CURVE SMOOTH",
"574 630 OFFCURVE",
"530 613 OFFCURVE",
"503 596 CURVE SMOOTH",
"495 591 OFFCURVE",
"492 584 OFFCURVE",
"492 575 CURVE SMOOTH",
"492 557 OFFCURVE",
"507 535 OFFCURVE",
"523 535 CURVE SMOOTH",
"526 535 OFFCURVE",
"529 536 OFFCURVE",
"532 538 CURVE SMOOTH",
"558 553 OFFCURVE",
"585 562 OFFCURVE",
"621 562 CURVE SMOOTH",
"701 562 OFFCURVE",
"723 515 OFFCURVE",
"723 455 CURVE SMOOTH",
"723 285 OFFCURVE",
"542 147 OFFCURVE",
"477 85 CURVE SMOOTH",
"458 67 OFFCURVE",
"449 55 OFFCURVE",
"449 41 CURVE SMOOTH",
"449 32 OFFCURVE",
"450 10 OFFCURVE",
"463 10 CURVE SMOOTH",
"470 10 OFFCURVE",
"474 11 OFFCURVE",
"480 11 CURVE SMOOTH",
"577 11 OFFCURVE",
"617 -19 OFFCURVE",
"664 -48 CURVE SMOOTH",
"707 -74 OFFCURVE",
"755 -98 OFFCURVE",
"854 -98 CURVE SMOOTH",
"880 -98 OFFCURVE",
"891 -78 OFFCURVE",
"891 -59 CURVE SMOOTH",
"891 -44 OFFCURVE",
"884 -30 OFFCURVE",
"872 -30 CURVE SMOOTH"
);
}
);
width = 871;
}
);
unicode = 109A0;
},
{
glyphname = u109A1;
lastChange = "2017-11-08 19:36:06 +0000";
layers = (
{
layerId = UUID0;
paths = (
{
closed = 1;
nodes = (
"274 -20 OFFCURVE",
"392 73 OFFCURVE",
"392 250 CURVE SMOOTH",
"392 265 OFFCURVE",
"388 315 OFFCURVE",
"371 330 CURVE",
"292 336 LINE SMOOTH",
"191 344 OFFCURVE",
"145 390 OFFCURVE",
"145 455 CURVE SMOOTH",
"145 520 OFFCURVE",
"201 562 OFFCURVE",
"283 562 CURVE SMOOTH",
"349 562 OFFCURVE",
"361 555 OFFCURVE",
"381 552 CURVE SMOOTH",
"386 551 OFFCURVE",
"391 550 OFFCURVE",
"395 550 CURVE SMOOTH",
"413 550 OFFCURVE",
"425 571 OFFCURVE",
"425 589 CURVE SMOOTH",
"425 602 OFFCURVE",
"419 613 OFFCURVE",
"407 615 CURVE SMOOTH",
"391 618 OFFCURVE",
"343 630 OFFCURVE",
"274 630 CURVE SMOOTH",
"143 630 OFFCURVE",
"73 555 OFFCURVE",
"73 452 CURVE SMOOTH",
"73 310 OFFCURVE",
"201 277 OFFCURVE",
"318 268 CURVE",
"319 257 OFFCURVE",
"320 246 OFFCURVE",
"320 236 CURVE SMOOTH",
"320 82 OFFCURVE",
"188 48 OFFCURVE",
"85 48 CURVE SMOOTH",
"59 48 OFFCURVE",
"44 52 OFFCURVE",
"28 52 CURVE SMOOTH",
"12 52 OFFCURVE",
"10 34 OFFCURVE",
"10 10 CURVE SMOOTH",
"10 -16 OFFCURVE",
"27 -20 OFFCURVE",
"85 -20 CURVE SMOOTH"
);
}
);
width = 455;
}
);
unicode = 109A1;
},
{
glyphname = u109A2;
lastChange = "2017-11-08 19:36:06 +0000";
layers = (
{
layerId = UUID0;
paths = (
{
closed = 1;
nodes = (
"69 444 OFFCURVE",
"44 400 OFFCURVE",
"23 345 CURVE SMOOTH",
"20 338 OFFCURVE",
"20 333 OFFCURVE",
"20 328 CURVE SMOOTH",
"20 310 OFFCURVE",
"32 305 OFFCURVE",
"65 305 CURVE SMOOTH",
"291 305 LINE",
"226 4 LINE SMOOTH",
"223 -12 OFFCURVE",
"218 -29 OFFCURVE",
"218 -43 CURVE SMOOTH",
"218 -60 OFFCURVE",
"224 -70 OFFCURVE",
"244 -70 CURVE SMOOTH",
"281 -70 OFFCURVE",
"282 -55 OFFCURVE",
"292 -9 CURVE SMOOTH",
"361 305 LINE",
"509 305 LINE SMOOTH",
"533 305 OFFCURVE",
"538 315 OFFCURVE",
"544 342 CURVE SMOOTH",
"545 348 OFFCURVE",
"546 352 OFFCURVE",
"546 356 CURVE SMOOTH",
"546 371 OFFCURVE",
"535 373 OFFCURVE",
"517 373 CURVE SMOOTH",
"375 373 LINE",
"433 646 LINE SMOOTH",
"436 662 OFFCURVE",
"441 679 OFFCURVE",
"441 693 CURVE SMOOTH",
"441 710 OFFCURVE",
"435 720 OFFCURVE",
"415 720 CURVE SMOOTH",
"377 720 OFFCURVE",
"377 704 OFFCURVE",
"366 655 CURVE SMOOTH",
"305 373 LINE",
"102 373 LINE",
"130 434 OFFCURVE",
"145 504 OFFCURVE",
"154 572 CURVE SMOOTH",
"155 582 OFFCURVE",
"156 591 OFFCURVE",
"156 598 CURVE SMOOTH",
"156 620 OFFCURVE",
"149 626 OFFCURVE",
"126 626 CURVE SMOOTH",
"91 626 OFFCURVE",
"89 605 OFFCURVE",
"85 572 CURVE SMOOTH"
);
}
);
width = 504;
}
);
unicode = 109A2;
},
{
glyphname = u109A3;
lastChange = "2017-11-08 19:36:06 +0000";
layers = (
{
layerId = UUID0;
paths = (
{
closed = 1;
nodes = (
"270 544 LINE SMOOTH",
"274 560 OFFCURVE",
"278 577 OFFCURVE",
"278 591 CURVE SMOOTH",
"278 608 OFFCURVE",
"272 618 OFFCURVE",
"252 618 CURVE SMOOTH",
"214 618 OFFCURVE",
"214 603 OFFCURVE",
"202 548 CURVE SMOOTH",
"98 74 LINE SMOOTH",
"94 58 OFFCURVE",
"90 41 OFFCURVE",
"90 27 CURVE SMOOTH",
"90 10 OFFCURVE",
"96 0 OFFCURVE",
"116 0 CURVE SMOOTH",
"154 0 OFFCURVE",
"153 13 OFFCURVE",
"166 70 CURVE SMOOTH"
);
}
);
width = 348;
}
);
unicode = 109A3;
},
{
glyphname = u109A4;
lastChange = "2017-11-08 19:36:06 +0000";
layers = (
{
layerId = UUID0;
paths = (
{
closed = 1;
nodes = (
"240 544 LINE SMOOTH",
"244 560 OFFCURVE",
"248 577 OFFCURVE",
"248 591 CURVE SMOOTH",
"248 608 OFFCURVE",
"242 618 OFFCURVE",
"222 618 CURVE SMOOTH",
"184 618 OFFCURVE",
"184 603 OFFCURVE",
"172 548 CURVE SMOOTH",
"68 74 LINE SMOOTH",
"64 58 OFFCURVE",
"60 41 OFFCURVE",
"60 27 CURVE SMOOTH",
"60 10 OFFCURVE",
"66 0 OFFCURVE",
"86 0 CURVE SMOOTH",
"124 0 OFFCURVE",
"123 13 OFFCURVE",
"136 70 CURVE SMOOTH"
);
},
{
closed = 1;
nodes = (
"640 544 LINE SMOOTH",
"644 560 OFFCURVE",
"648 577 OFFCURVE",
"648 591 CURVE SMOOTH",
"648 608 OFFCURVE",
"642 618 OFFCURVE",
"622 618 CURVE SMOOTH",
"584 618 OFFCURVE",
"584 603 OFFCURVE",
"572 548 CURVE SMOOTH",
"468 74 LINE SMOOTH",
"464 58 OFFCURVE",
"460 41 OFFCURVE",
"460 27 CURVE SMOOTH",
"460 10 OFFCURVE",
"466 0 OFFCURVE",
"486 0 CURVE SMOOTH",
"524 0 OFFCURVE",
"523 13 OFFCURVE",
"536 70 CURVE SMOOTH"
);
},
{
closed = 1;
nodes = (
"440 544 LINE SMOOTH",
"444 560 OFFCURVE",
"448 577 OFFCURVE",
"448 591 CURVE SMOOTH",
"448 608 OFFCURVE",
"442 618 OFFCURVE",
"422 618 CURVE SMOOTH",
"384 618 OFFCURVE",
"384 603 OFFCURVE",
"372 548 CURVE SMOOTH",
"268 74 LINE SMOOTH",
"264 58 OFFCURVE",
"260 41 OFFCURVE",
"260 27 CURVE SMOOTH",
"260 10 OFFCURVE",
"266 0 OFFCURVE",
"286 0 CURVE SMOOTH",
"324 0 OFFCURVE",
"323 13 OFFCURVE",
"336 70 CURVE SMOOTH"
);
},
{
closed = 1;
nodes = (
"240 544 LINE SMOOTH",
"244 560 OFFCURVE",
"248 577 OFFCURVE",
"248 591 CURVE SMOOTH",
"248 608 OFFCURVE",
"242 618 OFFCURVE",
"222 618 CURVE SMOOTH",
"217 618 OFFCURVE",
"210 618 OFFCURVE",
"203 616 CURVE SMOOTH",
"187 612 OFFCURVE",
"184 602 OFFCURVE",
"172 549 CURVE SMOOTH",
"68 74 LINE SMOOTH",
"64 58 OFFCURVE",
"60 41 OFFCURVE",
"60 27 CURVE SMOOTH",
"60 10 OFFCURVE",
"66 0 OFFCURVE",
"86 0 CURVE SMOOTH",
"91 0 OFFCURVE",
"98 0 OFFCURVE",
"105 2 CURVE SMOOTH",
"121 6 OFFCURVE",
"124 16 OFFCURVE",
"136 69 CURVE SMOOTH"
);
},
{
closed = 1;
nodes = (
"440 544 LINE SMOOTH",
"444 560 OFFCURVE",
"448 577 OFFCURVE",
"448 591 CURVE SMOOTH",
"448 608 OFFCURVE",
"442 618 OFFCURVE",
"422 618 CURVE SMOOTH",
"417 618 OFFCURVE",
"410 618 OFFCURVE",
"403 616 CURVE SMOOTH",
"387 612 OFFCURVE",
"384 602 OFFCURVE",
"372 549 CURVE SMOOTH",
"268 74 LINE SMOOTH",
"264 58 OFFCURVE",
"260 41 OFFCURVE",
"260 27 CURVE SMOOTH",
"260 10 OFFCURVE",
"266 0 OFFCURVE",
"286 0 CURVE SMOOTH",
"291 0 OFFCURVE",
"298 0 OFFCURVE",
"305 2 CURVE SMOOTH",
"321 6 OFFCURVE",
"324 16 OFFCURVE",
"336 69 CURVE SMOOTH"
);
},
{
closed = 1;
nodes = (
"640 544 LINE SMOOTH",
"644 560 OFFCURVE",
"648 577 OFFCURVE",
"648 591 CURVE SMOOTH",
"648 608 OFFCURVE",
"642 618 OFFCURVE",
"622 618 CURVE SMOOTH",
"617 618 OFFCURVE",
"610 618 OFFCURVE",
"603 616 CURVE SMOOTH",
"587 612 OFFCURVE",
"584 602 OFFCURVE",
"572 549 CURVE SMOOTH",
"468 74 LINE SMOOTH",
"464 58 OFFCURVE",
"460 41 OFFCURVE",
"460 27 CURVE SMOOTH",
"460 10 OFFCURVE",
"466 0 OFFCURVE",
"486 0 CURVE SMOOTH",
"491 0 OFFCURVE",
"498 0 OFFCURVE",
"505 2 CURVE SMOOTH",
"521 6 OFFCURVE",
"524 16 OFFCURVE",
"536 69 CURVE SMOOTH"
);
}
);
width = 698;
}
);
unicode = 109A4;
},
{
glyphname = u109A5;
lastChange = "2017-11-08 19:36:06 +0000";
layers = (
{
layerId = UUID0;
paths = (
{
closed = 1;
nodes = (
"227 602 OFFCURVE",
"237 563 OFFCURVE",
"237 536 CURVE SMOOTH",
"237 473 OFFCURVE",
"183 438 OFFCURVE",
"120 374 CURVE SMOOTH",
"77 330 OFFCURVE",
"20 267 OFFCURVE",
"20 170 CURVE SMOOTH",
"20 59 OFFCURVE",
"99 -10 OFFCURVE",
"208 -10 CURVE SMOOTH",
"374 -10 OFFCURVE",
"427 109 OFFCURVE",
"427 223 CURVE SMOOTH",
"427 333 OFFCURVE",
"356 413 OFFCURVE",
"282 457 CURVE",
"298 483 OFFCURVE",
"309 511 OFFCURVE",
"309 541 CURVE SMOOTH",
"309 584 OFFCURVE",
"291 634 OFFCURVE",
"238 679 CURVE SMOOTH",
"220 694 OFFCURVE",
"208 700 OFFCURVE",
"203 700 CURVE SMOOTH",
"178 700 OFFCURVE",
"163 684 OFFCURVE",
"163 666 CURVE SMOOTH",
"163 652 OFFCURVE",
"175 642 OFFCURVE",
"192 629 CURVE SMOOTH"
);
},
{
closed = 1;
nodes = (
"355 149 OFFCURVE",
"325 58 OFFCURVE",
"211 58 CURVE SMOOTH",
"136 58 OFFCURVE",
"92 99 OFFCURVE",
"92 174 CURVE SMOOTH",
"92 236 OFFCURVE",
"122 287 OFFCURVE",
"159 325 CURVE SMOOTH",
"185 351 OFFCURVE",
"215 378 OFFCURVE",
"242 406 CURVE",
"298 371 OFFCURVE",
"355 310 OFFCURVE",
"355 221 CURVE SMOOTH"
);
}
);
width = 477;
}
);
unicode = 109A5;
},
{
glyphname = u109A6;
lastChange = "2017-11-08 19:36:06 +0000";
layers = (
{
layerId = UUID0;
paths = (
{
closed = 1;
nodes = (
"193 506 LINE SMOOTH",
"197 522 OFFCURVE",
"201 539 OFFCURVE",
"201 553 CURVE SMOOTH",
"201 570 OFFCURVE",
"195 580 OFFCURVE",
"175 580 CURVE SMOOTH",
"170 580 OFFCURVE",
"163 580 OFFCURVE",
"156 578 CURVE SMOOTH",
"140 574 OFFCURVE",
"137 564 OFFCURVE",
"125 511 CURVE SMOOTH",
"28 74 LINE SMOOTH",
"24 58 OFFCURVE",
"20 41 OFFCURVE",
"20 27 CURVE SMOOTH",
"20 10 OFFCURVE",
"26 0 OFFCURVE",
"46 0 CURVE SMOOTH",
"61 0 OFFCURVE",
"73 2 OFFCURVE",
"79 11 CURVE SMOOTH",
"92 30 OFFCURVE",
"109 42 OFFCURVE",
"128 53 CURVE SMOOTH",
"195 92 OFFCURVE",
"292 115 OFFCURVE",
"384 318 CURVE SMOOTH",
"419 395 OFFCURVE",
"469 521 OFFCURVE",
"469 561 CURVE SMOOTH",
"469 573 OFFCURVE",
"459 580 OFFCURVE",
"439 580 CURVE SMOOTH",
"409 580 OFFCURVE",
"403 563 OFFCURVE",
"395 537 CURVE SMOOTH",
"382 495 OFFCURVE",
"353 417 OFFCURVE",
"321 339 CURVE SMOOTH",
"263 198 OFFCURVE",
"204 164 OFFCURVE",
"149 134 CURVE SMOOTH",
"134 126 OFFCURVE",
"119 117 OFFCURVE",
"104 106 CURVE"
);
}
);
width = 479;
}
);
unicode = 109A6;
},
{
glyphname = u109A7;
lastChange = "2017-11-08 19:36:06 +0000";
layers = (
{
layerId = UUID0;
paths = (
{
closed = 1;
nodes = (
"357 -25 OFFCURVE",
"303 6 OFFCURVE",
"251 39 CURVE SMOOTH",
"213 63 OFFCURVE",
"176 89 OFFCURVE",
"133 106 CURVE",
"218 160 OFFCURVE",
"276 255 OFFCURVE",
"276 335 CURVE SMOOTH",
"276 393 OFFCURVE",
"243 445 OFFCURVE",
"180 471 CURVE",
"242 502 OFFCURVE",
"311 548 OFFCURVE",
"353 607 CURVE SMOOTH",
"357 612 OFFCURVE",
"361 620 OFFCURVE",
"361 624 CURVE SMOOTH",
"361 646 OFFCURVE",
"345 660 OFFCURVE",
"319 660 CURVE SMOOTH",
"313 660 OFFCURVE",
"303 651 OFFCURVE",
"298 646 CURVE SMOOTH",
"233 572 OFFCURVE",
"138 519 OFFCURVE",
"72 491 CURVE",
"60 488 OFFCURVE",
"54 474 OFFCURVE",
"54 460 CURVE SMOOTH",
"54 438 OFFCURVE",
"62 429 OFFCURVE",
"72 429 CURVE SMOOTH",
"161 429 OFFCURVE",
"204 392 OFFCURVE",
"204 334 CURVE SMOOTH",
"204 241 OFFCURVE",
"125 177 OFFCURVE",
"47 138 CURVE SMOOTH",
"30 130 OFFCURVE",
"20 119 OFFCURVE",
"20 104 CURVE SMOOTH",
"20 99 OFFCURVE",
"20 69 OFFCURVE",
"40 69 CURVE",
"103 60 OFFCURVE",
"156 23 OFFCURVE",
"211 -14 CURVE SMOOTH",
"271 -54 OFFCURVE",
"334 -93 OFFCURVE",
"415 -93 CURVE SMOOTH",
"441 -93 OFFCURVE",
"452 -73 OFFCURVE",
"452 -54 CURVE SMOOTH",
"452 -39 OFFCURVE",
"445 -25 OFFCURVE",
"433 -25 CURVE SMOOTH"
);
}
);
width = 432;
}
);
unicode = 109A7;
},
{
glyphname = u109A8;
lastChange = "2017-11-08 19:36:06 +0000";
layers = (
{
layerId = UUID0;
paths = (
{
closed = 1;
nodes = (
"252 442 OFFCURVE",
"248 396 OFFCURVE",
"241 350 CURVE",
"165 371 LINE SMOOTH",
"160 372 OFFCURVE",
"155 373 OFFCURVE",
"151 373 CURVE SMOOTH",
"125 373 OFFCURVE",
"117 349 OFFCURVE",
"117 331 CURVE SMOOTH",
"117 321 OFFCURVE",
"123 312 OFFCURVE",
"140 307 CURVE SMOOTH",
"228 283 LINE",
"197 158 OFFCURVE",
"136 46 OFFCURVE",
"36 -3 CURVE SMOOTH",
"25 -8 OFFCURVE",
"20 -18 OFFCURVE",
"20 -30 CURVE SMOOTH",
"20 -49 OFFCURVE",
"32 -71 OFFCURVE",
"49 -71 CURVE SMOOTH",
"56 -71 OFFCURVE",
"73 -61 OFFCURVE",
"83 -55 CURVE SMOOTH",
"250 47 OFFCURVE",
"324 265 OFFCURVE",
"324 481 CURVE SMOOTH",
"324 540 OFFCURVE",
"321 591 OFFCURVE",
"310 634 CURVE SMOOTH",
"306 649 OFFCURVE",
"286 659 OFFCURVE",
"269 659 CURVE SMOOTH",
"251 659 OFFCURVE",
"240 653 OFFCURVE",
"240 643 CURVE SMOOTH",
"240 631 OFFCURVE",
"252 555 OFFCURVE",
"252 487 CURVE SMOOTH"
);
}
);
width = 374;
}
);
unicode = 109A8;
},
{
glyphname = u109A9;
lastChange = "2017-11-08 19:36:06 +0000";
layers = (
{
layerId = UUID0;
paths = (
{
closed = 1;
nodes = (
"390 308 OFFCURVE",
"420 279 OFFCURVE",
"420 243 CURVE SMOOTH",
"420 144 OFFCURVE",
"333 72 OFFCURVE",
"243 56 CURVE SMOOTH",
"234 54 OFFCURVE",
"231 51 OFFCURVE",
"229 45 CURVE SMOOTH",
"227 41 OFFCURVE",
"225 30 OFFCURVE",
"225 20 CURVE SMOOTH",
"225 7 OFFCURVE",
"229 -5 OFFCURVE",
"241 -8 CURVE SMOOTH",
"362 -38 OFFCURVE",
"398 -154 OFFCURVE",
"597 -154 CURVE SMOOTH",
"623 -154 OFFCURVE",
"634 -134 OFFCURVE",
"634 -115 CURVE SMOOTH",
"634 -100 OFFCURVE",
"627 -86 OFFCURVE",
"615 -86 CURVE SMOOTH",
"534 -86 OFFCURVE",
"483 -69 OFFCURVE",
"441 -46 CURVE SMOOTH",
"401 -24 OFFCURVE",
"369 3 OFFCURVE",
"329 24 CURVE",
"446 82 OFFCURVE",
"492 177 OFFCURVE",
"492 246 CURVE SMOOTH",
"492 297 OFFCURVE",
"463 334 OFFCURVE",
"396 349 CURVE",
"456 382 OFFCURVE",
"494 430 OFFCURVE",
"494 499 CURVE SMOOTH",
"494 575 OFFCURVE",
"444 630 OFFCURVE",
"351 630 CURVE SMOOTH",
"299 630 OFFCURVE",
"195 614 OFFCURVE",
"163 472 CURVE SMOOTH",
"58 4 LINE SMOOTH",
"54 -12 OFFCURVE",
"50 -29 OFFCURVE",
"50 -43 CURVE SMOOTH",
"50 -60 OFFCURVE",
"56 -70 OFFCURVE",
"76 -70 CURVE SMOOTH",
"114 -70 OFFCURVE",
"113 -58 OFFCURVE",
"125 -5 CURVE SMOOTH",
"230 458 LINE SMOOTH",
"248 539 OFFCURVE",
"302 562 OFFCURVE",
"349 562 CURVE SMOOTH",
"395 562 OFFCURVE",
"422 533 OFFCURVE",
"422 497 CURVE SMOOTH",
"422 435 OFFCURVE",
"360 379 OFFCURVE",
"305 364 CURVE SMOOTH",
"292 360 OFFCURVE",
"284 352 OFFCURVE",
"284 332 CURVE SMOOTH",
"284 322 OFFCURVE",
"287 308 OFFCURVE",
"297 308 CURVE SMOOTH"
);
}
);
width = 584;
}
);
unicode = 109A9;
},
{
glyphname = u109AA;
lastChange = "2017-11-08 19:36:06 +0000";
layers = (
{
layerId = UUID0;
paths = (
{
closed = 1;
nodes = (
"3 115 OFFCURVE",
"-20 105 OFFCURVE",
"-20 83 CURVE SMOOTH",
"-20 67 OFFCURVE",
"-4 54 OFFCURVE",
"12 54 CURVE SMOOTH",
"36 54 OFFCURVE",
"55 78 OFFCURVE",
"74 97 CURVE SMOOTH",
"133 156 OFFCURVE",
"185 219 OFFCURVE",
"230 282 CURVE",
"289 144 OFFCURVE",
"374 12 OFFCURVE",
"493 -79 CURVE SMOOTH",
"515 -96 OFFCURVE",
"538 -112 OFFCURVE",
"560 -112 CURVE SMOOTH",
"576 -112 OFFCURVE",
"587 -87 OFFCURVE",
"587 -73 CURVE SMOOTH",
"587 -52 OFFCURVE",
"551 -35 OFFCURVE",
"540 -26 CURVE SMOOTH",
"433 55 OFFCURVE",
"343 183 OFFCURVE",
"276 350 CURVE",
"314 410 OFFCURVE",
"347 470 OFFCURVE",
"374 528 CURVE SMOOTH",
"379 539 OFFCURVE",
"383 548 OFFCURVE",
"383 557 CURVE SMOOTH",
"383 570 OFFCURVE",
"373 581 OFFCURVE",
"342 586 CURVE SMOOTH",
"203 610 LINE SMOOTH",
"195 611 OFFCURVE",
"186 613 OFFCURVE",
"179 613 CURVE SMOOTH",
"160 613 OFFCURVE",
"141 603 OFFCURVE",
"141 578 CURVE SMOOTH",
"141 573 OFFCURVE",
"144 557 OFFCURVE",
"145 551 CURVE SMOOTH",
"159 487 OFFCURVE",
"178 420 OFFCURVE",
"202 353 CURVE",
"152 278 OFFCURVE",
"93 205 OFFCURVE",
"27 139 CURVE SMOOTH"
);
},
{
closed = 1;
nodes = (
"235 463 OFFCURVE",
"223 503 OFFCURVE",
"212 545 CURVE",
"302 528 LINE",
"286 494 OFFCURVE",
"268 460 OFFCURVE",
"248 425 CURVE"
);
}
);
width = 537;
}
);
unicode = 109AA;
},
{
glyphname = u109AB;
lastChange = "2017-11-08 19:36:06 +0000";
layers = (
{
layerId = UUID0;
paths = (
{
closed = 1;
nodes = (
"307 352 OFFCURVE",
"311 259 OFFCURVE",
"196 259 CURVE SMOOTH",
"147 259 OFFCURVE",
"123 298 OFFCURVE",
"123 360 CURVE SMOOTH",
"123 398 OFFCURVE",
"128 427 OFFCURVE",
"137 455 CURVE SMOOTH",
"141 469 OFFCURVE",
"145 487 OFFCURVE",
"145 492 CURVE SMOOTH",
"145 514 OFFCURVE",
"120 516 OFFCURVE",
"109 516 CURVE SMOOTH",
"98 516 OFFCURVE",
"79 511 OFFCURVE",
"71 485 CURVE SMOOTH",
"59 447 OFFCURVE",
"50 404 OFFCURVE",
"50 351 CURVE SMOOTH",
"50 262 OFFCURVE",
"82 190 OFFCURVE",
"191 190 CURVE SMOOTH",
"261 190 OFFCURVE",
"306 219 OFFCURVE",
"336 262 CURVE",
"359 215 OFFCURVE",
"404 189 OFFCURVE",
"468 189 CURVE SMOOTH",
"594 189 OFFCURVE",
"633 284 OFFCURVE",
"652 397 CURVE SMOOTH",
"654 411 OFFCURVE",
"666 468 OFFCURVE",
"666 490 CURVE SMOOTH",
"666 502 OFFCURVE",
"658 516 OFFCURVE",
"641 516 CURVE SMOOTH",
"600 516 OFFCURVE",
"594 498 OFFCURVE",
"590 475 CURVE SMOOTH",
"568 343 OFFCURVE",
"554 258 OFFCURVE",
"468 258 CURVE SMOOTH",
"405 258 OFFCURVE",
"388 301 OFFCURVE",
"388 350 CURVE SMOOTH",
"388 397 OFFCURVE",
"396 432 OFFCURVE",
"405 474 CURVE SMOOTH",
"406 478 OFFCURVE",
"409 491 OFFCURVE",
"409 496 CURVE SMOOTH",
"409 508 OFFCURVE",
"401 516 OFFCURVE",
"368 516 CURVE SMOOTH",
"346 516 OFFCURVE",
"340 506 OFFCURVE",
"335 481 CURVE SMOOTH"
);
}
);
width = 686;
}
);
unicode = 109AB;
},
{
glyphname = u109AC;
lastChange = "2017-11-08 19:36:06 +0000";
layers = (
{
layerId = UUID0;
paths = (
{
closed = 1;
nodes = (
"129 306 OFFCURVE",
"164 310 OFFCURVE",
"219 317 CURVE",
"73 41 LINE SMOOTH",
"65 25 OFFCURVE",
"61 14 OFFCURVE",
"61 6 CURVE SMOOTH",
"61 -11 OFFCURVE",
"86 -17 OFFCURVE",
"99 -17 CURVE SMOOTH",
"116 -17 OFFCURVE",
"124 -4 OFFCURVE",
"131 10 CURVE SMOOTH",
"286 305 LINE SMOOTH",
"295 322 OFFCURVE",
"301 337 OFFCURVE",
"301 351 CURVE SMOOTH",
"301 371 OFFCURVE",
"292 386 OFFCURVE",
"278 386 CURVE SMOOTH",
"256 386 OFFCURVE",
"178 375 OFFCURVE",
"114 373 CURVE",
"133 421 OFFCURVE",
"146 471 OFFCURVE",
"162 514 CURVE SMOOTH",
"170 536 OFFCURVE",
"177 561 OFFCURVE",
"177 570 CURVE SMOOTH",
"177 580 OFFCURVE",
"165 586 OFFCURVE",
"142 586 CURVE SMOOTH",
"116 586 OFFCURVE",
"108 562 OFFCURVE",
"104 550 CURVE SMOOTH",
"90 509 OFFCURVE",
"66 421 OFFCURVE",
"48 373 CURVE SMOOTH",
"45 365 OFFCURVE",
"40 350 OFFCURVE",
"40 338 CURVE SMOOTH",
"40 308 OFFCURVE",
"54 306 OFFCURVE",
"64 306 CURVE SMOOTH"
);
}
);
width = 331;
}
);
unicode = 109AC;
},
{
glyphname = u109AD;
lastChange = "2017-11-08 19:36:06 +0000";
layers = (
{
layerId = UUID0;
paths = (
{
closed = 1;
nodes = (
"444 439 OFFCURVE",
"254 439 CURVE SMOOTH",
"114 439 OFFCURVE",
"68 448 OFFCURVE",
"52 448 CURVE SMOOTH",
"35 448 OFFCURVE",
"30 427 OFFCURVE",
"30 398 CURVE SMOOTH",
"30 382 LINE SMOOTH",
"36 115 OFFCURVE",
"114 0 OFFCURVE",
"360 0 CURVE SMOOTH",
"458 0 OFFCURVE",
"569 29 OFFCURVE",
"640 54 CURVE SMOOTH",
"654 59 OFFCURVE",
"660 75 OFFCURVE",
"660 91 CURVE SMOOTH",
"660 108 OFFCURVE",
"653 122 OFFCURVE",
"642 122 CURVE SMOOTH",
"627 122 OFFCURVE",
"501 68 OFFCURVE",
"359 68 CURVE SMOOTH",
"177 68 OFFCURVE",
"100 148 OFFCURVE",
"94 376 CURVE",
"139 373 OFFCURVE",
"194 371 OFFCURVE",
"255 371 CURVE SMOOTH",
"369 371 OFFCURVE",
"506 387 OFFCURVE",
"562 401 CURVE SMOOTH",
"575 404 OFFCURVE",
"576 422 OFFCURVE",
"576 432 CURVE SMOOTH",
"576 450 OFFCURVE",
"569 466 OFFCURVE",
"554 466 CURVE SMOOTH",
"546 466 OFFCURVE"
);
}
);
width = 670;
}
);
unicode = 109AD;
},
{
glyphname = u109AE;
lastChange = "2017-11-08 19:36:06 +0000";
layers = (
{
layerId = UUID0;
paths = (
{
closed = 1;
nodes = (
"62 -140 OFFCURVE",
"110 -91 OFFCURVE",
"161 -42 CURVE SMOOTH",
"206 1 OFFCURVE",
"253 44 OFFCURVE",
"331 55 CURVE SMOOTH",
"339 56 OFFCURVE",
"343 72 OFFCURVE",
"343 84 CURVE SMOOTH",
"343 106 OFFCURVE",
"333 116 OFFCURVE",
"316 120 CURVE SMOOTH",
"228 141 OFFCURVE",
"162 217 OFFCURVE",
"162 320 CURVE SMOOTH",
"162 382 OFFCURVE",
"215 429 OFFCURVE",
"304 429 CURVE SMOOTH",
"314 429 OFFCURVE",
"322 442 OFFCURVE",
"322 456 CURVE SMOOTH",
"322 470 OFFCURVE",
"317 480 OFFCURVE",
"299 490 CURVE SMOOTH",
"226 530 OFFCURVE",
"183 583 OFFCURVE",
"149 642 CURVE SMOOTH",
"138 660 OFFCURVE",
"135 680 OFFCURVE",
"114 680 CURVE SMOOTH",
"98 680 OFFCURVE",
"72 670 OFFCURVE",
"72 649 CURVE SMOOTH",
"72 634 OFFCURVE",
"81 621 OFFCURVE",
"87 611 CURVE SMOOTH",
"116 561 OFFCURVE",
"164 510 OFFCURVE",
"211 476 CURVE",
"132 448 OFFCURVE",
"90 394 OFFCURVE",
"90 313 CURVE SMOOTH",
"90 205 OFFCURVE",
"144 135 OFFCURVE",
"221 88 CURVE",
"181 65 OFFCURVE",
"147 33 OFFCURVE",
"113 4 CURVE SMOOTH",
"70 -33 OFFCURVE",
"27 -66 OFFCURVE",
"-35 -74 CURVE SMOOTH",
"-52 -76 OFFCURVE",
"-60 -91 OFFCURVE",
"-60 -105 CURVE SMOOTH",
"-60 -123 OFFCURVE",
"-48 -140 OFFCURVE",
"-25 -140 CURVE SMOOTH"
);
}
);
width = 383;
}
);
unicode = 109AE;
},
{
glyphname = u109AF;
lastChange = "2017-11-08 19:36:06 +0000";
layers = (
{
layerId = UUID0;
paths = (
{
closed = 1;
nodes = (
"273 360 OFFCURVE",
"334 397 OFFCURVE",
"334 469 CURVE SMOOTH",
"334 520 OFFCURVE",
"292 590 OFFCURVE",
"139 614 CURVE SMOOTH",
"122 617 OFFCURVE",
"93 620 OFFCURVE",
"83 620 CURVE SMOOTH",
"62 620 OFFCURVE",
"49 604 OFFCURVE",
"49 586 CURVE SMOOTH",
"49 575 OFFCURVE",
"53 563 OFFCURVE",
"65 560 CURVE SMOOTH",
"82 556 OFFCURVE",
"98 556 OFFCURVE",
"113 554 CURVE SMOOTH",
"239 537 OFFCURVE",
"264 490 OFFCURVE",
"264 460 CURVE SMOOTH",
"264 402 OFFCURVE",
"167 375 OFFCURVE",
"115 372 CURVE SMOOTH",
"98 371 OFFCURVE",
"93 355 OFFCURVE",
"93 340 CURVE SMOOTH",
"93 330 OFFCURVE",
"96 320 OFFCURVE",
"103 317 CURVE SMOOTH",
"116 312 OFFCURVE",
"132 307 OFFCURVE",
"142 303 CURVE SMOOTH",
"218 276 OFFCURVE",
"230 242 OFFCURVE",
"230 212 CURVE SMOOTH",
"230 133 OFFCURVE",
"139 28 OFFCURVE",
"-56 -33 CURVE SMOOTH",
"-73 -38 OFFCURVE",
"-80 -49 OFFCURVE",
"-80 -61 CURVE SMOOTH",
"-80 -76 OFFCURVE",
"-67 -95 OFFCURVE",
"-47 -95 CURVE SMOOTH",
"-37 -95 OFFCURVE",
"-25 -92 OFFCURVE",
"-9 -86 CURVE SMOOTH",
"266 18 OFFCURVE",
"302 160 OFFCURVE",
"302 216 CURVE SMOOTH",
"302 271 OFFCURVE",
"259 312 OFFCURVE",
"206 339 CURVE"
);
}
);
width = 374;
}
);
unicode = 109AF;
},
{
glyphname = u109B0;
lastChange = "2017-11-08 19:36:06 +0000";
layers = (
{
layerId = UUID0;
paths = (
{
closed = 1;
nodes = (
"414 552 LINE SMOOTH",
"418 572 OFFCURVE",
"420 587 OFFCURVE",
"420 600 CURVE SMOOTH",
"420 644 OFFCURVE",
"390 649 OFFCURVE",
"288 649 CURVE SMOOTH",
"193 649 OFFCURVE",
"127 643 OFFCURVE",
"98 609 CURVE SMOOTH",
"60 565 OFFCURVE",
"40 454 OFFCURVE",
"40 399 CURVE SMOOTH",
"40 366 OFFCURVE",
"46 329 OFFCURVE",
"75 312 CURVE SMOOTH",
"98 299 OFFCURVE",
"142 297 OFFCURVE",
"180 297 CURVE SMOOTH",
"234 297 OFFCURVE",
"277 304 OFFCURVE",
"290 305 CURVE",
"240 78 LINE SMOOTH",
"236 62 OFFCURVE",
"232 41 OFFCURVE",
"232 27 CURVE SMOOTH",
"232 10 OFFCURVE",
"238 0 OFFCURVE",
"253 0 CURVE SMOOTH",
"295 0 OFFCURVE",
"295 12 OFFCURVE",
"307 65 CURVE SMOOTH"
);
},
{
closed = 1;
nodes = (
"306 379 LINE",
"268 371 OFFCURVE",
"238 366 OFFCURVE",
"193 366 CURVE SMOOTH",
"169 366 OFFCURVE",
"141 368 OFFCURVE",
"127 373 CURVE SMOOTH",
"118 376 OFFCURVE",
"112 386 OFFCURVE",
"112 401 CURVE SMOOTH",
"112 427 OFFCURVE",
"132 545 OFFCURVE",
"153 562 CURVE SMOOTH",
"173 578 OFFCURVE",
"200 581 OFFCURVE",
"270 581 CURVE SMOOTH",
"298 581 OFFCURVE",
"326 580 OFFCURVE",
"349 580 CURVE"
);
}
);
width = 450;
}
);
unicode = 109B0;
},
{
glyphname = u109B1;
lastChange = "2017-11-08 19:36:06 +0000";
layers = (
{
layerId = UUID0;
paths = (
{
closed = 1;
nodes = (
"850 544 LINE SMOOTH",
"854 560 OFFCURVE",
"858 577 OFFCURVE",
"858 591 CURVE SMOOTH",
"858 608 OFFCURVE",
"852 618 OFFCURVE",
"832 618 CURVE SMOOTH",
"794 618 OFFCURVE",
"794 603 OFFCURVE",
"782 548 CURVE SMOOTH",
"678 74 LINE SMOOTH",
"674 58 OFFCURVE",
"670 41 OFFCURVE",
"670 27 CURVE SMOOTH",
"670 10 OFFCURVE",
"676 0 OFFCURVE",
"696 0 CURVE SMOOTH",
"734 0 OFFCURVE",
"733 13 OFFCURVE",
"746 70 CURVE SMOOTH"
);
},
{
closed = 1;
nodes = (
"650 544 LINE SMOOTH",
"654 560 OFFCURVE",
"658 577 OFFCURVE",
"658 591 CURVE SMOOTH",
"658 608 OFFCURVE",
"652 618 OFFCURVE",
"632 618 CURVE SMOOTH",
"594 618 OFFCURVE",
"594 603 OFFCURVE",
"582 548 CURVE SMOOTH",
"478 74 LINE SMOOTH",
"474 58 OFFCURVE",
"470 41 OFFCURVE",
"470 27 CURVE SMOOTH",
"470 10 OFFCURVE",
"476 0 OFFCURVE",
"496 0 CURVE SMOOTH",
"534 0 OFFCURVE",
"533 13 OFFCURVE",
"546 70 CURVE SMOOTH"
);
},
{
closed = 1;
nodes = (
"146 179 OFFCURVE",
"119 327 OFFCURVE",
"104 465 CURVE SMOOTH",
"102 479 OFFCURVE",
"83 485 OFFCURVE",
"70 485 CURVE SMOOTH",
"50 485 OFFCURVE",
"30 472 OFFCURVE",
"30 457 CURVE SMOOTH",
"30 454 OFFCURVE",
"31 440 OFFCURVE",
"32 436 CURVE SMOOTH",
"51 303 OFFCURVE",
"62 228 OFFCURVE",
"98 85 CURVE SMOOTH",
"111 35 OFFCURVE",
"129 -5 OFFCURVE",
"152 -5 CURVE SMOOTH",
"166 -5 OFFCURVE",
"185 2 OFFCURVE",
"208 20 CURVE SMOOTH",
"235 41 OFFCURVE",
"258 66 OFFCURVE",
"280 92 CURVE SMOOTH",
"403 237 OFFCURVE",
"468 455 OFFCURVE",
"518 639 CURVE SMOOTH",
"519 642 OFFCURVE",
"522 655 OFFCURVE",
"522 657 CURVE SMOOTH",
"522 669 OFFCURVE",
"506 676 OFFCURVE",
"489 676 CURVE SMOOTH",
"470 676 OFFCURVE",
"452 668 OFFCURVE",
"447 649 CURVE SMOOTH",
"385 397 OFFCURVE",
"293 171 OFFCURVE",
"178 82 CURVE"
);
}
);
width = 908;
}
);
unicode = 109B1;
},
{
glyphname = u109B2;
lastChange = "2017-11-08 19:36:06 +0000";
layers = (
{
layerId = UUID0;
paths = (
{
closed = 1;
nodes = (
"272 360 OFFCURVE",
"333 397 OFFCURVE",
"333 469 CURVE SMOOTH",
"333 520 OFFCURVE",
"291 590 OFFCURVE",
"138 614 CURVE SMOOTH",
"121 617 OFFCURVE",
"92 620 OFFCURVE",
"82 620 CURVE SMOOTH",
"61 620 OFFCURVE",
"48 604 OFFCURVE",
"48 586 CURVE SMOOTH",
"48 575 OFFCURVE",
"52 563 OFFCURVE",
"64 560 CURVE SMOOTH",
"81 556 OFFCURVE",
"97 556 OFFCURVE",
"112 554 CURVE SMOOTH",
"238 537 OFFCURVE",
"263 490 OFFCURVE",
"263 460 CURVE SMOOTH",
"263 402 OFFCURVE",
"166 375 OFFCURVE",
"114 372 CURVE SMOOTH",
"97 371 OFFCURVE",
"92 355 OFFCURVE",
"92 340 CURVE SMOOTH",
"92 330 OFFCURVE",
"94 321 OFFCURVE",
"101 318 CURVE SMOOTH",
"114 312 OFFCURVE",
"126 311 OFFCURVE",
"136 307 CURVE SMOOTH",
"212 280 OFFCURVE",
"229 242 OFFCURVE",
"229 212 CURVE SMOOTH",
"229 133 OFFCURVE",
"124 67 OFFCURVE",
"23 44 CURVE SMOOTH",
"6 40 OFFCURVE",
"0 27 OFFCURVE",
"0 15 CURVE SMOOTH",
"0 0 OFFCURVE",
"7 -17 OFFCURVE",
"29 -19 CURVE SMOOTH",
"103 -26 OFFCURVE",
"168 -71 OFFCURVE",
"235 -113 CURVE SMOOTH",
"300 -154 OFFCURVE",
"367 -193 OFFCURVE",
"444 -193 CURVE SMOOTH",
"470 -193 OFFCURVE",
"481 -173 OFFCURVE",
"481 -154 CURVE SMOOTH",
"481 -139 OFFCURVE",
"474 -125 OFFCURVE",
"462 -125 CURVE SMOOTH",
"383 -125 OFFCURVE",
"328 -92 OFFCURVE",
"274 -57 CURVE SMOOTH",
"228 -27 OFFCURVE",
"184 3 OFFCURVE",
"127 18 CURVE",
"276 75 OFFCURVE",
"301 165 OFFCURVE",
"301 216 CURVE SMOOTH",
"301 271 OFFCURVE",
"258 312 OFFCURVE",
"205 339 CURVE"
);
}
);
width = 401;
}
);
unicode = 109B2;
},
{
glyphname = u109B3;
lastChange = "2017-11-08 19:36:06 +0000";
layers = (
{
layerId = UUID0;
paths = (
{
closed = 1;
nodes = (
"392 442 OFFCURVE",
"388 396 OFFCURVE",
"381 350 CURVE",
"305 371 LINE SMOOTH",
"300 372 OFFCURVE",
"295 373 OFFCURVE",
"291 373 CURVE SMOOTH",
"265 373 OFFCURVE",
"257 349 OFFCURVE",
"257 331 CURVE SMOOTH",
"257 321 OFFCURVE",
"264 312 OFFCURVE",
"281 307 CURVE SMOOTH",
"368 283 LINE",
"337 158 OFFCURVE",
"277 43 OFFCURVE",
"176 -3 CURVE SMOOTH",
"165 -8 OFFCURVE",
"160 -18 OFFCURVE",
"160 -30 CURVE SMOOTH",
"160 -49 OFFCURVE",
"172 -71 OFFCURVE",
"189 -71 CURVE SMOOTH",
"195 -71 OFFCURVE",
"213 -61 OFFCURVE",
"223 -55 CURVE SMOOTH",
"391 46 OFFCURVE",
"464 265 OFFCURVE",
"464 481 CURVE SMOOTH",
"464 540 OFFCURVE",
"464 582 OFFCURVE",
"450 634 CURVE SMOOTH",
"446 649 OFFCURVE",
"426 659 OFFCURVE",
"409 659 CURVE SMOOTH",
"391 659 OFFCURVE",
"380 653 OFFCURVE",
"380 643 CURVE SMOOTH",
"380 631 OFFCURVE",
"392 555 OFFCURVE",
"392 487 CURVE SMOOTH"
);
},
{
closed = 1;
nodes = (
"240 544 LINE SMOOTH",
"244 560 OFFCURVE",
"248 577 OFFCURVE",
"248 591 CURVE SMOOTH",
"248 608 OFFCURVE",
"242 618 OFFCURVE",
"222 618 CURVE SMOOTH",
"184 618 OFFCURVE",
"184 603 OFFCURVE",
"172 548 CURVE SMOOTH",
"68 74 LINE SMOOTH",
"64 58 OFFCURVE",
"60 41 OFFCURVE",
"60 27 CURVE SMOOTH",
"60 10 OFFCURVE",
"66 0 OFFCURVE",
"86 0 CURVE SMOOTH",
"124 0 OFFCURVE",
"123 13 OFFCURVE",
"136 70 CURVE SMOOTH"
);
}
);
width = 514;
}
);
unicode = 109B3;
},
{
glyphname = u109B4;
lastChange = "2017-11-08 19:36:06 +0000";
layers = (
{
layerId = UUID0;
paths = (
{
closed = 1;
nodes = (
"349 408 OFFCURVE",
"264 384 OFFCURVE",
"141 376 CURVE",
"166 458 OFFCURVE",
"197 591 OFFCURVE",
"197 601 CURVE SMOOTH",
"197 622 OFFCURVE",
"185 628 OFFCURVE",
"162 628 CURVE SMOOTH",
"136 628 OFFCURVE",
"128 604 OFFCURVE",
"126 592 CURVE SMOOTH",
"110 495 OFFCURVE",
"76 390 OFFCURVE",
"61 355 CURVE SMOOTH",
"59 349 OFFCURVE",
"57 342 OFFCURVE",
"57 335 CURVE SMOOTH",
"57 320 OFFCURVE",
"64 305 OFFCURVE",
"81 305 CURVE SMOOTH",
"149 305 OFFCURVE",
"258 323 OFFCURVE",
"336 339 CURVE",
"313 220 OFFCURVE",
"238 35 OFFCURVE",
"52 -91 CURVE SMOOTH",
"32 -104 OFFCURVE",
"17 -114 OFFCURVE",
"17 -138 CURVE SMOOTH",
"17 -146 OFFCURVE",
"22 -163 OFFCURVE",
"49 -163 CURVE SMOOTH",
"66 -163 OFFCURVE",
"94 -144 OFFCURVE",
"107 -134 CURVE SMOOTH",
"329 35 OFFCURVE",
"399 263 OFFCURVE",
"399 373 CURVE SMOOTH",
"399 393 OFFCURVE",
"390 408 OFFCURVE",
"376 408 CURVE SMOOTH"
);
},
{
closed = 1;
nodes = (
"191 240 OFFCURVE",
"167 253 OFFCURVE",
"140 253 CURVE SMOOTH",
"98 253 OFFCURVE",
"79 217 OFFCURVE",
"79 181 CURVE SMOOTH",
"79 146 OFFCURVE",
"100 131 OFFCURVE",
"128 131 CURVE SMOOTH",
"160 131 OFFCURVE",
"191 151 OFFCURVE",
"191 202 CURVE SMOOTH"
);
}
);
width = 429;
}
);
unicode = 109B4;
},
{
glyphname = u109B5;
lastChange = "2017-11-08 19:36:06 +0000";
layers = (
{
layerId = UUID0;
paths = (
{
closed = 1;
nodes = (
"500 544 LINE SMOOTH",
"503 560 OFFCURVE",
"508 582 OFFCURVE",
"508 591 CURVE SMOOTH",
"508 608 OFFCURVE",
"502 618 OFFCURVE",
"482 618 CURVE SMOOTH",
"444 618 OFFCURVE",
"444 603 OFFCURVE",
"432 548 CURVE SMOOTH",
"399 400 LINE",
"356 400 LINE",
"342 414 OFFCURVE",
"329 426 OFFCURVE",
"318 426 CURVE SMOOTH",
"307 426 OFFCURVE",
"298 415 OFFCURVE",
"286 386 CURVE SMOOTH",
"283 379 OFFCURVE",
"274 360 OFFCURVE",
"274 355 CURVE SMOOTH",
"274 337 OFFCURVE",
"286 332 OFFCURVE",
"319 332 CURVE SMOOTH",
"385 332 LINE",
"369 257 LINE SMOOTH",
"365 237 OFFCURVE",
"356 212 OFFCURVE",
"356 191 CURVE SMOOTH",
"356 169 OFFCURVE",
"366 153 OFFCURVE",
"398 153 CURVE SMOOTH",
"483 153 LINE",
"422 -15 LINE SMOOTH",
"416 -31 OFFCURVE",
"409 -49 OFFCURVE",
"409 -63 CURVE SMOOTH",
"409 -80 OFFCURVE",
"415 -90 OFFCURVE",
"435 -90 CURVE SMOOTH",
"477 -90 OFFCURVE",
"470 -84 OFFCURVE",
"490 -29 CURVE SMOOTH",
"552 145 LINE SMOOTH",
"556 155 OFFCURVE",
"562 182 OFFCURVE",
"562 189 CURVE SMOOTH",
"562 206 OFFCURVE",
"552 216 OFFCURVE",
"532 216 CURVE SMOOTH",
"429 216 LINE",
"454 332 LINE",
"729 332 LINE SMOOTH",
"753 332 OFFCURVE",
"759 342 OFFCURVE",
"764 369 CURVE SMOOTH",
"765 375 OFFCURVE",
"766 379 OFFCURVE",
"766 383 CURVE SMOOTH",
"766 398 OFFCURVE",
"755 400 OFFCURVE",
"737 400 CURVE SMOOTH",
"469 400 LINE"
);
},
{
closed = 1;
nodes = (
"240 544 LINE SMOOTH",
"244 560 OFFCURVE",
"248 577 OFFCURVE",
"248 591 CURVE SMOOTH",
"248 608 OFFCURVE",
"242 618 OFFCURVE",
"222 618 CURVE SMOOTH",
"184 618 OFFCURVE",
"184 603 OFFCURVE",
"172 548 CURVE SMOOTH",
"68 74 LINE SMOOTH",
"64 58 OFFCURVE",
"60 41 OFFCURVE",
"60 27 CURVE SMOOTH",
"60 10 OFFCURVE",
"66 0 OFFCURVE",
"86 0 CURVE SMOOTH",
"124 0 OFFCURVE",
"123 13 OFFCURVE",
"136 70 CURVE SMOOTH"
);
}
);
width = 786;
}
);
unicode = 109B5;
},
{
glyphname = u109B6;
lastChange = "2017-11-08 19:36:06 +0000";
layers = (
{
layerId = UUID0;
paths = (
{
closed = 1;
nodes = (
"94 425 OFFCURVE",
"20 335 OFFCURVE",
"20 229 CURVE SMOOTH",
"20 65 OFFCURVE",
"197 33 OFFCURVE",
"350 33 CURVE SMOOTH",
"554 33 OFFCURVE",
"712 110 OFFCURVE",
"767 137 CURVE SMOOTH",
"787 147 OFFCURVE",
"795 164 OFFCURVE",
"795 179 CURVE SMOOTH",
"795 194 OFFCURVE",
"787 207 OFFCURVE",
"772 207 CURVE SMOOTH",
"761 207 OFFCURVE",
"750 201 OFFCURVE",
"741 196 CURVE SMOOTH",
"682 165 OFFCURVE",
"531 101 OFFCURVE",
"359 101 CURVE SMOOTH",
"286 101 OFFCURVE",
"92 101 OFFCURVE",
"92 230 CURVE SMOOTH",
"92 313 OFFCURVE",
"151 363 OFFCURVE",
"235 363 CURVE SMOOTH",
"268 363 OFFCURVE",
"304 350 OFFCURVE",
"306 350 CURVE SMOOTH",
"328 350 OFFCURVE",
"332 387 OFFCURVE",
"332 397 CURVE SMOOTH",
"332 405 OFFCURVE",
"326 413 OFFCURVE",
"315 416 CURVE SMOOTH",
"292 422 OFFCURVE",
"268 425 OFFCURVE",
"244 425 CURVE SMOOTH"
);
},
{
closed = 1;
nodes = (
"284 -125 OFFCURVE",
"305 -140 OFFCURVE",
"333 -140 CURVE SMOOTH",
"365 -140 OFFCURVE",
"396 -120 OFFCURVE",
"396 -69 CURVE SMOOTH",
"396 -31 OFFCURVE",
"372 -18 OFFCURVE",
"345 -18 CURVE SMOOTH",
"303 -18 OFFCURVE",
"284 -54 OFFCURVE",
"284 -90 CURVE SMOOTH"
);
}
);
width = 775;
}
);
unicode = 109B6;
},
{
glyphname = u109B7;
lastChange = "2017-11-08 19:36:06 +0000";
layers = (
{
layerId = UUID0;
paths = (
{
closed = 1;
nodes = (
"436 250 OFFCURVE",
"392 225 OFFCURVE",
"365 225 CURVE SMOOTH",
"347 225 OFFCURVE",
"307 332 OFFCURVE",
"297 351 CURVE",
"318 384 OFFCURVE",
"337 417 OFFCURVE",
"354 449 CURVE SMOOTH",
"373 484 OFFCURVE",
"403 540 OFFCURVE",
"403 557 CURVE SMOOTH",
"403 570 OFFCURVE",
"394 580 OFFCURVE",
"362 586 CURVE SMOOTH",
"227 610 LINE SMOOTH",
"218 612 OFFCURVE",
"206 613 OFFCURVE",
"199 613 CURVE SMOOTH",
"180 613 OFFCURVE",
"161 603 OFFCURVE",
"161 578 CURVE SMOOTH",
"161 564 OFFCURVE",
"177 496 OFFCURVE",
"186 465 CURVE SMOOTH",
"197 428 OFFCURVE",
"209 391 OFFCURVE",
"223 354 CURVE",
"173 279 OFFCURVE",
"114 205 OFFCURVE",
"47 139 CURVE SMOOTH",
"23 115 OFFCURVE",
"0 105 OFFCURVE",
"0 83 CURVE SMOOTH",
"0 67 OFFCURVE",
"16 54 OFFCURVE",
"32 54 CURVE SMOOTH",
"56 54 OFFCURVE",
"75 78 OFFCURVE",
"94 97 CURVE SMOOTH",
"154 157 OFFCURVE",
"206 220 OFFCURVE",
"252 284 CURVE",
"284 220 OFFCURVE",
"311 150 OFFCURVE",
"354 150 CURVE SMOOTH",
"414 150 OFFCURVE",
"499 221 OFFCURVE",
"547 267 CURVE SMOOTH",
"557 276 OFFCURVE",
"561 286 OFFCURVE",
"561 295 CURVE SMOOTH",
"561 313 OFFCURVE",
"544 331 OFFCURVE",
"528 331 CURVE SMOOTH",
"521 331 OFFCURVE",
"515 329 OFFCURVE",
"509 323 CURVE SMOOTH"
);
},
{
closed = 1;
nodes = (
"322 528 LINE",
"306 494 OFFCURVE",
"288 460 OFFCURVE",
"268 426 CURVE",
"255 463 OFFCURVE",
"243 503 OFFCURVE",
"232 545 CURVE"
);
}
);
width = 561;
}
);
unicode = 109B7;
},
{
glyphname = u109BC;
lastChange = "2017-11-08 19:36:06 +0000";
layers = (
{
layerId = UUID0;
paths = (
{
closed = 1;
nodes = (
"150 529 OFFCURVE",
"174 505 OFFCURVE",
"205 505 CURVE SMOOTH",
"237 505 OFFCURVE",
"262 529 OFFCURVE",
"262 560 CURVE SMOOTH",
"262 591 OFFCURVE",
"237 615 OFFCURVE",
"205 615 CURVE SMOOTH",
"174 615 OFFCURVE",
"150 591 OFFCURVE",
"150 560 CURVE SMOOTH"
);
},
{
closed = 1;
nodes = (
"449 529 OFFCURVE",
"474 505 OFFCURVE",
"505 505 CURVE SMOOTH",
"536 505 OFFCURVE",
"561 529 OFFCURVE",
"561 560 CURVE SMOOTH",
"561 591 OFFCURVE",
"536 615 OFFCURVE",
"505 615 CURVE SMOOTH",
"474 615 OFFCURVE",
"449 591 OFFCURVE",
"449 560 CURVE SMOOTH"
);
},
{
closed = 1;
nodes = (
"749 529 OFFCURVE",
"773 505 OFFCURVE",
"804 505 CURVE SMOOTH",
"836 505 OFFCURVE",
"861 529 OFFCURVE",
"861 560 CURVE SMOOTH",
"861 591 OFFCURVE",
"836 615 OFFCURVE",
"804 615 CURVE SMOOTH",
"773 615 OFFCURVE",
"749 591 OFFCURVE",
"749 560 CURVE SMOOTH"
);
},
{
closed = 1;
nodes = (
"1048 529 OFFCURVE",
"1073 505 OFFCURVE",
"1104 505 CURVE SMOOTH",
"1135 505 OFFCURVE",
"1160 529 OFFCURVE",
"1160 560 CURVE SMOOTH",
"1160 591 OFFCURVE",
"1135 615 OFFCURVE",
"1104 615 CURVE SMOOTH",
"1073 615 OFFCURVE",
"1048 591 OFFCURVE",
"1048 560 CURVE SMOOTH"
);
},
{
closed = 1;
nodes = (
"749 276 OFFCURVE",
"773 251 OFFCURVE",
"804 251 CURVE SMOOTH",
"836 251 OFFCURVE",
"861 276 OFFCURVE",
"861 307 CURVE SMOOTH",
"861 338 OFFCURVE",
"836 363 OFFCURVE",
"804 363 CURVE SMOOTH",
"773 363 OFFCURVE",
"749 338 OFFCURVE",
"749 307 CURVE SMOOTH"
);
},
{
closed = 1;
nodes = (
"1048 276 OFFCURVE",
"1073 251 OFFCURVE",
"1104 251 CURVE SMOOTH",
"1135 251 OFFCURVE",
"1160 276 OFFCURVE",
"1160 307 CURVE SMOOTH",
"1160 338 OFFCURVE",
"1135 363 OFFCURVE",
"1104 363 CURVE SMOOTH",
"1073 363 OFFCURVE",
"1048 338 OFFCURVE",
"1048 307 CURVE SMOOTH"
);
},
{
closed = 1;
nodes = (
"749 24 OFFCURVE",
"773 -2 OFFCURVE",
"804 -2 CURVE SMOOTH",
"836 -2 OFFCURVE",
"861 24 OFFCURVE",
"861 55 CURVE SMOOTH",
"861 86 OFFCURVE",
"836 110 OFFCURVE",
"804 110 CURVE SMOOTH",
"773 110 OFFCURVE",
"749 86 OFFCURVE",
"749 55 CURVE SMOOTH"
);
},
{
closed = 1;
nodes = (
"1048 24 OFFCURVE",
"1073 -2 OFFCURVE",
"1104 -2 CURVE SMOOTH",
"1135 -2 OFFCURVE",
"1160 24 OFFCURVE",
"1160 55 CURVE SMOOTH",
"1160 86 OFFCURVE",
"1135 110 OFFCURVE",
"1104 110 CURVE SMOOTH",
"1073 110 OFFCURVE",
"1048 86 OFFCURVE",
"1048 55 CURVE SMOOTH"
);
},
{
closed = 1;
nodes = (
"1348 529 OFFCURVE",
"1372 505 OFFCURVE",
"1403 505 CURVE SMOOTH",
"1434 505 OFFCURVE",
"1459 529 OFFCURVE",
"1459 560 CURVE SMOOTH",
"1459 591 OFFCURVE",
"1434 615 OFFCURVE",
"1403 615 CURVE SMOOTH",
"1372 615 OFFCURVE",
"1348 591 OFFCURVE",
"1348 560 CURVE SMOOTH"
);
},
{
closed = 1;
nodes = (
"1348 276 OFFCURVE",
"1372 251 OFFCURVE",
"1403 251 CURVE SMOOTH",
"1434 251 OFFCURVE",
"1459 276 OFFCURVE",
"1459 307 CURVE SMOOTH",
"1459 338 OFFCURVE",
"1434 363 OFFCURVE",
"1403 363 CURVE SMOOTH",
"1372 363 OFFCURVE",
"1348 338 OFFCURVE",
"1348 307 CURVE SMOOTH"
);
},
{
closed = 1;
nodes = (
"1348 24 OFFCURVE",
"1372 -2 OFFCURVE",
"1403 -2 CURVE SMOOTH",
"1434 -2 OFFCURVE",
"1459 24 OFFCURVE",
"1459 55 CURVE SMOOTH",
"1459 86 OFFCURVE",
"1434 110 OFFCURVE",
"1403 110 CURVE SMOOTH",
"1372 110 OFFCURVE",
"1348 86 OFFCURVE",
"1348 55 CURVE SMOOTH"
);
}
);
width = 1609;
}
);
unicode = 109BC;
},
{
glyphname = u109BD;
lastChange = "2017-11-08 19:36:06 +0000";
layers = (
{
layerId = UUID0;
paths = (
{
closed = 1;
nodes = (
"174 776 OFFCURVE",
"135 821 OFFCURVE",
"123 864 CURVE SMOOTH",
"116 890 OFFCURVE",
"110 905 OFFCURVE",
"82 905 CURVE SMOOTH",
"67 905 OFFCURVE",
"50 898 OFFCURVE",
"50 883 CURVE SMOOTH",
"50 877 OFFCURVE",
"51 869 OFFCURVE",
"53 859 CURVE SMOOTH",
"71 772 OFFCURVE",
"140 710 OFFCURVE",
"242 710 CURVE SMOOTH",
"343 710 OFFCURVE",
"412 772 OFFCURVE",
"430 859 CURVE SMOOTH",
"432 869 OFFCURVE",
"433 877 OFFCURVE",
"433 883 CURVE SMOOTH",
"433 898 OFFCURVE",
"416 905 OFFCURVE",
"401 905 CURVE SMOOTH",
"373 905 OFFCURVE",
"367 890 OFFCURVE",
"360 864 CURVE SMOOTH",
"348 821 OFFCURVE",
"309 776 OFFCURVE",
"242 776 CURVE SMOOTH"
);
},
{
closed = 1;
nodes = (
"187 843 OFFCURVE",
"209 821 OFFCURVE",
"238 821 CURVE SMOOTH",
"267 821 OFFCURVE",
"290 843 OFFCURVE",
"290 872 CURVE SMOOTH",
"290 901 OFFCURVE",
"267 923 OFFCURVE",
"238 923 CURVE SMOOTH",
"209 923 OFFCURVE",
"187 901 OFFCURVE",
"187 872 CURVE SMOOTH"
);
}
);
width = 483;
}
);
unicode = 109BD;
},
{
glyphname = u109BE;
lastChange = "2017-11-08 19:36:06 +0000";
layers = (
{
layerId = UUID0;
paths = (
{
closed = 1;
nodes = (
"289 637 OFFCURVE",
"292 632 OFFCURVE",
"298 626 CURVE SMOOTH",
"320 606 OFFCURVE",
"340 583 OFFCURVE",
"340 545 CURVE SMOOTH",
"340 480 OFFCURVE",
"294 437 OFFCURVE",
"193 429 CURVE SMOOTH",
"179 428 LINE",
"176 499 OFFCURVE",
"169 560 OFFCURVE",
"151 640 CURVE SMOOTH",
"146 663 OFFCURVE",
"134 680 OFFCURVE",
"101 680 CURVE SMOOTH",
"83 680 OFFCURVE",
"79 673 OFFCURVE",
"79 659 CURVE SMOOTH",
"79 638 OFFCURVE",
"108 555 OFFCURVE",
"108 352 CURVE SMOOTH",
"108 230 OFFCURVE",
"89 123 OFFCURVE",
"61 47 CURVE SMOOTH",
"57 35 OFFCURVE",
"50 21 OFFCURVE",
"50 10 CURVE SMOOTH",
"50 1 OFFCURVE",
"55 -8 OFFCURVE",
"76 -8 CURVE SMOOTH",
"108 -8 OFFCURVE",
"116 12 OFFCURVE",
"126 37 CURVE SMOOTH",
"150 99 OFFCURVE",
"179 234 OFFCURVE",
"180 359 CURVE",
"293 369 OFFCURVE",
"412 405 OFFCURVE",
"412 542 CURVE SMOOTH",
"412 586 OFFCURVE",
"399 622 OFFCURVE",
"377 651 CURVE SMOOTH",
"366 666 OFFCURVE",
"335 695 OFFCURVE",
"319 695 CURVE SMOOTH",
"297 695 OFFCURVE",
"289 658 OFFCURVE",
"289 643 CURVE SMOOTH"
);
}
);
width = 452;
}
);
unicode = 109BE;
},
{
glyphname = u109BF;
lastChange = "2017-11-08 19:36:06 +0000";
layers = (
{
layerId = UUID0;
paths = (
{
closed = 1;
nodes = (
"581 234 OFFCURVE",
"655 244 OFFCURVE",
"706 244 CURVE SMOOTH",
"718 244 OFFCURVE",
"729 243 OFFCURVE",
"740 242 CURVE",
"742 241 OFFCURVE",
"743 239 OFFCURVE",
"744 237 CURVE",
"726 158 OFFCURVE",
"586 53 OFFCURVE",
"493 53 CURVE SMOOTH",
"416 53 OFFCURVE",
"372 92 OFFCURVE",
"372 178 CURVE SMOOTH",
"372 234 OFFCURVE",
"401 277 OFFCURVE",
"430 302 CURVE SMOOTH",
"440 310 OFFCURVE",
"442 320 OFFCURVE",
"442 328 CURVE SMOOTH",
"442 348 OFFCURVE",
"426 362 OFFCURVE",
"411 362 CURVE SMOOTH",
"408 362 OFFCURVE",
"399 360 OFFCURVE",
"394 357 CURVE SMOOTH",
"334 320 OFFCURVE",
"300 252 OFFCURVE",
"300 177 CURVE SMOOTH",
"300 46 OFFCURVE",
"393 -8 OFFCURVE",
"494 -8 CURVE SMOOTH",
"535 -8 OFFCURVE",
"575 7 OFFCURVE",
"589 13 CURVE SMOOTH",
"653 39 OFFCURVE",
"814 142 OFFCURVE",
"814 234 CURVE SMOOTH",
"814 258 OFFCURVE",
"803 281 OFFCURVE",
"777 302 CURVE SMOOTH",
"770 308 OFFCURVE",
"744 310 OFFCURVE",
"713 310 CURVE SMOOTH",
"646 310 OFFCURVE",
"567 302 OFFCURVE",
"556 300 CURVE SMOOTH",
"539 297 OFFCURVE",
"533 282 OFFCURVE",
"533 270 CURVE SMOOTH",
"533 250 OFFCURVE",
"548 234 OFFCURVE",
"564 234 CURVE SMOOTH"
);
},
{
closed = 1;
nodes = (
"187 510 LINE SMOOTH",
"187 536 OFFCURVE",
"170 549 OFFCURVE",
"152 549 CURVE SMOOTH",
"135 549 OFFCURVE",
"117 536 OFFCURVE",
"117 510 CURVE SMOOTH",
"117 29 LINE SMOOTH",
"117 3 OFFCURVE",
"135 -10 OFFCURVE",
"152 -10 CURVE SMOOTH",
"170 -10 OFFCURVE",
"187 3 OFFCURVE",
"187 29 CURVE"
);
},
{
closed = 1;
nodes = (
"134 630 OFFCURVE",
"196 675 OFFCURVE",
"276 720 CURVE SMOOTH",
"291 729 OFFCURVE",
"295 741 OFFCURVE",
"295 750 CURVE SMOOTH",
"295 766 OFFCURVE",
"279 779 OFFCURVE",
"267 779 CURVE SMOOTH",
"261 779 OFFCURVE",
"255 776 OFFCURVE",
"246 771 CURVE SMOOTH",
"151 717 OFFCURVE",
"53 639 OFFCURVE",
"24 605 CURVE SMOOTH",
"18 599 OFFCURVE",
"15 589 OFFCURVE",
"15 583 CURVE SMOOTH",
"15 569 OFFCURVE",
"33 556 OFFCURVE",
"47 556 CURVE SMOOTH",
"52 556 OFFCURVE",
"57 558 OFFCURVE",
"62 563 CURVE SMOOTH"
);
}
);
width = 854;
}
);
unicode = 109BF;
},
{
glyphname = u109C0;
lastChange = "2017-11-08 19:36:06 +0000";
layers = (
{
layerId = UUID0;
paths = (
{
closed = 1;
nodes = (
"170 641 LINE SMOOTH",
"170 667 OFFCURVE",
"153 680 OFFCURVE",
"135 680 CURVE SMOOTH",
"118 680 OFFCURVE",
"100 667 OFFCURVE",
"100 641 CURVE SMOOTH",
"100 29 LINE SMOOTH",
"100 3 OFFCURVE",
"118 -10 OFFCURVE",
"135 -10 CURVE SMOOTH",
"153 -10 OFFCURVE",
"170 3 OFFCURVE",
"170 29 CURVE SMOOTH"
);
}
);
width = 270;
}
);
unicode = 109C0;
},
{
glyphname = u109C1;
lastChange = "2017-11-08 19:36:06 +0000";
layers = (
{
layerId = UUID0;
paths = (
{
closed = 1;
nodes = (
"170 641 LINE SMOOTH",
"170 667 OFFCURVE",
"153 680 OFFCURVE",
"135 680 CURVE SMOOTH",
"118 680 OFFCURVE",
"100 667 OFFCURVE",
"100 641 CURVE SMOOTH",
"100 29 LINE SMOOTH",
"100 3 OFFCURVE",
"118 -10 OFFCURVE",
"135 -10 CURVE SMOOTH",
"153 -10 OFFCURVE",
"170 3 OFFCURVE",
"170 29 CURVE SMOOTH"
);
},
{
closed = 1;
nodes = (
"340 641 LINE SMOOTH",
"340 667 OFFCURVE",
"323 680 OFFCURVE",
"305 680 CURVE SMOOTH",
"288 680 OFFCURVE",
"270 667 OFFCURVE",
"270 641 CURVE SMOOTH",
"270 29 LINE SMOOTH",
"270 3 OFFCURVE",
"288 -10 OFFCURVE",
"305 -10 CURVE SMOOTH",
"323 -10 OFFCURVE",
"340 3 OFFCURVE",
"340 29 CURVE SMOOTH"
);
}
);
width = 440;
}
);
unicode = 109C1;
},
{
glyphname = u109C2;
lastChange = "2017-11-08 19:36:06 +0000";
layers = (
{
layerId = UUID0;
paths = (
{
closed = 1;
nodes = (
"170 641 LINE SMOOTH",
"170 667 OFFCURVE",
"153 680 OFFCURVE",
"135 680 CURVE SMOOTH",
"118 680 OFFCURVE",
"100 667 OFFCURVE",
"100 641 CURVE SMOOTH",
"100 29 LINE SMOOTH",
"100 3 OFFCURVE",
"118 -10 OFFCURVE",
"135 -10 CURVE SMOOTH",
"153 -10 OFFCURVE",
"170 3 OFFCURVE",
"170 29 CURVE SMOOTH"
);
},
{
closed = 1;
nodes = (
"340 641 LINE SMOOTH",
"340 667 OFFCURVE",
"323 680 OFFCURVE",
"305 680 CURVE SMOOTH",
"288 680 OFFCURVE",
"270 667 OFFCURVE",
"270 641 CURVE SMOOTH",
"270 29 LINE SMOOTH",
"270 3 OFFCURVE",
"288 -10 OFFCURVE",
"305 -10 CURVE SMOOTH",
"323 -10 OFFCURVE",
"340 3 OFFCURVE",
"340 29 CURVE SMOOTH"
);
},
{
closed = 1;
nodes = (
"510 641 LINE SMOOTH",
"510 667 OFFCURVE",
"493 680 OFFCURVE",
"475 680 CURVE SMOOTH",
"458 680 OFFCURVE",
"440 667 OFFCURVE",
"440 641 CURVE SMOOTH",
"440 29 LINE SMOOTH",
"440 3 OFFCURVE",
"458 -10 OFFCURVE",
"475 -10 CURVE SMOOTH",
"493 -10 OFFCURVE",
"510 3 OFFCURVE",
"510 29 CURVE SMOOTH"
);
}
);
width = 610;
}
);
unicode = 109C2;
},
{
glyphname = u109C3;
lastChange = "2017-11-08 19:36:06 +0000";
layers = (
{
layerId = UUID0;
paths = (
{
closed = 1;
nodes = (
"170 641 LINE SMOOTH",
"170 667 OFFCURVE",
"153 680 OFFCURVE",
"135 680 CURVE SMOOTH",
"118 680 OFFCURVE",
"100 667 OFFCURVE",
"100 641 CURVE SMOOTH",
"100 29 LINE SMOOTH",
"100 3 OFFCURVE",
"118 -10 OFFCURVE",
"135 -10 CURVE SMOOTH",
"153 -10 OFFCURVE",
"170 3 OFFCURVE",
"170 29 CURVE SMOOTH"
);
},
{
closed = 1;
nodes = (
"340 641 LINE SMOOTH",
"340 667 OFFCURVE",
"323 680 OFFCURVE",
"305 680 CURVE SMOOTH",
"288 680 OFFCURVE",
"270 667 OFFCURVE",
"270 641 CURVE SMOOTH",
"270 29 LINE SMOOTH",
"270 3 OFFCURVE",
"288 -10 OFFCURVE",
"305 -10 CURVE SMOOTH",
"323 -10 OFFCURVE",
"340 3 OFFCURVE",
"340 29 CURVE SMOOTH"
);
},
{
closed = 1;
nodes = (
"510 641 LINE SMOOTH",
"510 667 OFFCURVE",
"493 680 OFFCURVE",
"475 680 CURVE SMOOTH",
"458 680 OFFCURVE",
"440 667 OFFCURVE",
"440 641 CURVE SMOOTH",
"440 29 LINE SMOOTH",
"440 3 OFFCURVE",
"458 -10 OFFCURVE",
"475 -10 CURVE SMOOTH",
"493 -10 OFFCURVE",
"510 3 OFFCURVE",
"510 29 CURVE SMOOTH"
);
},
{
closed = 1;
nodes = (
"680 641 LINE SMOOTH",
"680 667 OFFCURVE",
"663 680 OFFCURVE",
"645 680 CURVE SMOOTH",
"628 680 OFFCURVE",
"610 667 OFFCURVE",
"610 641 CURVE SMOOTH",
"610 29 LINE SMOOTH",
"610 3 OFFCURVE",
"628 -10 OFFCURVE",
"645 -10 CURVE SMOOTH",
"663 -10 OFFCURVE",
"680 3 OFFCURVE",
"680 29 CURVE SMOOTH"
);
}
);
width = 780;
}
);
unicode = 109C3;
},
{
glyphname = u109C4;
lastChange = "2017-11-08 19:36:06 +0000";
layers = (
{
layerId = UUID0;
paths = (
{
closed = 1;
nodes = (
"77 576 OFFCURVE",
"88 585 OFFCURVE",
"95 590 CURVE SMOOTH",
"105 597 OFFCURVE",
"134 616 OFFCURVE",
"170 616 CURVE SMOOTH",
"236 616 OFFCURVE",
"258 573 OFFCURVE",
"258 538 CURVE SMOOTH",
"258 498 OFFCURVE",
"225 458 OFFCURVE",
"178 432 CURVE SMOOTH",
"141 411 OFFCURVE",
"128 392 OFFCURVE",
"128 371 CURVE SMOOTH",
"128 346 OFFCURVE",
"148 320 OFFCURVE",
"174 289 CURVE SMOOTH",
"411 5 LINE SMOOTH",
"421 -7 OFFCURVE",
"433 -12 OFFCURVE",
"443 -12 CURVE SMOOTH",
"460 -12 OFFCURVE",
"475 2 OFFCURVE",
"475 20 CURVE SMOOTH",
"475 29 OFFCURVE",
"472 39 OFFCURVE",
"463 49 CURVE SMOOTH",
"200 365 LINE",
"293 421 OFFCURVE",
"330 482 OFFCURVE",
"330 538 CURVE SMOOTH",
"330 630 OFFCURVE",
"269 684 OFFCURVE",
"167 684 CURVE SMOOTH",
"118 684 OFFCURVE",
"67 664 OFFCURVE",
"39 623 CURVE SMOOTH",
"34 616 OFFCURVE",
"30 610 OFFCURVE",
"30 606 CURVE SMOOTH",
"30 596 OFFCURVE",
"50 576 OFFCURVE",
"70 576 CURVE SMOOTH"
);
}
);
width = 505;
}
);
unicode = 109C4;
},
{
glyphname = u109C5;
lastChange = "2017-11-08 19:36:06 +0000";
layers = (
{
layerId = UUID0;
paths = (
{
closed = 1;
nodes = (
"415 326 LINE SMOOTH",
"429 332 OFFCURVE",
"434 343 OFFCURVE",
"434 355 CURVE SMOOTH",
"434 373 OFFCURVE",
"422 390 OFFCURVE",
"408 390 CURVE SMOOTH",
"397 390 OFFCURVE",
"392 387 OFFCURVE",
"387 385 CURVE SMOOTH",
"116 264 LINE SMOOTH",
"101 257 OFFCURVE",
"96 241 OFFCURVE",
"96 226 CURVE SMOOTH",
"96 211 OFFCURVE",
"104 189 OFFCURVE",
"124 187 CURVE SMOOTH",
"341 166 OFFCURVE",
"501 86 OFFCURVE",
"669 -35 CURVE SMOOTH",
"678 -41 OFFCURVE",
"686 -44 OFFCURVE",
"693 -44 CURVE SMOOTH",
"716 -44 OFFCURVE",
"728 -15 OFFCURVE",
"728 -3 CURVE SMOOTH",
"728 4 OFFCURVE",
"723 12 OFFCURVE",
"712 20 CURVE SMOOTH",
"567 128 OFFCURVE",
"407 209 OFFCURVE",
"222 240 CURVE"
);
},
{
closed = 1;
nodes = (
"353 438 LINE SMOOTH",
"367 444 OFFCURVE",
"372 455 OFFCURVE",
"372 467 CURVE SMOOTH",
"372 485 OFFCURVE",
"360 502 OFFCURVE",
"346 502 CURVE SMOOTH",
"335 502 OFFCURVE",
"330 499 OFFCURVE",
"325 497 CURVE SMOOTH",
"54 376 LINE SMOOTH",
"42 371 OFFCURVE",
"37 359 OFFCURVE",
"37 348 CURVE SMOOTH",
"37 331 OFFCURVE",
"47 314 OFFCURVE",
"66 314 CURVE SMOOTH",
"71 314 OFFCURVE",
"76 315 OFFCURVE",
"82 318 CURVE SMOOTH"
);
},
{
closed = 1;
nodes = (
"271 521 LINE SMOOTH",
"285 527 OFFCURVE",
"290 538 OFFCURVE",
"290 550 CURVE SMOOTH",
"290 568 OFFCURVE",
"278 585 OFFCURVE",
"264 585 CURVE SMOOTH",
"253 585 OFFCURVE",
"248 582 OFFCURVE",
"243 580 CURVE SMOOTH",
"47 494 LINE SMOOTH",
"35 489 OFFCURVE",
"30 477 OFFCURVE",
"30 466 CURVE SMOOTH",
"30 449 OFFCURVE",
"40 432 OFFCURVE",
"59 432 CURVE SMOOTH",
"64 432 OFFCURVE",
"69 433 OFFCURVE",
"75 436 CURVE SMOOTH"
);
}
);
width = 758;
}
);
unicode = 109C5;
},
{
glyphname = u109C6;
lastChange = "2017-11-08 19:36:06 +0000";
layers = (
{
layerId = UUID0;
paths = (
{
closed = 1;
nodes = (
"470 187 LINE",
"506 213 OFFCURVE",
"535 249 OFFCURVE",
"535 301 CURVE SMOOTH",
"535 388 OFFCURVE",
"470 431 OFFCURVE",
"401 431 CURVE SMOOTH",
"396 431 LINE",
"408 450 OFFCURVE",
"418 469 OFFCURVE",
"427 487 CURVE SMOOTH",
"429 492 OFFCURVE",
"430 497 OFFCURVE",
"430 501 CURVE SMOOTH",
"430 521 OFFCURVE",
"413 534 OFFCURVE",
"396 534 CURVE SMOOTH",
"385 534 OFFCURVE",
"377 530 OFFCURVE",
"372 520 CURVE SMOOTH",
"304 390 OFFCURVE",
"161 243 OFFCURVE",
"44 163 CURVE SMOOTH",
"37 158 OFFCURVE",
"30 148 OFFCURVE",
"30 141 CURVE SMOOTH",
"30 124 OFFCURVE",
"44 110 OFFCURVE",
"62 110 CURVE SMOOTH",
"69 110 OFFCURVE",
"77 113 OFFCURVE",
"84 118 CURVE SMOOTH",
"163 167 OFFCURVE",
"261 256 OFFCURVE",
"336 348 CURVE",
"351 358 OFFCURVE",
"367 362 OFFCURVE",
"386 362 CURVE SMOOTH",
"443 362 OFFCURVE",
"463 331 OFFCURVE",
"463 305 CURVE SMOOTH",
"463 236 OFFCURVE",
"403 212 OFFCURVE",
"373 208 CURVE SMOOTH",
"358 206 OFFCURVE",
"343 185 OFFCURVE",
"343 167 CURVE SMOOTH",
"343 153 OFFCURVE",
"351 141 OFFCURVE",
"368 138 CURVE SMOOTH",
"1169 5 LINE SMOOTH",
"1173 4 OFFCURVE",
"1191 1 OFFCURVE",
"1200 1 CURVE SMOOTH",
"1217 1 OFFCURVE",
"1230 16 OFFCURVE",
"1230 31 CURVE SMOOTH",
"1230 46 OFFCURVE",
"1218 61 OFFCURVE",
"1194 65 CURVE SMOOTH"
);
}
);
width = 1260;
}
);
unicode = 109C6;
},
{
glyphname = u109C7;
lastChange = "2017-11-08 19:36:06 +0000";
layers = (
{
layerId = UUID0;
paths = (
{
closed = 1;
nodes = (
"516 554 OFFCURVE",
"504 547 OFFCURVE",
"504 535 CURVE SMOOTH",
"504 520 OFFCURVE",
"512 489 OFFCURVE",
"512 468 CURVE SMOOTH",
"512 419 OFFCURVE",
"493 386 OFFCURVE",
"462 354 CURVE SMOOTH",
"160 43 LINE SMOOTH",
"151 34 OFFCURVE",
"147 24 OFFCURVE",
"147 15 CURVE SMOOTH",
"147 -3 OFFCURVE",
"163 -17 OFFCURVE",
"182 -17 CURVE SMOOTH",
"191 -17 OFFCURVE",
"203 -13 OFFCURVE",
"219 3 CURVE SMOOTH",
"538 339 LINE SMOOTH",
"571 374 OFFCURVE",
"584 425 OFFCURVE",
"584 472 CURVE SMOOTH",
"584 497 OFFCURVE",
"580 516 OFFCURVE",
"571 536 CURVE SMOOTH",
"566 548 OFFCURVE",
"549 554 OFFCURVE",
"533 554 CURVE SMOOTH"
);
},
{
closed = 1;
nodes = (
"372 520 LINE SMOOTH",
"372 471 OFFCURVE",
"353 438 OFFCURVE",
"322 406 CURVE SMOOTH",
"43 117 LINE SMOOTH",
"34 108 OFFCURVE",
"30 98 OFFCURVE",
"30 89 CURVE SMOOTH",
"30 71 OFFCURVE",
"46 57 OFFCURVE",
"65 57 CURVE SMOOTH",
"74 57 OFFCURVE",
"86 61 OFFCURVE",
"102 77 CURVE SMOOTH",
"398 391 LINE SMOOTH",
"428 423 OFFCURVE",
"444 469 OFFCURVE",
"444 530 CURVE SMOOTH",
"444 548 OFFCURVE",
"425 554 OFFCURVE",
"409 554 CURVE SMOOTH",
"385 554 OFFCURVE",
"372 546 OFFCURVE",
"372 530 CURVE SMOOTH"
);
}
);
width = 614;
}
);
unicode = 109C7;
},
{
glyphname = u109C8;
lastChange = "2017-11-08 19:36:06 +0000";
layers = (
{
layerId = UUID0;
paths = (
{
closed = 1;
nodes = (
"160 390 LINE",
"177 390 LINE SMOOTH",
"306 390 OFFCURVE",
"345 471 OFFCURVE",
"345 542 CURVE SMOOTH",
"345 615 OFFCURVE",
"290 684 OFFCURVE",
"178 684 CURVE SMOOTH",
"146 684 OFFCURVE",
"126 679 OFFCURVE",
"112 674 CURVE SMOOTH",
"102 670 OFFCURVE",
"98 660 OFFCURVE",
"98 648 CURVE SMOOTH",
"98 630 OFFCURVE",
"107 610 OFFCURVE",
"119 610 CURVE SMOOTH",
"129 610 OFFCURVE",
"143 614 OFFCURVE",
"155 615 CURVE SMOOTH",
"163 616 OFFCURVE",
"172 616 OFFCURVE",
"177 616 CURVE SMOOTH",
"273 616 OFFCURVE",
"273 559 OFFCURVE",
"273 532 CURVE SMOOTH",
"273 509 OFFCURVE",
"254 455 OFFCURVE",
"165 455 CURVE SMOOTH",
"147 455 OFFCURVE",
"133 459 OFFCURVE",
"119 459 CURVE SMOOTH",
"96 459 OFFCURVE",
"90 440 OFFCURVE",
"90 417 CURVE SMOOTH",
"90 29 LINE SMOOTH",
"90 3 OFFCURVE",
"108 -10 OFFCURVE",
"125 -10 CURVE SMOOTH",
"143 -10 OFFCURVE",
"160 3 OFFCURVE",
"160 29 CURVE SMOOTH"
);
}
);
width = 375;
}
);
unicode = 109C8;
},
{
glyphname = u109C9;
lastChange = "2017-11-08 19:36:06 +0000";
layers = (
{
layerId = UUID0;
paths = (
{
closed = 1;
nodes = (
"990 -5 OFFCURVE",
"1007 -17 OFFCURVE",
"1022 -17 CURVE SMOOTH",
"1037 -17 OFFCURVE",
"1049 -5 OFFCURVE",
"1061 10 CURVE SMOOTH",
"1194 183 LINE SMOOTH",
"1212 206 OFFCURVE",
"1260 256 OFFCURVE",
"1260 292 CURVE SMOOTH",
"1260 324 OFFCURVE",
"1238 330 OFFCURVE",
"1211 330 CURVE SMOOTH",
"1197 330 OFFCURVE",
"1179 329 OFFCURVE",
"1166 328 CURVE SMOOTH",
"58 252 LINE SMOOTH",
"40 251 OFFCURVE",
"30 236 OFFCURVE",
"30 221 CURVE SMOOTH",
"30 206 OFFCURVE",
"42 189 OFFCURVE",
"70 189 CURVE SMOOTH",
"73 189 OFFCURVE",
"319 205 OFFCURVE",
"1169 262 CURVE",
"1008 52 LINE SMOOTH",
"1000 42 OFFCURVE",
"990 29 OFFCURVE",
"990 18 CURVE SMOOTH"
);
}
);
width = 1290;
}
);
unicode = 109C9;
},
{
glyphname = u109CA;
lastChange = "2017-11-08 19:36:06 +0000";
layers = (
{
layerId = UUID0;
paths = (
{
closed = 1;
nodes = (
"30 206 OFFCURVE",
"42 189 OFFCURVE",
"70 189 CURVE SMOOTH",
"73 189 OFFCURVE",
"85 190 OFFCURVE",
"104 191 CURVE SMOOTH",
"173 195 OFFCURVE",
"347 208 OFFCURVE",
"668 231 CURVE",
"528 52 LINE SMOOTH",
"520 42 OFFCURVE",
"510 29 OFFCURVE",
"510 18 CURVE SMOOTH",
"510 -5 OFFCURVE",
"522 -14 OFFCURVE",
"537 -14 CURVE SMOOTH",
"552 -14 OFFCURVE",
"569 -5 OFFCURVE",
"581 10 CURVE SMOOTH",
"757 237 LINE",
"1273 274 LINE SMOOTH",
"1291 275 OFFCURVE",
"1301 290 OFFCURVE",
"1301 305 CURVE SMOOTH",
"1301 320 OFFCURVE",
"1289 337 OFFCURVE",
"1261 337 CURVE SMOOTH",
"1247 337 OFFCURVE",
"1000 319 OFFCURVE",
"58 252 CURVE SMOOTH",
"40 251 OFFCURVE",
"30 236 OFFCURVE",
"30 221 CURVE SMOOTH"
);
}
);
width = 1331;
}
);
unicode = 109CA;
},
{
glyphname = u109CB;
lastChange = "2017-11-08 19:36:06 +0000";
layers = (
{
layerId = UUID0;
paths = (
{
closed = 1;
nodes = (
"48 52 LINE SMOOTH",
"35 42 OFFCURVE",
"31 33 OFFCURVE",
"31 20 CURVE SMOOTH",
"31 3 OFFCURVE",
"44 -11 OFFCURVE",
"64 -11 CURVE SMOOTH",
"74 -11 OFFCURVE",
"79 -9 OFFCURVE",
"89 -2 CURVE SMOOTH",
"403 241 LINE",
"784 -72 LINE SMOOTH",
"793 -80 OFFCURVE",
"803 -82 OFFCURVE",
"810 -82 CURVE SMOOTH",
"829 -82 OFFCURVE",
"843 -68 OFFCURVE",
"843 -52 CURVE SMOOTH",
"843 -41 OFFCURVE",
"839 -29 OFFCURVE",
"828 -20 CURVE SMOOTH",
"458 284 LINE",
"727 492 LINE SMOOTH",
"740 502 OFFCURVE",
"745 513 OFFCURVE",
"745 524 CURVE SMOOTH",
"745 543 OFFCURVE",
"729 554 OFFCURVE",
"712 554 CURVE SMOOTH",
"703 554 OFFCURVE",
"694 551 OFFCURVE",
"687 545 CURVE SMOOTH",
"405 327 LINE",
"96 582 LINE SMOOTH",
"87 590 OFFCURVE",
"76 592 OFFCURVE",
"68 592 CURVE SMOOTH",
"51 592 OFFCURVE",
"37 580 OFFCURVE",
"37 561 CURVE SMOOTH",
"37 551 OFFCURVE",
"42 540 OFFCURVE",
"53 531 CURVE SMOOTH",
"350 285 LINE"
);
}
);
width = 873;
}
);
unicode = 109CB;
},
{
glyphname = u109CC;
lastChange = "2017-11-08 19:36:06 +0000";
layers = (
{
layerId = UUID0;
paths = (
{
closed = 1;
nodes = (
"1428 0 LINE SMOOTH",
"1456 0 OFFCURVE",
"1465 28 OFFCURVE",
"1465 36 CURVE SMOOTH",
"1465 66 OFFCURVE",
"1439 68 OFFCURVE",
"1421 68 CURVE SMOOTH",
"820 68 LINE",
"823 150 OFFCURVE",
"888 209 OFFCURVE",
"955 220 CURVE SMOOTH",
"975 223 OFFCURVE",
"983 243 OFFCURVE",
"983 255 CURVE SMOOTH",
"983 274 OFFCURVE",
"974 287 OFFCURVE",
"951 287 CURVE SMOOTH",
"852 287 OFFCURVE",
"752 188 OFFCURVE",
"748 68 CURVE",
"743 188 OFFCURVE",
"644 287 OFFCURVE",
"545 287 CURVE SMOOTH",
"523 287 OFFCURVE",
"513 274 OFFCURVE",
"513 255 CURVE SMOOTH",
"513 243 OFFCURVE",
"520 224 OFFCURVE",
"541 220 CURVE SMOOTH",
"608 208 OFFCURVE",
"672 150 OFFCURVE",
"676 68 CURVE",
"67 68 LINE SMOOTH",
"39 68 OFFCURVE",
"30 40 OFFCURVE",
"30 32 CURVE SMOOTH",
"30 2 OFFCURVE",
"56 0 OFFCURVE",
"74 0 CURVE SMOOTH"
);
}
);
width = 1495;
}
);
unicode = 109CC;
},
{
glyphname = u109CD;
lastChange = "2017-11-08 19:36:06 +0000";
layers = (
{
layerId = UUID0;
paths = (
{
closed = 1;
nodes = (
"126 432 OFFCURVE",
"169 436 OFFCURVE",
"198 436 CURVE SMOOTH",
"213 436 OFFCURVE",
"231 435 OFFCURVE",
"248 433 CURVE",
"169 349 LINE SMOOTH",
"160 339 OFFCURVE",
"154 329 OFFCURVE",
"154 320 CURVE SMOOTH",
"154 311 OFFCURVE",
"160 305 OFFCURVE",
"173 305 CURVE SMOOTH",
"206 304 OFFCURVE",
"232 288 OFFCURVE",
"232 275 CURVE SMOOTH",
"232 251 OFFCURVE",
"145 208 OFFCURVE",
"71 205 CURVE SMOOTH",
"48 204 OFFCURVE",
"30 197 OFFCURVE",
"30 173 CURVE SMOOTH",
"30 160 OFFCURVE",
"38 146 OFFCURVE",
"61 140 CURVE SMOOTH",
"64 139 OFFCURVE",
"116 129 OFFCURVE",
"119 129 CURVE SMOOTH",
"1140 -12 LINE",
"1050 -37 OFFCURVE",
"910 -43 OFFCURVE",
"813 -55 CURVE SMOOTH",
"786 -58 OFFCURVE",
"773 -75 OFFCURVE",
"773 -91 CURVE SMOOTH",
"773 -104 OFFCURVE",
"783 -115 OFFCURVE",
"804 -115 CURVE SMOOTH",
"866 -115 OFFCURVE",
"1138 -75 OFFCURVE",
"1200 -57 CURVE SMOOTH",
"1231 -48 OFFCURVE",
"1252 -25 OFFCURVE",
"1252 -1 CURVE SMOOTH",
"1252 21 OFFCURVE",
"1229 37 OFFCURVE",
"1201 41 CURVE SMOOTH",
"216 182 LINE",
"254 204 OFFCURVE",
"295 231 OFFCURVE",
"295 277 CURVE SMOOTH",
"295 305 OFFCURVE",
"276 328 OFFCURVE",
"247 342 CURVE",
"284 373 OFFCURVE",
"329 415 OFFCURVE",
"329 446 CURVE SMOOTH",
"329 472 OFFCURVE",
"312 487 OFFCURVE",
"273 492 CURVE SMOOTH",
"249 495 OFFCURVE",
"224 497 OFFCURVE",
"199 497 CURVE SMOOTH",
"172 497 OFFCURVE",
"129 493 OFFCURVE",
"115 490 CURVE SMOOTH",
"101 487 OFFCURVE",
"91 479 OFFCURVE",
"91 460 CURVE SMOOTH",
"91 441 OFFCURVE",
"98 432 OFFCURVE",
"112 432 CURVE SMOOTH"
);
}
);
width = 1282;
}
);
unicode = 109CD;
},
{
glyphname = u109CE;
lastChange = "2017-11-08 19:36:06 +0000";
layers = (
{
layerId = UUID0;
paths = (
{
closed = 1;
nodes = (
"1241 280 OFFCURVE",
"1234 276 OFFCURVE",
"1230 264 CURVE SMOOTH",
"1220 230 LINE SMOOTH",
"1183 105 OFFCURVE",
"1164 65 OFFCURVE",
"1060 65 CURVE SMOOTH",
"821 65 OFFCURVE",
"256 89 OFFCURVE",
"83 125 CURVE SMOOTH",
"77 126 OFFCURVE",
"72 127 OFFCURVE",
"68 127 CURVE SMOOTH",
"44 127 OFFCURVE",
"30 112 OFFCURVE",
"30 95 CURVE SMOOTH",
"30 78 OFFCURVE",
"46 65 OFFCURVE",
"82 57 CURVE SMOOTH",
"134 46 OFFCURVE",
"422 20 OFFCURVE",
"688 8 CURVE SMOOTH",
"838 1 OFFCURVE",
"979 -3 OFFCURVE",
"1063 -3 CURVE SMOOTH",
"1209 -3 OFFCURVE",
"1238 59 OFFCURVE",
"1285 207 CURVE SMOOTH",
"1289 221 OFFCURVE",
"1297 243 OFFCURVE",
"1297 256 CURVE SMOOTH",
"1297 277 OFFCURVE",
"1263 280 OFFCURVE",
"1250 280 CURVE SMOOTH"
);
},
{
closed = 1;
nodes = (
"1363 63 OFFCURVE",
"1399 137 OFFCURVE",
"1440 208 CURVE SMOOTH",
"1443 213 OFFCURVE",
"1446 221 OFFCURVE",
"1446 230 CURVE SMOOTH",
"1446 252 OFFCURVE",
"1423 257 OFFCURVE",
"1408 257 CURVE SMOOTH",
"1396 257 OFFCURVE",
"1384 250 OFFCURVE",
"1375 232 CURVE SMOOTH",
"1293 68 LINE SMOOTH",
"1282 46 OFFCURVE",
"1268 27 OFFCURVE",
"1268 7 CURVE SMOOTH",
"1268 -19 OFFCURVE",
"1289 -43 OFFCURVE",
"1312 -61 CURVE SMOOTH",
"1330 -75 OFFCURVE",
"1368 -97 OFFCURVE",
"1387 -97 CURVE SMOOTH",
"1408 -97 OFFCURVE",
"1420 -80 OFFCURVE",
"1420 -66 CURVE SMOOTH",
"1420 -57 OFFCURVE",
"1415 -47 OFFCURVE",
"1405 -43 CURVE SMOOTH",
"1365 -26 OFFCURVE",
"1342 -4 OFFCURVE",
"1338 10 CURVE"
);
}
);
width = 1476;
}
);
unicode = 109CE;
},
{
glyphname = u109CF;
lastChange = "2017-11-08 19:36:06 +0000";
layers = (
{
layerId = UUID0;
paths = (
{
closed = 1;
nodes = (
"1111 303 OFFCURVE",
"1270 296 OFFCURVE",
"1270 182 CURVE SMOOTH",
"1270 65 OFFCURVE",
"1156 59 OFFCURVE",
"1067 59 CURVE SMOOTH",
"939 59 OFFCURVE",
"888 65 OFFCURVE",
"807 70 CURVE SMOOTH",
"737 74 OFFCURVE",
"640 82 OFFCURVE",
"517 82 CURVE SMOOTH",
"399 82 OFFCURVE",
"313 43 OFFCURVE",
"250 -13 CURVE SMOOTH",
"59 -183 LINE SMOOTH",
"39 -201 OFFCURVE",
"30 -214 OFFCURVE",
"30 -229 CURVE SMOOTH",
"30 -244 OFFCURVE",
"46 -259 OFFCURVE",
"61 -259 CURVE SMOOTH",
"73 -259 OFFCURVE",
"83 -253 OFFCURVE",
"102 -236 CURVE SMOOTH",
"287 -70 LINE SMOOTH",
"344 -19 OFFCURVE",
"421 14 OFFCURVE",
"516 14 CURVE SMOOTH",
"601 14 OFFCURVE",
"666 12 OFFCURVE",
"723 8 CURVE SMOOTH",
"892 -4 LINE",
"829 -179 LINE SMOOTH",
"827 -185 OFFCURVE",
"826 -191 OFFCURVE",
"826 -196 CURVE SMOOTH",
"826 -217 OFFCURVE",
"843 -230 OFFCURVE",
"860 -230 CURVE SMOOTH",
"874 -230 OFFCURVE",
"887 -222 OFFCURVE",
"894 -203 CURVE SMOOTH",
"966 -7 LINE",
"997 -8 OFFCURVE",
"1031 -9 OFFCURVE",
"1070 -9 CURVE SMOOTH",
"1251 -9 OFFCURVE",
"1347 40 OFFCURVE",
"1347 181 CURVE SMOOTH",
"1347 326 OFFCURVE",
"1230 375 OFFCURVE",
"1016 375 CURVE SMOOTH",
"996 375 OFFCURVE",
"984 356 OFFCURVE",
"984 337 CURVE SMOOTH",
"984 318 OFFCURVE",
"995 303 OFFCURVE",
"1010 303 CURVE SMOOTH"
);
}
);
width = 1377;
}
);
unicode = 109CF;
},
{
glyphname = u109D2;
lastChange = "2017-11-08 19:36:06 +0000";
layers = (
{
layerId = UUID0;
paths = (
{
closed = 1;
nodes = (
"1404 221 LINE SMOOTH",
"1364 97 OFFCURVE",
"1229 65 OFFCURVE",
"1125 65 CURVE SMOOTH",
"1000 65 OFFCURVE",
"881 71 OFFCURVE",
"758 76 CURVE SMOOTH",
"646 81 OFFCURVE",
"530 86 OFFCURVE",
"404 86 CURVE SMOOTH",
"273 86 OFFCURVE",
"156 62 OFFCURVE",
"45 3 CURVE SMOOTH",
"35 -2 OFFCURVE",
"30 -15 OFFCURVE",
"30 -27 CURVE SMOOTH",
"30 -43 OFFCURVE",
"39 -58 OFFCURVE",
"56 -58 CURVE SMOOTH",
"61 -58 OFFCURVE",
"66 -57 OFFCURVE",
"72 -54 CURVE SMOOTH",
"187 -2 OFFCURVE",
"283 18 OFFCURVE",
"403 18 CURVE SMOOTH",
"516 18 OFFCURVE",
"628 14 OFFCURVE",
"739 9 CURVE SMOOTH",
"871 3 OFFCURVE",
"1001 -3 OFFCURVE",
"1128 -3 CURVE SMOOTH",
"1274 -3 OFFCURVE",
"1421 50 OFFCURVE",
"1469 198 CURVE SMOOTH",
"1517 346 LINE SMOOTH",
"1520 356 OFFCURVE",
"1522 365 OFFCURVE",
"1522 374 CURVE SMOOTH",
"1522 389 OFFCURVE",
"1515 401 OFFCURVE",
"1491 401 CURVE SMOOTH",
"1473 401 OFFCURVE",
"1460 389 OFFCURVE",
"1453 369 CURVE SMOOTH"
);
}
);
width = 1552;
}
);
unicode = 109D2;
},
{
glyphname = u109D3;
lastChange = "2017-11-08 19:36:06 +0000";
layers = (
{
layerId = UUID0;
paths = (
{
closed = 1;
nodes = (
"1363 97 OFFCURVE",
"1230 65 OFFCURVE",
"1125 65 CURVE SMOOTH",
"1000 65 OFFCURVE",
"881 71 OFFCURVE",
"758 76 CURVE SMOOTH",
"646 81 OFFCURVE",
"530 86 OFFCURVE",
"404 86 CURVE SMOOTH",
"273 86 OFFCURVE",
"156 62 OFFCURVE",
"45 3 CURVE SMOOTH",
"35 -2 OFFCURVE",
"30 -15 OFFCURVE",
"30 -27 CURVE SMOOTH",
"30 -43 OFFCURVE",
"39 -58 OFFCURVE",
"56 -58 CURVE SMOOTH",
"61 -58 OFFCURVE",
"66 -57 OFFCURVE",
"72 -54 CURVE SMOOTH",
"187 -2 OFFCURVE",
"283 18 OFFCURVE",
"403 18 CURVE SMOOTH",
"519 18 OFFCURVE",
"634 14 OFFCURVE",
"747 9 CURVE SMOOTH",
"876 3 OFFCURVE",
"1003 -3 OFFCURVE",
"1128 -3 CURVE SMOOTH",
"1274 -3 OFFCURVE",
"1421 50 OFFCURVE",
"1469 198 CURVE SMOOTH",
"1517 346 LINE SMOOTH",
"1520 356 OFFCURVE",
"1522 365 OFFCURVE",
"1522 374 CURVE SMOOTH",
"1522 389 OFFCURVE",
"1515 401 OFFCURVE",
"1491 401 CURVE SMOOTH",
"1473 401 OFFCURVE",
"1460 389 OFFCURVE",
"1453 369 CURVE SMOOTH",
"1435 316 LINE SMOOTH",
"1426 289 OFFCURVE",
"1399 275 OFFCURVE",
"1363 275 CURVE SMOOTH",
"1333 275 OFFCURVE",
"1314 292 OFFCURVE",
"1314 327 CURVE SMOOTH",
"1314 348 OFFCURVE",
"1320 369 OFFCURVE",
"1320 384 CURVE SMOOTH",
"1320 395 OFFCURVE",
"1312 400 OFFCURVE",
"1297 400 CURVE SMOOTH",
"1275 400 OFFCURVE",
"1265 387 OFFCURVE",
"1261 378 CURVE SMOOTH",
"1253 357 OFFCURVE",
"1250 334 OFFCURVE",
"1250 313 CURVE SMOOTH",
"1250 263 OFFCURVE",
"1277 217 OFFCURVE",
"1358 217 CURVE SMOOTH",
"1375 217 OFFCURVE",
"1390 218 OFFCURVE",
"1404 221 CURVE"
);
}
);
width = 1552;
}
);
unicode = 109D3;
},
{
glyphname = u109D4;
lastChange = "2017-11-08 19:36:06 +0000";
layers = (
{
layerId = UUID0;
paths = (
{
closed = 1;
nodes = (
"1249 330 OFFCURVE",
"1232 275 OFFCURVE",
"1167 275 CURVE SMOOTH",
"1137 275 OFFCURVE",
"1118 292 OFFCURVE",
"1118 327 CURVE SMOOTH",
"1118 348 OFFCURVE",
"1124 369 OFFCURVE",
"1124 384 CURVE SMOOTH",
"1124 395 OFFCURVE",
"1116 400 OFFCURVE",
"1101 400 CURVE SMOOTH",
"1079 400 OFFCURVE",
"1069 387 OFFCURVE",
"1065 378 CURVE SMOOTH",
"1057 357 OFFCURVE",
"1054 334 OFFCURVE",
"1054 313 CURVE SMOOTH",
"1054 263 OFFCURVE",
"1081 217 OFFCURVE",
"1162 217 CURVE SMOOTH",
"1213 217 OFFCURVE",
"1246 231 OFFCURVE",
"1268 251 CURVE",
"1284 230 OFFCURVE",
"1313 217 OFFCURVE",
"1357 217 CURVE SMOOTH",
"1375 217 OFFCURVE",
"1390 218 OFFCURVE",
"1404 221 CURVE",
"1363 97 OFFCURVE",
"1230 65 OFFCURVE",
"1125 65 CURVE SMOOTH",
"1000 65 OFFCURVE",
"881 71 OFFCURVE",
"758 76 CURVE SMOOTH",
"646 81 OFFCURVE",
"530 86 OFFCURVE",
"404 86 CURVE SMOOTH",
"273 86 OFFCURVE",
"156 62 OFFCURVE",
"45 3 CURVE SMOOTH",
"35 -2 OFFCURVE",
"30 -15 OFFCURVE",
"30 -27 CURVE SMOOTH",
"30 -43 OFFCURVE",
"39 -58 OFFCURVE",
"56 -58 CURVE SMOOTH",
"61 -58 OFFCURVE",
"66 -57 OFFCURVE",
"72 -54 CURVE SMOOTH",
"187 -2 OFFCURVE",
"283 18 OFFCURVE",
"403 18 CURVE SMOOTH",
"516 18 OFFCURVE",
"628 14 OFFCURVE",
"738 9 CURVE SMOOTH",
"870 3 OFFCURVE",
"1000 -3 OFFCURVE",
"1128 -3 CURVE SMOOTH",
"1274 -3 OFFCURVE",
"1421 50 OFFCURVE",
"1469 198 CURVE SMOOTH",
"1517 346 LINE SMOOTH",
"1520 356 OFFCURVE",
"1522 365 OFFCURVE",
"1522 374 CURVE SMOOTH",
"1522 389 OFFCURVE",
"1515 401 OFFCURVE",
"1491 401 CURVE SMOOTH",
"1473 401 OFFCURVE",
"1460 389 OFFCURVE",
"1453 369 CURVE SMOOTH",
"1435 315 LINE SMOOTH",
"1426 289 OFFCURVE",
"1398 275 OFFCURVE",
"1362 275 CURVE SMOOTH",
"1332 275 OFFCURVE",
"1313 292 OFFCURVE",
"1313 327 CURVE SMOOTH",
"1313 336 LINE",
"1323 369 OFFCURVE",
"1327 375 OFFCURVE",
"1327 384 CURVE SMOOTH",
"1327 401 OFFCURVE",
"1311 401 OFFCURVE",
"1296 401 CURVE SMOOTH",
"1265 401 OFFCURVE",
"1262 389 OFFCURVE",
"1260 381 CURVE SMOOTH"
);
}
);
width = 1552;
}
);
unicode = 109D4;
},
{
glyphname = u109D5;
lastChange = "2017-11-08 19:36:06 +0000";
layers = (
{
layerId = UUID0;
paths = (
{
closed = 1;
nodes = (
"1052 330 OFFCURVE",
"1035 275 OFFCURVE",
"970 275 CURVE SMOOTH",
"940 275 OFFCURVE",
"921 292 OFFCURVE",
"921 327 CURVE SMOOTH",
"921 348 OFFCURVE",
"927 369 OFFCURVE",
"927 384 CURVE SMOOTH",
"927 395 OFFCURVE",
"919 400 OFFCURVE",
"904 400 CURVE SMOOTH",
"882 400 OFFCURVE",
"872 387 OFFCURVE",
"868 378 CURVE SMOOTH",
"860 357 OFFCURVE",
"857 334 OFFCURVE",
"857 313 CURVE SMOOTH",
"857 263 OFFCURVE",
"884 217 OFFCURVE",
"965 217 CURVE SMOOTH",
"1017 217 OFFCURVE",
"1049 231 OFFCURVE",
"1071 251 CURVE",
"1088 230 OFFCURVE",
"1116 217 OFFCURVE",
"1161 217 CURVE SMOOTH",
"1213 217 OFFCURVE",
"1245 231 OFFCURVE",
"1267 251 CURVE",
"1284 230 OFFCURVE",
"1312 217 OFFCURVE",
"1357 217 CURVE SMOOTH",
"1375 217 OFFCURVE",
"1390 218 OFFCURVE",
"1404 221 CURVE",
"1363 97 OFFCURVE",
"1230 65 OFFCURVE",
"1125 65 CURVE SMOOTH",
"1014 65 OFFCURVE",
"908 69 OFFCURVE",
"799 74 CURVE SMOOTH",
"674 80 OFFCURVE",
"546 86 OFFCURVE",
"404 86 CURVE SMOOTH",
"273 86 OFFCURVE",
"156 62 OFFCURVE",
"45 3 CURVE SMOOTH",
"35 -2 OFFCURVE",
"30 -15 OFFCURVE",
"30 -27 CURVE SMOOTH",
"30 -43 OFFCURVE",
"39 -58 OFFCURVE",
"56 -58 CURVE SMOOTH",
"61 -58 OFFCURVE",
"66 -57 OFFCURVE",
"72 -54 CURVE SMOOTH",
"187 -2 OFFCURVE",
"283 18 OFFCURVE",
"403 18 CURVE SMOOTH",
"530 18 OFFCURVE",
"655 12 OFFCURVE",
"778 7 CURVE SMOOTH",
"896 2 OFFCURVE",
"1013 -3 OFFCURVE",
"1128 -3 CURVE SMOOTH",
"1274 -3 OFFCURVE",
"1421 50 OFFCURVE",
"1469 198 CURVE SMOOTH",
"1517 346 LINE SMOOTH",
"1520 356 OFFCURVE",
"1522 365 OFFCURVE",
"1522 374 CURVE SMOOTH",
"1522 389 OFFCURVE",
"1515 401 OFFCURVE",
"1491 401 CURVE SMOOTH",
"1473 401 OFFCURVE",
"1460 389 OFFCURVE",
"1453 369 CURVE SMOOTH",
"1435 315 LINE",
"1421 292 OFFCURVE",
"1398 275 OFFCURVE",
"1362 275 CURVE SMOOTH",
"1332 275 OFFCURVE",
"1312 291 OFFCURVE",
"1312 323 CURVE SMOOTH",
"1312 333 OFFCURVE",
"1313 340 OFFCURVE",
"1319 359 CURVE SMOOTH",
"1321 364 OFFCURVE",
"1326 379 OFFCURVE",
"1326 384 CURVE SMOOTH",
"1326 401 OFFCURVE",
"1310 401 OFFCURVE",
"1295 401 CURVE SMOOTH",
"1264 401 OFFCURVE",
"1261 389 OFFCURVE",
"1259 381 CURVE SMOOTH",
"1248 330 OFFCURVE",
"1231 275 OFFCURVE",
"1166 275 CURVE SMOOTH",
"1136 275 OFFCURVE",
"1116 289 OFFCURVE",
"1116 324 CURVE SMOOTH",
"1116 335 OFFCURVE",
"1125 362 OFFCURVE",
"1127 370 CURVE SMOOTH",
"1129 377 OFFCURVE",
"1130 381 OFFCURVE",
"1130 384 CURVE SMOOTH",
"1130 401 OFFCURVE",
"1114 401 OFFCURVE",
"1099 401 CURVE SMOOTH",
"1068 401 OFFCURVE",
"1065 389 OFFCURVE",
"1063 381 CURVE SMOOTH"
);
}
);
width = 1552;
}
);
unicode = 109D5;
},
{
glyphname = u109D6;
lastChange = "2017-11-08 19:36:06 +0000";
layers = (
{
layerId = UUID0;
paths = (
{
closed = 1;
nodes = (
"1404 221 LINE SMOOTH",
"1363 97 OFFCURVE",
"1230 65 OFFCURVE",
"1125 65 CURVE SMOOTH",
"994 65 OFFCURVE",
"871 71 OFFCURVE",
"742 77 CURVE SMOOTH",
"635 82 OFFCURVE",
"524 86 OFFCURVE",
"404 86 CURVE SMOOTH",
"273 86 OFFCURVE",
"156 62 OFFCURVE",
"45 3 CURVE SMOOTH",
"35 -2 OFFCURVE",
"30 -15 OFFCURVE",
"30 -27 CURVE SMOOTH",
"30 -43 OFFCURVE",
"39 -58 OFFCURVE",
"56 -58 CURVE SMOOTH",
"61 -58 OFFCURVE",
"66 -57 OFFCURVE",
"72 -54 CURVE SMOOTH",
"187 -2 OFFCURVE",
"283 18 OFFCURVE",
"403 18 CURVE SMOOTH",
"514 18 OFFCURVE",
"624 14 OFFCURVE",
"733 9 CURVE SMOOTH",
"867 3 OFFCURVE",
"999 -3 OFFCURVE",
"1128 -3 CURVE SMOOTH",
"1274 -3 OFFCURVE",
"1421 50 OFFCURVE",
"1469 198 CURVE SMOOTH",
"1517 346 LINE SMOOTH",
"1520 356 OFFCURVE",
"1522 365 OFFCURVE",
"1522 374 CURVE SMOOTH",
"1522 389 OFFCURVE",
"1515 401 OFFCURVE",
"1491 401 CURVE SMOOTH",
"1473 401 OFFCURVE",
"1460 389 OFFCURVE",
"1453 369 CURVE SMOOTH"
);
},
{
closed = 1;
nodes = (
"1205 180 OFFCURVE",
"1193 192 OFFCURVE",
"1175 195 CURVE SMOOTH",
"897 243 LINE",
"921 260 OFFCURVE",
"938 287 OFFCURVE",
"938 329 CURVE SMOOTH",
"938 393 OFFCURVE",
"884 429 OFFCURVE",
"829 429 CURVE SMOOTH",
"780 429 OFFCURVE",
"741 403 OFFCURVE",
"729 383 CURVE SMOOTH",
"726 378 OFFCURVE",
"723 371 OFFCURVE",
"723 366 CURVE SMOOTH",
"723 352 OFFCURVE",
"736 340 OFFCURVE",
"752 340 CURVE SMOOTH",
"758 340 OFFCURVE",
"765 341 OFFCURVE",
"771 346 CURVE SMOOTH",
"781 354 OFFCURVE",
"794 371 OFFCURVE",
"826 371 CURVE SMOOTH",
"861 371 OFFCURVE",
"878 345 OFFCURVE",
"878 323 CURVE SMOOTH",
"878 277 OFFCURVE",
"822 266 OFFCURVE",
"794 261 CURVE SMOOTH",
"780 258 OFFCURVE",
"770 244 OFFCURVE",
"770 229 CURVE SMOOTH",
"770 218 OFFCURVE",
"777 207 OFFCURVE",
"791 205 CURVE SMOOTH",
"1161 143 LINE SMOOTH",
"1164 142 OFFCURVE",
"1172 141 OFFCURVE",
"1175 141 CURVE SMOOTH",
"1194 141 OFFCURVE",
"1205 153 OFFCURVE",
"1205 166 CURVE SMOOTH"
);
}
);
width = 1552;
}
);
unicode = 109D6;
},
{
glyphname = u109D7;
lastChange = "2017-11-08 19:36:06 +0000";
layers = (
{
layerId = UUID0;
paths = (
{
closed = 1;
nodes = (
"1404 221 LINE SMOOTH",
"1363 97 OFFCURVE",
"1230 65 OFFCURVE",
"1125 65 CURVE SMOOTH",
"1014 65 OFFCURVE",
"908 69 OFFCURVE",
"800 74 CURVE SMOOTH",
"675 80 OFFCURVE",
"546 86 OFFCURVE",
"404 86 CURVE SMOOTH",
"273 86 OFFCURVE",
"156 62 OFFCURVE",
"45 3 CURVE SMOOTH",
"35 -2 OFFCURVE",
"30 -15 OFFCURVE",
"30 -27 CURVE SMOOTH",
"30 -43 OFFCURVE",
"39 -58 OFFCURVE",
"56 -58 CURVE SMOOTH",
"61 -58 OFFCURVE",
"66 -57 OFFCURVE",
"72 -54 CURVE SMOOTH",
"187 -2 OFFCURVE",
"283 18 OFFCURVE",
"403 18 CURVE SMOOTH",
"530 18 OFFCURVE",
"656 12 OFFCURVE",
"780 7 CURVE SMOOTH",
"898 2 OFFCURVE",
"1014 -3 OFFCURVE",
"1128 -3 CURVE SMOOTH",
"1274 -3 OFFCURVE",
"1421 50 OFFCURVE",
"1469 198 CURVE SMOOTH",
"1517 346 LINE SMOOTH",
"1520 356 OFFCURVE",
"1522 365 OFFCURVE",
"1522 374 CURVE SMOOTH",
"1522 389 OFFCURVE",
"1515 401 OFFCURVE",
"1491 401 CURVE SMOOTH",
"1473 401 OFFCURVE",
"1460 389 OFFCURVE",
"1453 369 CURVE SMOOTH"
);
},
{
closed = 1;
nodes = (
"1027 338 LINE SMOOTH",
"1033 344 OFFCURVE",
"1036 350 OFFCURVE",
"1036 357 CURVE SMOOTH",
"1036 373 OFFCURVE",
"1022 388 OFFCURVE",
"1009 388 CURVE SMOOTH",
"1000 388 OFFCURVE",
"993 381 OFFCURVE",
"990 378 CURVE SMOOTH",
"807 215 LINE SMOOTH",
"802 210 OFFCURVE",
"795 201 OFFCURVE",
"795 187 CURVE SMOOTH",
"795 170 OFFCURVE",
"807 153 OFFCURVE",
"828 152 CURVE",
"891 165 OFFCURVE",
"949 171 OFFCURVE",
"1005 171 CURVE SMOOTH",
"1105 171 OFFCURVE",
"1217 141 OFFCURVE",
"1228 141 CURVE SMOOTH",
"1243 141 OFFCURVE",
"1255 154 OFFCURVE",
"1255 167 CURVE SMOOTH",
"1255 180 OFFCURVE",
"1248 197 OFFCURVE",
"1228 203 CURVE SMOOTH",
"1176 218 OFFCURVE",
"1086 229 OFFCURVE",
"1012 229 CURVE SMOOTH",
"973 229 OFFCURVE",
"934 226 OFFCURVE",
"894 220 CURVE"
);
},
{
closed = 1;
nodes = (
"949 412 LINE SMOOTH",
"955 417 OFFCURVE",
"957 424 OFFCURVE",
"957 430 CURVE SMOOTH",
"957 447 OFFCURVE",
"943 462 OFFCURVE",
"931 462 CURVE SMOOTH",
"920 462 OFFCURVE",
"914 453 OFFCURVE",
"911 451 CURVE SMOOTH",
"725 286 LINE SMOOTH",
"720 281 OFFCURVE",
"717 275 OFFCURVE",
"717 268 CURVE SMOOTH",
"717 253 OFFCURVE",
"728 238 OFFCURVE",
"743 238 CURVE SMOOTH",
"750 238 OFFCURVE",
"757 241 OFFCURVE",
"763 246 CURVE SMOOTH"
);
},
{
closed = 1;
nodes = (
"715 331 OFFCURVE",
"721 333 OFFCURVE",
"727 339 CURVE SMOOTH",
"862 458 LINE SMOOTH",
"868 464 OFFCURVE",
"871 470 OFFCURVE",
"871 477 CURVE SMOOTH",
"871 493 OFFCURVE",
"857 507 OFFCURVE",
"845 507 CURVE SMOOTH",
"835 507 OFFCURVE",
"828 500 OFFCURVE",
"824 497 CURVE SMOOTH",
"689 378 LINE SMOOTH",
"684 374 OFFCURVE",
"681 368 OFFCURVE",
"681 361 CURVE SMOOTH",
"681 347 OFFCURVE",
"692 331 OFFCURVE",
"707 331 CURVE SMOOTH"
);
}
);
width = 1552;
}
);
unicode = 109D7;
},
{
glyphname = u109D8;
lastChange = "2017-11-08 19:36:06 +0000";
layers = (
{
layerId = UUID0;
paths = (
{
closed = 1;
nodes = (
"1404 221 LINE SMOOTH",
"1363 97 OFFCURVE",
"1230 65 OFFCURVE",
"1125 65 CURVE SMOOTH",
"1009 65 OFFCURVE",
"898 70 OFFCURVE",
"785 75 CURVE SMOOTH",
"664 80 OFFCURVE",
"541 86 OFFCURVE",
"404 86 CURVE SMOOTH",
"273 86 OFFCURVE",
"156 62 OFFCURVE",
"45 3 CURVE SMOOTH",
"35 -2 OFFCURVE",
"30 -15 OFFCURVE",
"30 -27 CURVE SMOOTH",
"30 -43 OFFCURVE",
"39 -58 OFFCURVE",
"56 -58 CURVE SMOOTH",
"61 -58 OFFCURVE",
"66 -57 OFFCURVE",
"72 -54 CURVE SMOOTH",
"187 -2 OFFCURVE",
"283 18 OFFCURVE",
"403 18 CURVE SMOOTH",
"525 18 OFFCURVE",
"646 13 OFFCURVE",
"765 8 CURVE SMOOTH",
"888 3 OFFCURVE",
"1009 -3 OFFCURVE",
"1128 -3 CURVE SMOOTH",
"1274 -3 OFFCURVE",
"1421 50 OFFCURVE",
"1469 198 CURVE SMOOTH",
"1517 346 LINE SMOOTH",
"1520 356 OFFCURVE",
"1522 365 OFFCURVE",
"1522 374 CURVE SMOOTH",
"1522 389 OFFCURVE",
"1515 401 OFFCURVE",
"1491 401 CURVE SMOOTH",
"1473 401 OFFCURVE",
"1460 389 OFFCURVE",
"1453 369 CURVE SMOOTH"
);
},
{
closed = 1;
nodes = (
"781 259 OFFCURVE",
"770 244 OFFCURVE",
"770 229 CURVE SMOOTH",
"770 218 OFFCURVE",
"777 207 OFFCURVE",
"791 205 CURVE SMOOTH",
"1164 142 LINE SMOOTH",
"1169 141 OFFCURVE",
"1174 140 OFFCURVE",
"1179 140 CURVE SMOOTH",
"1196 140 OFFCURVE",
"1205 153 OFFCURVE",
"1205 166 CURVE SMOOTH",
"1205 179 OFFCURVE",
"1195 192 OFFCURVE",
"1175 195 CURVE SMOOTH",
"897 243 LINE",
"921 260 OFFCURVE",
"938 287 OFFCURVE",
"938 329 CURVE SMOOTH",
"938 389 OFFCURVE",
"889 425 OFFCURVE",
"835 428 CURVE",
"853 464 LINE SMOOTH",
"855 468 OFFCURVE",
"856 474 OFFCURVE",
"856 478 CURVE SMOOTH",
"856 495 OFFCURVE",
"842 506 OFFCURVE",
"828 506 CURVE SMOOTH",
"819 506 OFFCURVE",
"811 502 OFFCURVE",
"807 494 CURVE SMOOTH",
"751 386 OFFCURVE",
"689 309 OFFCURVE",
"591 242 CURVE SMOOTH",
"585 238 OFFCURVE",
"579 229 OFFCURVE",
"579 223 CURVE SMOOTH",
"579 209 OFFCURVE",
"591 197 OFFCURVE",
"606 197 CURVE SMOOTH",
"612 197 OFFCURVE",
"619 200 OFFCURVE",
"625 204 CURVE SMOOTH",
"693 246 OFFCURVE",
"752 303 OFFCURVE",
"799 370 CURVE",
"803 370 OFFCURVE",
"808 371 OFFCURVE",
"813 371 CURVE SMOOTH",
"861 371 OFFCURVE",
"878 345 OFFCURVE",
"878 323 CURVE SMOOTH",
"878 277 OFFCURVE",
"823 265 OFFCURVE",
"795 261 CURVE SMOOTH"
);
}
);
width = 1552;
}
);
unicode = 109D8;
},
{
glyphname = u109D9;
lastChange = "2017-11-08 19:36:06 +0000";
layers = (
{
layerId = UUID0;
paths = (
{
closed = 1;
nodes = (
"1265 501 OFFCURVE",
"1255 495 OFFCURVE",
"1255 485 CURVE SMOOTH",
"1255 473 OFFCURVE",
"1262 447 OFFCURVE",
"1262 429 CURVE SMOOTH",
"1262 388 OFFCURVE",
"1246 360 OFFCURVE",
"1220 333 CURVE SMOOTH",
"1075 187 LINE SMOOTH",
"1068 180 OFFCURVE",
"1064 171 OFFCURVE",
"1064 164 CURVE SMOOTH",
"1064 148 OFFCURVE",
"1078 137 OFFCURVE",
"1094 137 CURVE SMOOTH",
"1101 137 OFFCURVE",
"1112 140 OFFCURVE",
"1125 154 CURVE SMOOTH",
"1284 321 LINE SMOOTH",
"1312 350 OFFCURVE",
"1323 393 OFFCURVE",
"1323 432 CURVE SMOOTH",
"1323 453 OFFCURVE",
"1319 468 OFFCURVE",
"1312 485 CURVE SMOOTH",
"1308 496 OFFCURVE",
"1293 501 OFFCURVE",
"1280 501 CURVE SMOOTH"
);
},
{
closed = 1;
nodes = (
"1155 501 OFFCURVE",
"1144 495 OFFCURVE",
"1144 481 CURVE SMOOTH",
"1144 473 LINE SMOOTH",
"1144 432 OFFCURVE",
"1129 404 OFFCURVE",
"1102 377 CURVE SMOOTH",
"977 249 LINE SMOOTH",
"970 242 OFFCURVE",
"966 233 OFFCURVE",
"966 226 CURVE SMOOTH",
"966 211 OFFCURVE",
"980 199 OFFCURVE",
"996 199 CURVE SMOOTH",
"1003 199 OFFCURVE",
"1013 202 OFFCURVE",
"1027 216 CURVE SMOOTH",
"1166 364 LINE SMOOTH",
"1192 392 OFFCURVE",
"1205 431 OFFCURVE",
"1205 481 CURVE SMOOTH",
"1205 496 OFFCURVE",
"1189 501 OFFCURVE",
"1176 501 CURVE SMOOTH"
);
},
{
closed = 1;
nodes = (
"1404 221 LINE SMOOTH",
"1363 97 OFFCURVE",
"1230 65 OFFCURVE",
"1125 65 CURVE SMOOTH",
"1014 65 OFFCURVE",
"907 69 OFFCURVE",
"798 74 CURVE SMOOTH",
"673 80 OFFCURVE",
"545 86 OFFCURVE",
"404 86 CURVE SMOOTH",
"273 86 OFFCURVE",
"156 62 OFFCURVE",
"45 3 CURVE SMOOTH",
"35 -2 OFFCURVE",
"30 -15 OFFCURVE",
"30 -27 CURVE SMOOTH",
"30 -43 OFFCURVE",
"39 -58 OFFCURVE",
"56 -58 CURVE SMOOTH",
"61 -58 OFFCURVE",
"66 -57 OFFCURVE",
"72 -54 CURVE SMOOTH",
"187 -2 OFFCURVE",
"283 18 OFFCURVE",
"403 18 CURVE SMOOTH",
"532 18 OFFCURVE",
"660 12 OFFCURVE",
"786 7 CURVE SMOOTH",
"902 2 OFFCURVE",
"1016 -3 OFFCURVE",
"1128 -3 CURVE SMOOTH",
"1274 -3 OFFCURVE",
"1421 50 OFFCURVE",
"1469 198 CURVE SMOOTH",
"1517 346 LINE SMOOTH",
"1520 356 OFFCURVE",
"1522 365 OFFCURVE",
"1522 374 CURVE SMOOTH",
"1522 389 OFFCURVE",
"1515 401 OFFCURVE",
"1491 401 CURVE SMOOTH",
"1473 401 OFFCURVE",
"1460 389 OFFCURVE",
"1453 369 CURVE SMOOTH"
);
}
);
width = 1552;
}
);
unicode = 109D9;
},
{
glyphname = u109DA;
lastChange = "2017-11-08 19:36:06 +0000";
layers = (
{
layerId = UUID0;
paths = (
{
closed = 1;
nodes = (
"1404 221 LINE SMOOTH",
"1363 97 OFFCURVE",
"1230 65 OFFCURVE",
"1125 65 CURVE SMOOTH",
"1012 65 OFFCURVE",
"904 69 OFFCURVE",
"794 74 CURVE SMOOTH",
"671 80 OFFCURVE",
"544 86 OFFCURVE",
"404 86 CURVE SMOOTH",
"273 86 OFFCURVE",
"156 62 OFFCURVE",
"45 3 CURVE SMOOTH",
"35 -2 OFFCURVE",
"30 -15 OFFCURVE",
"30 -27 CURVE SMOOTH",
"30 -43 OFFCURVE",
"39 -58 OFFCURVE",
"56 -58 CURVE SMOOTH",
"61 -58 OFFCURVE",
"66 -57 OFFCURVE",
"72 -54 CURVE SMOOTH",
"187 -2 OFFCURVE",
"283 18 OFFCURVE",
"403 18 CURVE SMOOTH",
"537 18 OFFCURVE",
"670 13 OFFCURVE",
"800 7 CURVE SMOOTH",
"911 2 OFFCURVE",
"1020 -3 OFFCURVE",
"1128 -3 CURVE SMOOTH",
"1274 -3 OFFCURVE",
"1421 50 OFFCURVE",
"1469 198 CURVE SMOOTH",
"1517 346 LINE SMOOTH",
"1520 356 OFFCURVE",
"1522 365 OFFCURVE",
"1522 374 CURVE SMOOTH",
"1522 389 OFFCURVE",
"1515 401 OFFCURVE",
"1491 401 CURVE SMOOTH",
"1473 401 OFFCURVE",
"1460 389 OFFCURVE",
"1453 369 CURVE SMOOTH"
);
},
{
closed = 1;
nodes = (
"1036 290 LINE",
"1094 290 OFFCURVE",
"1142 325 OFFCURVE",
"1142 379 CURVE SMOOTH",
"1142 443 OFFCURVE",
"1094 476 OFFCURVE",
"1038 476 CURVE SMOOTH",
"1020 476 OFFCURVE",
"1009 474 OFFCURVE",
"1002 470 CURVE SMOOTH",
"991 464 OFFCURVE",
"988 458 OFFCURVE",
"988 448 CURVE SMOOTH",
"988 433 OFFCURVE",
"997 419 OFFCURVE",
"1010 419 CURVE SMOOTH",
"1018 419 OFFCURVE",
"1022 420 OFFCURVE",
"1027 420 CURVE SMOOTH",
"1070 420 OFFCURVE",
"1082 401 OFFCURVE",
"1082 379 CURVE SMOOTH",
"1082 351 OFFCURVE",
"1060 335 OFFCURVE",
"1021 335 CURVE SMOOTH",
"1013 335 OFFCURVE",
"1002 338 OFFCURVE",
"995 338 CURVE SMOOTH",
"978 338 OFFCURVE",
"977 321 OFFCURVE",
"977 302 CURVE SMOOTH",
"977 141 LINE SMOOTH",
"977 119 OFFCURVE",
"992 108 OFFCURVE",
"1006 108 CURVE SMOOTH",
"1021 108 OFFCURVE",
"1036 119 OFFCURVE",
"1036 141 CURVE SMOOTH"
);
}
);
width = 1552;
}
);
unicode = 109DA;
},
{
glyphname = u109DB;
lastChange = "2017-11-08 19:36:06 +0000";
layers = (
{
layerId = UUID0;
paths = (
{
closed = 1;
nodes = (
"1278 233 LINE SMOOTH",
"1329 233 OFFCURVE",
"1400 222 OFFCURVE",
"1400 166 CURVE SMOOTH",
"1400 73 OFFCURVE",
"1210 65 OFFCURVE",
"1145 65 CURVE SMOOTH",
"1036 65 OFFCURVE",
"927 69 OFFCURVE",
"816 74 CURVE SMOOTH",
"684 80 OFFCURVE",
"548 86 OFFCURVE",
"404 86 CURVE SMOOTH",
"273 86 OFFCURVE",
"156 62 OFFCURVE",
"45 3 CURVE SMOOTH",
"35 -2 OFFCURVE",
"30 -15 OFFCURVE",
"30 -27 CURVE SMOOTH",
"30 -43 OFFCURVE",
"39 -58 OFFCURVE",
"56 -58 CURVE SMOOTH",
"61 -58 OFFCURVE",
"66 -57 OFFCURVE",
"72 -54 CURVE SMOOTH",
"187 -2 OFFCURVE",
"283 18 OFFCURVE",
"403 18 CURVE SMOOTH",
"533 18 OFFCURVE",
"668 13 OFFCURVE",
"800 7 CURVE SMOOTH",
"919 2 OFFCURVE",
"1037 -3 OFFCURVE",
"1148 -3 CURVE SMOOTH",
"1162 -3 LINE",
"1099 -179 LINE SMOOTH",
"1097 -185 OFFCURVE",
"1096 -191 OFFCURVE",
"1096 -196 CURVE SMOOTH",
"1096 -217 OFFCURVE",
"1113 -230 OFFCURVE",
"1130 -230 CURVE SMOOTH",
"1144 -230 OFFCURVE",
"1157 -222 OFFCURVE",
"1164 -203 CURVE SMOOTH",
"1238 0 LINE",
"1368 9 OFFCURVE",
"1472 46 OFFCURVE",
"1472 173 CURVE SMOOTH",
"1472 264 OFFCURVE",
"1387 299 OFFCURVE",
"1285 299 CURVE SMOOTH",
"1253 299 LINE",
"1254 323 OFFCURVE",
"1277 334 OFFCURVE",
"1314 340 CURVE SMOOTH",
"1386 351 OFFCURVE",
"1441 372 OFFCURVE",
"1441 448 CURVE SMOOTH",
"1441 548 OFFCURVE",
"1341 550 OFFCURVE",
"1268 550 CURVE SMOOTH",
"1153 550 LINE SMOOTH",
"1128 550 OFFCURVE",
"1122 533 OFFCURVE",
"1122 517 CURVE SMOOTH",
"1122 506 OFFCURVE",
"1122 484 OFFCURVE",
"1154 484 CURVE SMOOTH",
"1270 484 LINE SMOOTH",
"1332 484 OFFCURVE",
"1369 472 OFFCURVE",
"1369 445 CURVE SMOOTH",
"1369 413 OFFCURVE",
"1331 404 OFFCURVE",
"1293 396 CURVE SMOOTH",
"1234 384 OFFCURVE",
"1189 375 OFFCURVE",
"1189 307 CURVE SMOOTH",
"1189 247 OFFCURVE",
"1199 233 OFFCURVE",
"1214 233 CURVE"
);
}
);
width = 1502;
}
);
unicode = 109DB;
},
{
glyphname = u109DC;
lastChange = "2017-11-08 19:36:06 +0000";
layers = (
{
layerId = UUID0;
paths = (
{
closed = 1;
nodes = (
"1253 299 LINE",
"1254 323 OFFCURVE",
"1277 334 OFFCURVE",
"1314 340 CURVE SMOOTH",
"1386 351 OFFCURVE",
"1441 372 OFFCURVE",
"1441 448 CURVE SMOOTH",
"1441 548 OFFCURVE",
"1341 550 OFFCURVE",
"1268 550 CURVE SMOOTH",
"1153 550 LINE SMOOTH",
"1128 550 OFFCURVE",
"1122 533 OFFCURVE",
"1122 517 CURVE SMOOTH",
"1122 506 OFFCURVE",
"1122 484 OFFCURVE",
"1154 484 CURVE SMOOTH",
"1270 484 LINE SMOOTH",
"1332 484 OFFCURVE",
"1369 472 OFFCURVE",
"1369 445 CURVE SMOOTH",
"1369 413 OFFCURVE",
"1331 404 OFFCURVE",
"1293 396 CURVE SMOOTH",
"1234 384 OFFCURVE",
"1189 375 OFFCURVE",
"1189 307 CURVE SMOOTH",
"1189 247 OFFCURVE",
"1199 233 OFFCURVE",
"1214 233 CURVE SMOOTH",
"1278 233 LINE",
"1329 233 OFFCURVE",
"1400 222 OFFCURVE",
"1400 166 CURVE SMOOTH",
"1400 73 OFFCURVE",
"1210 65 OFFCURVE",
"1145 65 CURVE SMOOTH",
"1041 65 OFFCURVE",
"938 68 OFFCURVE",
"832 73 CURVE SMOOTH",
"695 79 OFFCURVE",
"554 86 OFFCURVE",
"404 86 CURVE SMOOTH",
"273 86 OFFCURVE",
"156 62 OFFCURVE",
"45 3 CURVE SMOOTH",
"35 -2 OFFCURVE",
"30 -15 OFFCURVE",
"30 -27 CURVE SMOOTH",
"30 -43 OFFCURVE",
"39 -58 OFFCURVE",
"56 -58 CURVE SMOOTH",
"61 -58 OFFCURVE",
"66 -57 OFFCURVE",
"72 -54 CURVE SMOOTH",
"187 -2 OFFCURVE",
"283 18 OFFCURVE",
"403 18 CURVE SMOOTH",
"540 18 OFFCURVE",
"680 12 OFFCURVE",
"819 6 CURVE SMOOTH",
"861 4 OFFCURVE",
"903 2 OFFCURVE",
"944 1 CURVE",
"879 -179 LINE SMOOTH",
"877 -185 OFFCURVE",
"876 -191 OFFCURVE",
"876 -196 CURVE SMOOTH",
"876 -217 OFFCURVE",
"893 -230 OFFCURVE",
"910 -230 CURVE SMOOTH",
"924 -230 OFFCURVE",
"937 -222 OFFCURVE",
"944 -203 CURVE SMOOTH",
"1018 -1 LINE",
"1062 -2 OFFCURVE",
"1105 -3 OFFCURVE",
"1148 -3 CURVE SMOOTH",
"1162 -3 LINE",
"1099 -179 LINE SMOOTH",
"1097 -185 OFFCURVE",
"1096 -191 OFFCURVE",
"1096 -196 CURVE SMOOTH",
"1096 -217 OFFCURVE",
"1113 -230 OFFCURVE",
"1130 -230 CURVE SMOOTH",
"1144 -230 OFFCURVE",
"1157 -222 OFFCURVE",
"1164 -203 CURVE SMOOTH",
"1238 0 LINE",
"1368 9 OFFCURVE",
"1472 46 OFFCURVE",
"1472 173 CURVE SMOOTH",
"1472 264 OFFCURVE",
"1387 299 OFFCURVE",
"1285 299 CURVE SMOOTH"
);
}
);
width = 1502;
}
);
unicode = 109DC;
},
{
glyphname = u109DD;
lastChange = "2017-11-08 19:36:06 +0000";
layers = (
{
layerId = UUID0;
paths = (
{
closed = 1;
nodes = (
"1278 233 LINE SMOOTH",
"1329 233 OFFCURVE",
"1400 222 OFFCURVE",
"1400 166 CURVE SMOOTH",
"1400 73 OFFCURVE",
"1210 65 OFFCURVE",
"1145 65 CURVE SMOOTH",
"1011 65 OFFCURVE",
"877 71 OFFCURVE",
"739 77 CURVE SMOOTH",
"631 82 OFFCURVE",
"520 86 OFFCURVE",
"404 86 CURVE SMOOTH",
"273 86 OFFCURVE",
"156 62 OFFCURVE",
"45 3 CURVE SMOOTH",
"35 -2 OFFCURVE",
"30 -15 OFFCURVE",
"30 -27 CURVE SMOOTH",
"30 -43 OFFCURVE",
"39 -58 OFFCURVE",
"56 -58 CURVE SMOOTH",
"61 -58 OFFCURVE",
"66 -57 OFFCURVE",
"72 -54 CURVE SMOOTH",
"187 -2 OFFCURVE",
"283 18 OFFCURVE",
"403 18 CURVE SMOOTH",
"509 18 OFFCURVE",
"619 14 OFFCURVE",
"727 10 CURVE",
"659 -179 LINE SMOOTH",
"657 -185 OFFCURVE",
"656 -191 OFFCURVE",
"656 -196 CURVE SMOOTH",
"656 -217 OFFCURVE",
"673 -230 OFFCURVE",
"690 -230 CURVE SMOOTH",
"704 -230 OFFCURVE",
"717 -222 OFFCURVE",
"724 -203 CURVE SMOOTH",
"801 6 LINE",
"849 4 OFFCURVE",
"897 2 OFFCURVE",
"944 1 CURVE",
"879 -179 LINE SMOOTH",
"877 -185 OFFCURVE",
"876 -191 OFFCURVE",
"876 -196 CURVE SMOOTH",
"876 -217 OFFCURVE",
"893 -230 OFFCURVE",
"910 -230 CURVE SMOOTH",
"924 -230 OFFCURVE",
"937 -222 OFFCURVE",
"944 -203 CURVE SMOOTH",
"1018 -1 LINE",
"1062 -2 OFFCURVE",
"1105 -3 OFFCURVE",
"1148 -3 CURVE SMOOTH",
"1162 -3 LINE",
"1099 -179 LINE SMOOTH",
"1097 -185 OFFCURVE",
"1096 -191 OFFCURVE",
"1096 -196 CURVE SMOOTH",
"1096 -217 OFFCURVE",
"1113 -230 OFFCURVE",
"1130 -230 CURVE SMOOTH",
"1144 -230 OFFCURVE",
"1157 -222 OFFCURVE",
"1164 -203 CURVE SMOOTH",
"1238 0 LINE",
"1368 9 OFFCURVE",
"1472 46 OFFCURVE",
"1472 173 CURVE SMOOTH",
"1472 264 OFFCURVE",
"1387 299 OFFCURVE",
"1285 299 CURVE SMOOTH",
"1253 299 LINE",
"1254 323 OFFCURVE",
"1277 334 OFFCURVE",
"1314 340 CURVE SMOOTH",
"1386 351 OFFCURVE",
"1441 372 OFFCURVE",
"1441 448 CURVE SMOOTH",
"1441 548 OFFCURVE",
"1341 550 OFFCURVE",
"1268 550 CURVE SMOOTH",
"1153 550 LINE SMOOTH",
"1128 550 OFFCURVE",
"1122 533 OFFCURVE",
"1122 517 CURVE SMOOTH",
"1122 506 OFFCURVE",
"1122 484 OFFCURVE",
"1154 484 CURVE SMOOTH",
"1270 484 LINE SMOOTH",
"1332 484 OFFCURVE",
"1369 472 OFFCURVE",
"1369 445 CURVE SMOOTH",
"1369 413 OFFCURVE",
"1331 404 OFFCURVE",
"1293 396 CURVE SMOOTH",
"1234 384 OFFCURVE",
"1189 375 OFFCURVE",
"1189 307 CURVE SMOOTH",
"1189 247 OFFCURVE",
"1199 233 OFFCURVE",
"1214 233 CURVE SMOOTH"
);
}
);
width = 1502;
}
);
unicode = 109DD;
},
{
glyphname = u109DE;
lastChange = "2017-11-08 19:36:06 +0000";
layers = (
{
layerId = UUID0;
paths = (
{
closed = 1;
nodes = (
"1278 233 LINE SMOOTH",
"1329 233 OFFCURVE",
"1400 222 OFFCURVE",
"1400 166 CURVE SMOOTH",
"1400 73 OFFCURVE",
"1210 65 OFFCURVE",
"1145 65 CURVE SMOOTH",
"1030 65 OFFCURVE",
"915 70 OFFCURVE",
"797 75 CURVE SMOOTH",
"671 80 OFFCURVE",
"541 86 OFFCURVE",
"404 86 CURVE SMOOTH",
"273 86 OFFCURVE",
"156 62 OFFCURVE",
"45 3 CURVE SMOOTH",
"35 -2 OFFCURVE",
"30 -15 OFFCURVE",
"30 -27 CURVE SMOOTH",
"30 -43 OFFCURVE",
"39 -58 OFFCURVE",
"56 -58 CURVE SMOOTH",
"61 -58 OFFCURVE",
"66 -57 OFFCURVE",
"72 -54 CURVE SMOOTH",
"187 -2 OFFCURVE",
"283 18 OFFCURVE",
"403 18 CURVE SMOOTH",
"438 18 OFFCURVE",
"474 17 OFFCURVE",
"510 17 CURVE",
"439 -179 LINE SMOOTH",
"437 -185 OFFCURVE",
"436 -191 OFFCURVE",
"436 -196 CURVE SMOOTH",
"436 -217 OFFCURVE",
"453 -230 OFFCURVE",
"470 -230 CURVE SMOOTH",
"484 -230 OFFCURVE",
"497 -222 OFFCURVE",
"504 -203 CURVE SMOOTH",
"584 15 LINE",
"727 10 LINE",
"659 -179 LINE SMOOTH",
"657 -185 OFFCURVE",
"656 -191 OFFCURVE",
"656 -196 CURVE SMOOTH",
"656 -217 OFFCURVE",
"673 -230 OFFCURVE",
"690 -230 CURVE SMOOTH",
"704 -230 OFFCURVE",
"717 -222 OFFCURVE",
"724 -203 CURVE SMOOTH",
"801 6 LINE",
"849 4 OFFCURVE",
"897 2 OFFCURVE",
"944 1 CURVE",
"879 -179 LINE SMOOTH",
"877 -185 OFFCURVE",
"876 -191 OFFCURVE",
"876 -196 CURVE SMOOTH",
"876 -217 OFFCURVE",
"893 -230 OFFCURVE",
"910 -230 CURVE SMOOTH",
"924 -230 OFFCURVE",
"937 -222 OFFCURVE",
"944 -203 CURVE SMOOTH",
"1018 -1 LINE",
"1062 -2 OFFCURVE",
"1105 -3 OFFCURVE",
"1148 -3 CURVE SMOOTH",
"1162 -3 LINE",
"1099 -179 LINE SMOOTH",
"1097 -185 OFFCURVE",
"1096 -191 OFFCURVE",
"1096 -196 CURVE SMOOTH",
"1096 -217 OFFCURVE",
"1113 -230 OFFCURVE",
"1130 -230 CURVE SMOOTH",
"1144 -230 OFFCURVE",
"1157 -222 OFFCURVE",
"1164 -203 CURVE SMOOTH",
"1238 0 LINE",
"1368 9 OFFCURVE",
"1472 46 OFFCURVE",
"1472 173 CURVE SMOOTH",
"1472 264 OFFCURVE",
"1387 299 OFFCURVE",
"1285 299 CURVE SMOOTH",
"1253 299 LINE",
"1254 323 OFFCURVE",
"1277 334 OFFCURVE",
"1314 340 CURVE SMOOTH",
"1386 351 OFFCURVE",
"1441 372 OFFCURVE",
"1441 448 CURVE SMOOTH",
"1441 548 OFFCURVE",
"1341 550 OFFCURVE",
"1268 550 CURVE SMOOTH",
"1153 550 LINE SMOOTH",
"1128 550 OFFCURVE",
"1122 533 OFFCURVE",
"1122 517 CURVE SMOOTH",
"1122 506 OFFCURVE",
"1122 484 OFFCURVE",
"1154 484 CURVE SMOOTH",
"1270 484 LINE SMOOTH",
"1332 484 OFFCURVE",
"1369 472 OFFCURVE",
"1369 445 CURVE SMOOTH",
"1369 413 OFFCURVE",
"1331 404 OFFCURVE",
"1293 396 CURVE SMOOTH",
"1234 384 OFFCURVE",
"1189 375 OFFCURVE",
"1189 307 CURVE SMOOTH",
"1189 247 OFFCURVE",
"1199 233 OFFCURVE",
"1214 233 CURVE SMOOTH"
);
}
);
width = 1502;
}
);
unicode = 109DE;
},
{
glyphname = u109DF;
lastChange = "2017-11-08 19:36:06 +0000";
layers = (
{
layerId = UUID0;
paths = (
{
closed = 1;
nodes = (
"1385 -301 OFFCURVE",
"1374 -288 OFFCURVE",
"1354 -285 CURVE SMOOTH",
"1077 -237 LINE",
"1101 -219 OFFCURVE",
"1118 -192 OFFCURVE",
"1118 -151 CURVE SMOOTH",
"1118 -87 OFFCURVE",
"1064 -51 OFFCURVE",
"1009 -51 CURVE SMOOTH",
"966 -51 OFFCURVE",
"925 -72 OFFCURVE",
"910 -96 CURVE SMOOTH",
"906 -102 OFFCURVE",
"903 -109 OFFCURVE",
"903 -114 CURVE SMOOTH",
"903 -128 OFFCURVE",
"916 -140 OFFCURVE",
"932 -140 CURVE SMOOTH",
"938 -140 OFFCURVE",
"945 -139 OFFCURVE",
"951 -134 CURVE SMOOTH",
"961 -126 OFFCURVE",
"974 -109 OFFCURVE",
"1006 -109 CURVE SMOOTH",
"1041 -109 OFFCURVE",
"1058 -135 OFFCURVE",
"1058 -157 CURVE SMOOTH",
"1058 -203 OFFCURVE",
"1002 -215 OFFCURVE",
"974 -219 CURVE SMOOTH",
"960 -221 OFFCURVE",
"950 -236 OFFCURVE",
"950 -251 CURVE SMOOTH",
"950 -262 OFFCURVE",
"957 -273 OFFCURVE",
"971 -275 CURVE SMOOTH",
"1343 -338 LINE SMOOTH",
"1349 -339 OFFCURVE",
"1352 -339 OFFCURVE",
"1355 -339 CURVE SMOOTH",
"1374 -339 OFFCURVE",
"1385 -327 OFFCURVE",
"1385 -314 CURVE SMOOTH"
);
},
{
closed = 1;
nodes = (
"1253 299 LINE",
"1254 323 OFFCURVE",
"1277 334 OFFCURVE",
"1314 340 CURVE SMOOTH",
"1386 351 OFFCURVE",
"1441 372 OFFCURVE",
"1441 448 CURVE SMOOTH",
"1441 548 OFFCURVE",
"1341 550 OFFCURVE",
"1268 550 CURVE SMOOTH",
"1153 550 LINE SMOOTH",
"1128 550 OFFCURVE",
"1122 533 OFFCURVE",
"1122 517 CURVE SMOOTH",
"1122 506 OFFCURVE",
"1122 484 OFFCURVE",
"1154 484 CURVE SMOOTH",
"1270 484 LINE SMOOTH",
"1332 484 OFFCURVE",
"1369 472 OFFCURVE",
"1369 445 CURVE SMOOTH",
"1369 413 OFFCURVE",
"1331 404 OFFCURVE",
"1293 396 CURVE SMOOTH",
"1234 384 OFFCURVE",
"1189 375 OFFCURVE",
"1189 307 CURVE SMOOTH",
"1189 247 OFFCURVE",
"1199 233 OFFCURVE",
"1214 233 CURVE SMOOTH",
"1278 233 LINE SMOOTH",
"1329 233 OFFCURVE",
"1400 222 OFFCURVE",
"1400 166 CURVE SMOOTH",
"1400 73 OFFCURVE",
"1210 65 OFFCURVE",
"1145 65 CURVE SMOOTH",
"1037 65 OFFCURVE",
"929 69 OFFCURVE",
"819 74 CURVE SMOOTH",
"686 80 OFFCURVE",
"549 86 OFFCURVE",
"404 86 CURVE SMOOTH",
"273 86 OFFCURVE",
"156 62 OFFCURVE",
"45 3 CURVE SMOOTH",
"35 -2 OFFCURVE",
"30 -15 OFFCURVE",
"30 -27 CURVE SMOOTH",
"30 -43 OFFCURVE",
"39 -58 OFFCURVE",
"56 -58 CURVE SMOOTH",
"61 -58 OFFCURVE",
"66 -57 OFFCURVE",
"72 -54 CURVE SMOOTH",
"187 -2 OFFCURVE",
"283 18 OFFCURVE",
"403 18 CURVE SMOOTH",
"538 18 OFFCURVE",
"677 12 OFFCURVE",
"813 6 CURVE SMOOTH",
"928 1 OFFCURVE",
"1041 -3 OFFCURVE",
"1148 -3 CURVE SMOOTH",
"1317 -3 OFFCURVE",
"1472 18 OFFCURVE",
"1472 173 CURVE SMOOTH",
"1472 264 OFFCURVE",
"1387 299 OFFCURVE",
"1285 299 CURVE SMOOTH"
);
}
);
width = 1502;
}
);
unicode = 109DF;
},
{
glyphname = u109E0;
lastChange = "2017-11-08 19:36:06 +0000";
layers = (
{
layerId = UUID0;
paths = (
{
closed = 1;
nodes = (
"1278 233 LINE SMOOTH",
"1329 233 OFFCURVE",
"1400 222 OFFCURVE",
"1400 166 CURVE SMOOTH",
"1400 73 OFFCURVE",
"1210 65 OFFCURVE",
"1145 65 CURVE SMOOTH",
"906 65 OFFCURVE",
"669 86 OFFCURVE",
"404 86 CURVE SMOOTH",
"273 86 OFFCURVE",
"156 62 OFFCURVE",
"45 3 CURVE SMOOTH",
"35 -2 OFFCURVE",
"30 -15 OFFCURVE",
"30 -27 CURVE SMOOTH",
"30 -43 OFFCURVE",
"39 -58 OFFCURVE",
"56 -58 CURVE SMOOTH",
"61 -58 OFFCURVE",
"66 -57 OFFCURVE",
"72 -54 CURVE SMOOTH",
"187 -2 OFFCURVE",
"283 18 OFFCURVE",
"403 18 CURVE SMOOTH",
"651 18 OFFCURVE",
"914 -3 OFFCURVE",
"1148 -3 CURVE SMOOTH",
"1317 -3 OFFCURVE",
"1472 18 OFFCURVE",
"1472 173 CURVE SMOOTH",
"1472 264 OFFCURVE",
"1387 299 OFFCURVE",
"1285 299 CURVE SMOOTH",
"1253 299 LINE",
"1254 323 OFFCURVE",
"1277 334 OFFCURVE",
"1314 340 CURVE SMOOTH",
"1386 351 OFFCURVE",
"1441 372 OFFCURVE",
"1441 448 CURVE SMOOTH",
"1441 548 OFFCURVE",
"1341 550 OFFCURVE",
"1268 550 CURVE SMOOTH",
"1153 550 LINE SMOOTH",
"1128 550 OFFCURVE",
"1122 533 OFFCURVE",
"1122 517 CURVE SMOOTH",
"1122 506 OFFCURVE",
"1122 484 OFFCURVE",
"1154 484 CURVE SMOOTH",
"1270 484 LINE SMOOTH",
"1332 484 OFFCURVE",
"1369 472 OFFCURVE",
"1369 445 CURVE SMOOTH",
"1369 413 OFFCURVE",
"1331 404 OFFCURVE",
"1293 396 CURVE SMOOTH",
"1234 384 OFFCURVE",
"1189 375 OFFCURVE",
"1189 307 CURVE SMOOTH",
"1189 247 OFFCURVE",
"1199 233 OFFCURVE",
"1214 233 CURVE SMOOTH"
);
},
{
closed = 1;
nodes = (
"1127 -202 LINE SMOOTH",
"1133 -196 OFFCURVE",
"1136 -190 OFFCURVE",
"1136 -183 CURVE SMOOTH",
"1136 -167 OFFCURVE",
"1122 -152 OFFCURVE",
"1109 -152 CURVE SMOOTH",
"1103 -152 OFFCURVE",
"1096 -157 OFFCURVE",
"1090 -162 CURVE SMOOTH",
"906 -325 LINE SMOOTH",
"901 -330 OFFCURVE",
"895 -339 OFFCURVE",
"895 -353 CURVE SMOOTH",
"895 -370 OFFCURVE",
"911 -388 OFFCURVE",
"928 -388 CURVE SMOOTH",
"935 -388 OFFCURVE",
"1049 -369 OFFCURVE",
"1105 -369 CURVE SMOOTH",
"1227 -369 OFFCURVE",
"1326 -401 OFFCURVE",
"1332 -401 CURVE SMOOTH",
"1341 -401 OFFCURVE",
"1355 -386 OFFCURVE",
"1355 -373 CURVE SMOOTH",
"1355 -360 OFFCURVE",
"1350 -343 OFFCURVE",
"1328 -337 CURVE SMOOTH",
"1258 -317 OFFCURVE",
"1186 -311 OFFCURVE",
"1112 -311 CURVE SMOOTH",
"1073 -311 OFFCURVE",
"1034 -314 OFFCURVE",
"994 -319 CURVE"
);
},
{
closed = 1;
nodes = (
"1049 -128 LINE SMOOTH",
"1055 -123 OFFCURVE",
"1057 -116 OFFCURVE",
"1057 -110 CURVE SMOOTH",
"1057 -93 OFFCURVE",
"1043 -78 OFFCURVE",
"1031 -78 CURVE SMOOTH",
"1025 -78 OFFCURVE",
"1017 -84 OFFCURVE",
"1011 -89 CURVE SMOOTH",
"825 -254 LINE SMOOTH",
"820 -259 OFFCURVE",
"817 -265 OFFCURVE",
"817 -272 CURVE SMOOTH",
"817 -287 OFFCURVE",
"828 -302 OFFCURVE",
"843 -302 CURVE SMOOTH",
"850 -302 OFFCURVE",
"857 -299 OFFCURVE",
"863 -294 CURVE SMOOTH"
);
},
{
closed = 1;
nodes = (
"815 -209 OFFCURVE",
"822 -206 OFFCURVE",
"828 -200 CURVE SMOOTH",
"962 -82 LINE SMOOTH",
"968 -76 OFFCURVE",
"971 -70 OFFCURVE",
"971 -63 CURVE SMOOTH",
"971 -47 OFFCURVE",
"957 -33 OFFCURVE",
"945 -33 CURVE SMOOTH",
"935 -33 OFFCURVE",
"928 -40 OFFCURVE",
"924 -43 CURVE SMOOTH",
"789 -162 LINE SMOOTH",
"784 -166 OFFCURVE",
"781 -172 OFFCURVE",
"781 -179 CURVE SMOOTH",
"781 -193 OFFCURVE",
"792 -209 OFFCURVE",
"807 -209 CURVE SMOOTH"
);
}
);
width = 1502;
}
);
unicode = 109E0;
},
{
glyphname = u109E1;
lastChange = "2017-11-08 19:36:06 +0000";
layers = (
{
layerId = UUID0;
paths = (
{
closed = 1;
nodes = (
"1425 -361 OFFCURVE",
"1414 -348 OFFCURVE",
"1394 -345 CURVE SMOOTH",
"1117 -297 LINE",
"1141 -279 OFFCURVE",
"1158 -252 OFFCURVE",
"1158 -211 CURVE SMOOTH",
"1158 -150 OFFCURVE",
"1109 -115 OFFCURVE",
"1055 -111 CURVE",
"1064 -91 OFFCURVE",
"1076 -77 OFFCURVE",
"1076 -62 CURVE SMOOTH",
"1076 -45 OFFCURVE",
"1062 -34 OFFCURVE",
"1048 -34 CURVE SMOOTH",
"1039 -34 OFFCURVE",
"1031 -38 OFFCURVE",
"1027 -46 CURVE SMOOTH",
"971 -154 OFFCURVE",
"909 -231 OFFCURVE",
"811 -298 CURVE SMOOTH",
"805 -302 OFFCURVE",
"799 -311 OFFCURVE",
"799 -317 CURVE SMOOTH",
"799 -331 OFFCURVE",
"811 -343 OFFCURVE",
"826 -343 CURVE SMOOTH",
"832 -343 OFFCURVE",
"839 -340 OFFCURVE",
"845 -336 CURVE SMOOTH",
"913 -293 OFFCURVE",
"972 -236 OFFCURVE",
"1019 -170 CURVE",
"1023 -169 OFFCURVE",
"1028 -169 OFFCURVE",
"1033 -169 CURVE SMOOTH",
"1081 -169 OFFCURVE",
"1098 -195 OFFCURVE",
"1098 -217 CURVE SMOOTH",
"1098 -263 OFFCURVE",
"1042 -274 OFFCURVE",
"1014 -279 CURVE SMOOTH",
"1000 -282 OFFCURVE",
"990 -296 OFFCURVE",
"990 -311 CURVE SMOOTH",
"990 -322 OFFCURVE",
"997 -333 OFFCURVE",
"1011 -335 CURVE SMOOTH",
"1385 -397 LINE SMOOTH",
"1390 -398 OFFCURVE",
"1397 -399 OFFCURVE",
"1399 -399 CURVE SMOOTH",
"1418 -399 OFFCURVE",
"1425 -387 OFFCURVE",
"1425 -374 CURVE SMOOTH"
);
},
{
closed = 1;
nodes = (
"1253 299 LINE",
"1254 323 OFFCURVE",
"1277 334 OFFCURVE",
"1314 340 CURVE SMOOTH",
"1386 351 OFFCURVE",
"1441 372 OFFCURVE",
"1441 448 CURVE SMOOTH",
"1441 548 OFFCURVE",
"1341 550 OFFCURVE",
"1268 550 CURVE SMOOTH",
"1153 550 LINE SMOOTH",
"1128 550 OFFCURVE",
"1122 533 OFFCURVE",
"1122 517 CURVE SMOOTH",
"1122 506 OFFCURVE",
"1122 484 OFFCURVE",
"1154 484 CURVE SMOOTH",
"1270 484 LINE SMOOTH",
"1332 484 OFFCURVE",
"1369 472 OFFCURVE",
"1369 445 CURVE SMOOTH",
"1369 413 OFFCURVE",
"1331 404 OFFCURVE",
"1293 396 CURVE SMOOTH",
"1234 384 OFFCURVE",
"1189 375 OFFCURVE",
"1189 307 CURVE SMOOTH",
"1189 247 OFFCURVE",
"1199 233 OFFCURVE",
"1214 233 CURVE SMOOTH",
"1278 233 LINE SMOOTH",
"1329 233 OFFCURVE",
"1400 222 OFFCURVE",
"1400 166 CURVE SMOOTH",
"1400 73 OFFCURVE",
"1210 65 OFFCURVE",
"1145 65 CURVE SMOOTH",
"1034 65 OFFCURVE",
"923 69 OFFCURVE",
"809 74 CURVE SMOOTH",
"679 80 OFFCURVE",
"545 86 OFFCURVE",
"404 86 CURVE SMOOTH",
"273 86 OFFCURVE",
"156 62 OFFCURVE",
"45 3 CURVE SMOOTH",
"35 -2 OFFCURVE",
"30 -15 OFFCURVE",
"30 -27 CURVE SMOOTH",
"30 -43 OFFCURVE",
"39 -58 OFFCURVE",
"56 -58 CURVE SMOOTH",
"61 -58 OFFCURVE",
"66 -57 OFFCURVE",
"72 -54 CURVE SMOOTH",
"187 -2 OFFCURVE",
"283 18 OFFCURVE",
"403 18 CURVE SMOOTH",
"532 18 OFFCURVE",
"665 12 OFFCURVE",
"796 7 CURVE SMOOTH",
"917 2 OFFCURVE",
"1036 -3 OFFCURVE",
"1148 -3 CURVE SMOOTH",
"1317 -3 OFFCURVE",
"1472 18 OFFCURVE",
"1472 173 CURVE SMOOTH",
"1472 264 OFFCURVE",
"1387 299 OFFCURVE",
"1285 299 CURVE SMOOTH"
);
}
);
width = 1502;
}
);
unicode = 109E1;
},
{
glyphname = u109E2;
lastChange = "2017-11-08 19:36:06 +0000";
layers = (
{
layerId = UUID0;
paths = (
{
closed = 1;
nodes = (
"1661 136 OFFCURVE",
"1651 130 OFFCURVE",
"1651 120 CURVE SMOOTH",
"1651 108 OFFCURVE",
"1658 82 OFFCURVE",
"1658 64 CURVE SMOOTH",
"1658 23 OFFCURVE",
"1642 -5 OFFCURVE",
"1616 -32 CURVE SMOOTH",
"1471 -178 LINE SMOOTH",
"1464 -185 OFFCURVE",
"1460 -194 OFFCURVE",
"1460 -201 CURVE SMOOTH",
"1460 -217 OFFCURVE",
"1474 -228 OFFCURVE",
"1490 -228 CURVE SMOOTH",
"1497 -228 OFFCURVE",
"1508 -225 OFFCURVE",
"1521 -211 CURVE SMOOTH",
"1680 -44 LINE SMOOTH",
"1708 -15 OFFCURVE",
"1719 28 OFFCURVE",
"1719 67 CURVE SMOOTH",
"1719 88 OFFCURVE",
"1715 104 OFFCURVE",
"1708 121 CURVE SMOOTH",
"1704 131 OFFCURVE",
"1689 136 OFFCURVE",
"1676 136 CURVE SMOOTH"
);
},
{
closed = 1;
nodes = (
"1551 136 OFFCURVE",
"1540 130 OFFCURVE",
"1540 116 CURVE SMOOTH",
"1540 108 LINE SMOOTH",
"1540 67 OFFCURVE",
"1525 39 OFFCURVE",
"1498 12 CURVE SMOOTH",
"1373 -116 LINE SMOOTH",
"1366 -123 OFFCURVE",
"1362 -132 OFFCURVE",
"1362 -139 CURVE SMOOTH",
"1362 -154 OFFCURVE",
"1376 -166 OFFCURVE",
"1392 -166 CURVE SMOOTH",
"1399 -166 OFFCURVE",
"1409 -163 OFFCURVE",
"1423 -149 CURVE SMOOTH",
"1562 -1 LINE SMOOTH",
"1588 27 OFFCURVE",
"1601 66 OFFCURVE",
"1601 116 CURVE SMOOTH",
"1601 131 OFFCURVE",
"1585 136 OFFCURVE",
"1572 136 CURVE SMOOTH"
);
},
{
closed = 1;
nodes = (
"1253 299 LINE",
"1254 323 OFFCURVE",
"1277 334 OFFCURVE",
"1314 340 CURVE SMOOTH",
"1386 351 OFFCURVE",
"1441 372 OFFCURVE",
"1441 448 CURVE SMOOTH",
"1441 548 OFFCURVE",
"1341 550 OFFCURVE",
"1268 550 CURVE SMOOTH",
"1153 550 LINE SMOOTH",
"1128 550 OFFCURVE",
"1122 533 OFFCURVE",
"1122 517 CURVE SMOOTH",
"1122 506 OFFCURVE",
"1122 484 OFFCURVE",
"1154 484 CURVE SMOOTH",
"1270 484 LINE SMOOTH",
"1332 484 OFFCURVE",
"1369 472 OFFCURVE",
"1369 445 CURVE SMOOTH",
"1369 413 OFFCURVE",
"1331 404 OFFCURVE",
"1293 396 CURVE SMOOTH",
"1234 384 OFFCURVE",
"1189 375 OFFCURVE",
"1189 307 CURVE SMOOTH",
"1189 247 OFFCURVE",
"1199 233 OFFCURVE",
"1214 233 CURVE SMOOTH",
"1278 233 LINE SMOOTH",
"1329 233 OFFCURVE",
"1400 222 OFFCURVE",
"1400 166 CURVE SMOOTH",
"1400 73 OFFCURVE",
"1210 65 OFFCURVE",
"1145 65 CURVE SMOOTH",
"1048 65 OFFCURVE",
"951 69 OFFCURVE",
"852 73 CURVE SMOOTH",
"708 79 OFFCURVE",
"561 86 OFFCURVE",
"404 86 CURVE SMOOTH",
"273 86 OFFCURVE",
"156 62 OFFCURVE",
"45 3 CURVE SMOOTH",
"35 -2 OFFCURVE",
"30 -15 OFFCURVE",
"30 -27 CURVE SMOOTH",
"30 -43 OFFCURVE",
"39 -58 OFFCURVE",
"56 -58 CURVE SMOOTH",
"61 -58 OFFCURVE",
"66 -57 OFFCURVE",
"72 -54 CURVE SMOOTH",
"187 -2 OFFCURVE",
"283 18 OFFCURVE",
"403 18 CURVE SMOOTH",
"546 18 OFFCURVE",
"694 11 OFFCURVE",
"839 5 CURVE SMOOTH",
"945 1 OFFCURVE",
"1049 -3 OFFCURVE",
"1148 -3 CURVE SMOOTH",
"1317 -3 OFFCURVE",
"1472 18 OFFCURVE",
"1472 173 CURVE SMOOTH",
"1472 264 OFFCURVE",
"1387 299 OFFCURVE",
"1285 299 CURVE SMOOTH"
);
}
);
width = 1749;
}
);
unicode = 109E2;
},
{
glyphname = u109E3;
lastChange = "2017-11-08 19:36:06 +0000";
layers = (
{
layerId = UUID0;
paths = (
{
closed = 1;
nodes = (
"1563 -48 LINE",
"1621 -48 OFFCURVE",
"1669 -13 OFFCURVE",
"1669 41 CURVE SMOOTH",
"1669 105 OFFCURVE",
"1621 138 OFFCURVE",
"1565 138 CURVE SMOOTH",
"1547 138 OFFCURVE",
"1536 136 OFFCURVE",
"1529 132 CURVE SMOOTH",
"1518 126 OFFCURVE",
"1515 120 OFFCURVE",
"1515 110 CURVE SMOOTH",
"1515 95 OFFCURVE",
"1524 81 OFFCURVE",
"1537 81 CURVE SMOOTH",
"1545 81 OFFCURVE",
"1549 82 OFFCURVE",
"1554 82 CURVE SMOOTH",
"1597 82 OFFCURVE",
"1609 63 OFFCURVE",
"1609 41 CURVE SMOOTH",
"1609 13 OFFCURVE",
"1587 -3 OFFCURVE",
"1548 -3 CURVE SMOOTH",
"1540 -3 OFFCURVE",
"1529 0 OFFCURVE",
"1522 0 CURVE SMOOTH",
"1505 0 OFFCURVE",
"1504 -17 OFFCURVE",
"1504 -36 CURVE SMOOTH",
"1504 -197 LINE SMOOTH",
"1504 -219 OFFCURVE",
"1519 -230 OFFCURVE",
"1533 -230 CURVE SMOOTH",
"1548 -230 OFFCURVE",
"1563 -219 OFFCURVE",
"1563 -197 CURVE SMOOTH"
);
},
{
closed = 1;
nodes = (
"1253 299 LINE",
"1254 323 OFFCURVE",
"1277 334 OFFCURVE",
"1314 340 CURVE SMOOTH",
"1386 351 OFFCURVE",
"1441 372 OFFCURVE",
"1441 448 CURVE SMOOTH",
"1441 548 OFFCURVE",
"1341 550 OFFCURVE",
"1268 550 CURVE SMOOTH",
"1153 550 LINE SMOOTH",
"1128 550 OFFCURVE",
"1122 533 OFFCURVE",
"1122 517 CURVE SMOOTH",
"1122 506 OFFCURVE",
"1122 484 OFFCURVE",
"1154 484 CURVE SMOOTH",
"1270 484 LINE SMOOTH",
"1332 484 OFFCURVE",
"1369 472 OFFCURVE",
"1369 445 CURVE SMOOTH",
"1369 413 OFFCURVE",
"1331 404 OFFCURVE",
"1293 396 CURVE SMOOTH",
"1234 384 OFFCURVE",
"1189 375 OFFCURVE",
"1189 307 CURVE SMOOTH",
"1189 247 OFFCURVE",
"1199 233 OFFCURVE",
"1214 233 CURVE SMOOTH",
"1278 233 LINE SMOOTH",
"1329 233 OFFCURVE",
"1400 222 OFFCURVE",
"1400 166 CURVE SMOOTH",
"1400 73 OFFCURVE",
"1210 65 OFFCURVE",
"1145 65 CURVE SMOOTH",
"1033 65 OFFCURVE",
"921 70 OFFCURVE",
"806 75 CURVE SMOOTH",
"677 81 OFFCURVE",
"544 86 OFFCURVE",
"404 86 CURVE SMOOTH",
"273 86 OFFCURVE",
"156 62 OFFCURVE",
"45 3 CURVE SMOOTH",
"35 -2 OFFCURVE",
"30 -15 OFFCURVE",
"30 -27 CURVE SMOOTH",
"30 -43 OFFCURVE",
"39 -58 OFFCURVE",
"56 -58 CURVE SMOOTH",
"61 -58 OFFCURVE",
"66 -57 OFFCURVE",
"72 -54 CURVE SMOOTH",
"187 -2 OFFCURVE",
"283 18 OFFCURVE",
"403 18 CURVE SMOOTH",
"530 18 OFFCURVE",
"660 12 OFFCURVE",
"788 7 CURVE SMOOTH",
"911 2 OFFCURVE",
"1033 -3 OFFCURVE",
"1148 -3 CURVE SMOOTH",
"1317 -3 OFFCURVE",
"1472 18 OFFCURVE",
"1472 173 CURVE SMOOTH",
"1472 264 OFFCURVE",
"1387 299 OFFCURVE",
"1285 299 CURVE SMOOTH"
);
}
);
width = 1699;
}
);
unicode = 109E3;
},
